<?xml version="1.0" encoding="UTF-8"?>
<svg version="1.1" xmlns="http://www.w3.org/2000/svg" width="512" height="512">
<path d="M0 0 C0.93502238 -0.00367669 1.87004475 -0.00735338 2.83340114 -0.01114148 C5.96836167 -0.02215958 9.10328902 -0.026019 12.23826599 -0.02983093 C14.48551539 -0.03609704 16.73276375 -0.04274397 18.98001099 -0.04974365 C26.36223125 -0.07077039 33.74445168 -0.08114531 41.12669373 -0.09111023 C43.67005359 -0.09515842 46.21341335 -0.09927536 48.75677299 -0.10346031 C59.33835466 -0.12032741 69.9199342 -0.13496156 80.50152683 -0.14220905 C83.24515344 -0.14411876 85.98878004 -0.14603912 88.73240662 -0.147995 C89.41427278 -0.14847874 90.09613895 -0.14896248 90.79866772 -0.14946087 C101.83512225 -0.15775451 112.87146816 -0.18308162 123.90787531 -0.21557567 C135.25342235 -0.248706 146.59889489 -0.26633088 157.94449753 -0.26985329 C164.30866786 -0.27220122 170.67266644 -0.2811285 177.03679085 -0.30631447 C183.02782083 -0.32964092 189.01856653 -0.33380984 195.0096302 -0.32355309 C197.2025192 -0.32305872 199.3954224 -0.32934968 201.58826828 -0.34310913 C222.89021013 -0.46924026 222.89021013 -0.46924026 232.74778748 4.14717102 C233.56728158 4.52522731 234.38677568 4.9032836 235.23110294 5.29279613 C247.98147908 11.49552884 257.33864001 22.90750713 262.70481873 35.76435852 C265.50248599 44.83844036 266.03352212 53.70056143 265.97483826 63.14595032 C265.97513031 64.39601364 265.97542236 65.64607697 265.97572327 66.934021 C265.97457748 70.32592162 265.96462163 73.71757179 265.95057535 77.10942817 C265.93798149 80.66747773 265.93689073 84.22553144 265.93452454 87.78359985 C265.92833499 94.5052157 265.91195877 101.22676566 265.89182556 107.94835263 C265.86938742 115.60746116 265.85845332 123.266573 265.84843469 130.92570627 C265.82758999 146.66623254 265.79246373 162.40669324 265.74778748 178.14717102 C266.77465416 178.34558342 266.77465416 178.34558342 267.82226562 178.54800415 C269.17093971 178.81232491 269.17093971 178.81232491 270.54685974 179.08198547 C271.43768753 179.25551041 272.32851532 179.42903534 273.24633789 179.6078186 C291.59187813 183.5634096 307.30176626 197.08048327 317.45481873 212.37763977 C327.36539301 228.16757852 330.22103876 244.75592348 330.11668396 263.13520813 C330.11915978 264.67122159 330.12300605 266.20723334 330.12809753 267.74324036 C330.13635404 271.01700472 330.13569872 274.29059463 330.12791252 277.56435966 C330.11621373 282.74720004 330.12858509 287.92982132 330.14453125 293.11264038 C330.180518 305.97272986 330.18695208 318.83281204 330.18443298 331.69294739 C330.18271989 341.71749063 330.18986534 351.74185182 330.22441155 361.76634413 C330.24115347 366.91330869 330.23945829 372.0598274 330.22358882 377.20678985 C330.21777903 380.40850381 330.22855319 383.61000751 330.24383545 386.81168365 C330.24755029 388.2902752 330.24448662 389.76890254 330.23396492 391.24746132 C330.18085288 399.24621217 330.19548356 405.39956519 334.74778748 412.14717102 C338.93543311 415.76683871 343.03665151 416.80060414 348.53684998 416.53779602 C353.12514532 415.72714313 356.47961599 413.54215965 359.62278748 410.08467102 C362.15559933 405.72260616 361.90026202 401.47033245 361.90600586 396.58621216 C361.91341283 395.25929628 361.91341283 395.25929628 361.92096943 393.90557402 C361.93637508 390.92987457 361.94471336 387.95419674 361.95310974 384.97846985 C361.96268585 382.84997364 361.97269577 380.72147934 361.98310852 378.59298706 C362.01019256 372.80410534 362.03118318 367.01521543 362.05111051 361.22630525 C362.07294849 355.18043663 362.10034787 349.13459333 362.12716675 343.08874512 C362.17712326 331.63533504 362.22205111 320.18191093 362.26518911 308.72847337 C362.31453622 295.69115023 362.36946371 282.65385249 362.4248687 269.6165539 C362.53873416 242.79344997 362.64556325 215.97032167 362.74778748 189.14717102 C361.48934021 188.84029358 360.23089294 188.53341614 358.93431091 188.21723938 C344.28899438 184.64591988 331.68018288 173.79832471 323.74778748 161.14717102 C316.71297433 148.37781825 314.27858417 135.78884964 314.31419373 121.25263977 C314.30895187 119.98044083 314.30371002 118.70824188 314.29830933 117.39749146 C314.29193181 114.7308008 314.29170082 112.06498121 314.30174255 109.39839172 C314.31329693 106.00140564 314.29287822 102.60544925 314.26382542 99.20859814 C314.24098066 95.93160753 314.24793106 92.65469125 314.25169373 89.37763977 C314.24045975 88.16915878 314.22922577 86.9606778 314.21765137 85.71557617 C314.27515968 78.73521536 314.88553974 74.03531774 318.74778748 68.14717102 C322.50285393 65.00909884 325.88267312 63.94689187 330.74778748 64.14717102 C330.72684021 63.09851868 330.70589294 62.04986633 330.68431091 60.96943665 C330.61146255 57.04835367 330.56582637 53.12732953 330.52806091 49.20576477 C330.50804688 47.51425591 330.48082674 45.82281535 330.44602966 44.13154602 C330.39705682 41.68866548 330.37471714 39.24670591 330.35716248 36.80342102 C330.33651733 36.05725525 330.31587219 35.31108948 330.29460144 34.54231262 C330.29226978 28.98456324 331.6860135 24.80195517 334.74778748 20.14717102 C338.38358242 16.600054 341.31408533 15.86138875 346.24778748 15.64717102 C351.16855257 15.84747353 354.04789275 16.7180003 357.74778748 20.14717102 C361.90970261 25.19875023 362.29987663 28.78702143 362.13841248 35.04560852 C362.13275269 35.88056854 362.1270929 36.71552856 362.1212616 37.57579041 C362.09898971 40.22518368 362.04881271 42.87319118 361.99778748 45.52217102 C361.9777105 47.32553681 361.95946183 49.12892395 361.94309998 50.93232727 C361.90256729 55.33822988 361.82426594 59.74116178 361.74778748 64.14717102 C372.63778748 64.14717102 383.52778748 64.14717102 394.74778748 64.14717102 C394.71298279 61.70181946 394.6781781 59.2564679 394.64231873 56.73701477 C394.61887675 54.35071478 394.60068669 51.96442795 394.58299255 49.57807922 C394.56796942 47.92828058 394.54754488 46.27852144 394.52146912 44.62886047 C394.48479849 42.24814566 394.46799645 39.86796194 394.45481873 37.48701477 C394.43933487 36.75756149 394.42385101 36.02810822 394.40789795 35.27655029 C394.40580908 28.82169756 395.92235822 24.24641466 400.24778748 19.27217102 C404.38620193 15.75451873 408.10631604 15.86790972 413.31028748 15.92842102 C418.37475966 16.38292493 421.51233927 19.44951593 424.74778748 23.14717102 C426.04265763 27.03178149 425.87104787 30.70601058 425.84544373 34.75263977 C425.8433213 36.01144707 425.8433213 36.01144707 425.84115601 37.29568481 C425.83555963 39.97538318 425.82300782 42.65499792 425.81028748 45.33467102 C425.80527201 47.15172711 425.80070918 48.9687845 425.7966156 50.7858429 C425.78559139 55.23965115 425.76832926 59.69339691 425.74778748 64.14717102 C427.13417419 64.0910968 427.13417419 64.0910968 428.54856873 64.03388977 C433.33725824 64.20345265 436.03036897 66.66663783 439.56028748 69.70967102 C442.17984021 72.88070854 441.89003515 76.33354457 441.92478943 80.24824524 C441.93762466 81.50740753 441.9504599 82.76656982 441.96368408 84.06388855 C441.97185818 85.44320783 441.97930062 86.82253162 441.98606873 88.20185852 C441.99014425 88.8999979 441.99421978 89.59813728 441.99841881 90.3174324 C442.01928234 94.02174328 442.03357569 97.72601723 442.04295349 101.43037415 C442.05394271 105.22387118 442.08825291 109.01676936 442.12812519 112.81005669 C442.15452309 115.75296472 442.16266619 118.69573603 442.16623497 121.63875198 C442.17105145 123.03475556 442.18252095 124.43075514 442.20127296 125.82664108 C442.44520967 145.20976247 435.76190387 160.16381239 422.79466248 174.27217102 C415.01612366 181.87257536 404.47105058 187.45005769 393.74778748 189.14717102 C393.75147465 190.26900882 393.75516182 191.39084661 393.75896072 192.5466795 C393.84785267 219.87339688 393.91353497 247.20009545 393.95503616 274.52692699 C393.97564049 287.74210951 394.0037205 300.95719639 394.04954529 314.1723175 C394.08947809 325.69380249 394.11523576 337.21521818 394.12414145 348.73677045 C394.12934524 354.83446001 394.14153192 360.93195137 394.1707077 367.02957726 C394.19797847 372.77594275 394.20620889 378.52202953 394.2002182 384.2684536 C394.20131323 386.37062091 394.20919714 388.47279812 394.22460938 390.57490921 C394.35128971 408.75402423 392.26845295 422.20271453 379.31028748 435.95967102 C369.41569474 445.26451981 357.41508336 448.78841845 343.9919281 448.61958313 C331.38184435 448.09606495 319.04769879 442.53818083 310.40794373 433.24482727 C300.29305825 420.46437197 298.29090797 407.42646829 298.36302185 391.56318665 C298.35890692 390.03410439 298.35344064 388.50502527 298.34674072 386.97595215 C298.33509605 383.70706217 298.33250234 380.43834065 298.33709717 377.16943359 C298.3439595 371.98992955 298.32794968 366.81064353 298.30870056 361.63117981 C298.26779198 349.70348031 298.25632171 337.77578785 298.24517059 325.84803009 C298.23463651 314.90741726 298.21773469 303.9669106 298.17707491 293.0263629 C298.15882476 287.88811207 298.15478775 282.75011464 298.16201019 277.61183929 C298.16354218 274.40449641 298.15268524 271.19727807 298.13863182 267.98996925 C298.13466164 266.51467677 298.13569798 265.03935996 298.14240456 263.56407738 C298.21658034 245.87464465 294.37481057 232.42842822 281.89622498 219.53388977 C277.29673416 216.04717899 271.91014878 213.72835167 266.74778748 211.14717102 C266.41778748 300.57717102 266.08778748 390.00717102 265.74778748 482.14717102 C267.72778748 482.14717102 269.70778748 482.14717102 271.74778748 482.14717102 C276.83213083 484.6893427 279.83161063 487.85077211 281.74778748 493.14717102 C282.72995399 498.23840155 281.73559822 502.05752133 279.20872498 506.50654602 C276.12717357 509.96711177 273.63851823 511.88977194 269.01545811 512.5191431 C265.47975644 512.66478459 261.96335856 512.67988775 258.42466736 512.65510559 C257.05019994 512.65971629 255.67573746 512.66607034 254.30128527 512.67401457 C250.52956647 512.69070817 246.75825267 512.68246161 242.98653245 512.67006969 C238.9169276 512.66102157 234.84739252 512.67498774 230.77780151 512.68598938 C222.8075438 512.70378176 214.83743671 512.69993144 206.86717308 512.68833882 C200.38995176 512.67930759 193.91277268 512.67807915 187.43554688 512.68243408 C186.51389686 512.68304701 185.59224684 512.68365995 184.64266804 512.68429145 C182.77039062 512.68557035 180.89811321 512.6868672 179.02583581 512.68818182 C161.46687158 512.69958972 143.90799086 512.68647061 126.34904033 512.66498035 C111.28057958 512.64710918 96.21224209 512.65021323 81.14378357 512.6686554 C63.64792523 512.69005839 46.1521401 512.69849106 28.6562705 512.68620634 C26.79085637 512.68493214 24.92544223 512.68367465 23.06002808 512.68243408 C22.14219356 512.68181698 21.22435904 512.68119988 20.27871135 512.68056408 C13.80879588 512.67710946 7.33892683 512.68294192 0.86901855 512.69235229 C-7.01498813 512.70356732 -14.8988355 512.70054272 -22.78282392 512.67922932 C-26.80587748 512.66871216 -30.82866536 512.66460826 -34.851717 512.67782593 C-38.53431931 512.68974212 -42.21640958 512.6832006 -45.89896542 512.66191572 C-47.86266082 512.65532844 -49.82639174 512.66839275 -51.79005003 512.68214464 C-62.46473532 512.58683055 -62.46473532 512.58683055 -67.25221252 508.14717102 C-71.30851651 502.92457245 -71.02618796 497.4937696 -70.25221252 491.14717102 C-68.13766948 486.68313571 -65.83141057 484.06404462 -61.25221252 482.14717102 C-58.91930778 482.1024508 -56.58502652 482.097944 -54.25221252 482.14717102 C-54.25373141 481.22742864 -54.25525029 480.30768627 -54.2568152 479.36007291 C-54.34649738 424.83918872 -54.41496648 370.31831136 -54.45647384 315.79736819 C-54.46147662 309.24982513 -54.46665392 302.70228222 -54.47193909 296.15473938 C-54.47351295 294.19950645 -54.47351295 294.19950645 -54.47511861 292.20477387 C-54.4925201 271.10355744 -54.52405642 250.00238463 -54.56082371 228.90119407 C-54.59824017 207.24670639 -54.62044988 185.59224154 -54.6285665 163.93772286 C-54.63405279 150.57755396 -54.65137601 137.21750837 -54.68387839 123.85737743 C-54.70503494 114.69373466 -54.71140996 105.53015558 -54.70621803 96.36649016 C-54.70365807 91.0808746 -54.70756083 85.79547442 -54.72903442 80.50989723 C-54.74857219 75.66531249 -54.74943573 70.82108693 -54.7358081 65.97648527 C-54.73412508 64.22928655 -54.73913779 62.48206494 -54.75174525 60.73491088 C-54.87634951 42.39186691 -50.50918722 28.12264146 -37.73658752 14.47138977 C-27.00539626 4.43198914 -14.41796883 -0.00304773 0 0 Z " fill="#00B44B" transform="translate(70.25221252441406,-0.1471710205078125)"/>
<path d="M0 0 C0.97450104 -0.00137466 1.94900208 -0.00274933 2.95303345 -0.00416565 C4.010392 -0.00057037 5.06775055 0.0030249 6.15715027 0.00672913 C7.27954102 0.0065831 8.40193176 0.00643707 9.55833435 0.00628662 C13.26471394 0.00698276 16.97104314 0.01476124 20.67741394 0.02259827 C23.24859591 0.02446351 25.81977824 0.02588691 28.39096069 0.02688599 C34.4646421 0.03031278 40.53830274 0.03819269 46.61197633 0.04823548 C54.2073531 0.06052107 61.80273283 0.06598587 69.39811707 0.07142639 C82.943053 0.0811586 96.48794954 0.10119206 110.03288269 0.12025452 C110.03288269 21.24025452 110.03288269 42.36025452 110.03288269 64.12025452 C118.98928894 64.0332428 118.98928894 64.0332428 128.12663269 63.94447327 C131.91832667 63.91891351 135.70991383 63.89484315 139.50163269 63.87611389 C145.51487904 63.8462702 151.52774326 63.8110355 157.54069519 63.74305725 C162.390698 63.6885721 167.24029083 63.65879916 172.09057617 63.6458683 C173.9373113 63.63665799 175.784025 63.61867218 177.63058472 63.59160423 C180.22545661 63.55509353 182.81865302 63.5503182 185.41374207 63.55262756 C186.54879181 63.52566299 186.54879181 63.52566299 187.70677185 63.49815369 C193.54238724 63.55403392 197.60012552 65.31030734 202.03288269 69.12025452 C206.36944186 74.59020248 205.46093814 81.60960863 205.43693542 88.26649475 C205.44264293 89.60576445 205.44960867 90.94502928 205.45773315 92.2842865 C205.475638 95.9103891 205.47450129 99.53624935 205.46879077 103.16238284 C205.46569498 106.19414219 205.4717957 109.22585525 205.47782952 112.257608 C205.49186437 119.41213955 205.49032218 126.56655167 205.47892761 133.72108459 C205.46744745 141.09205891 205.48152248 148.46266933 205.50832409 155.83359569 C205.53050425 162.17180386 205.53711327 168.509898 205.53124768 174.84814221 C205.52788239 178.6294149 205.53026438 182.41045435 205.5474987 186.19169426 C205.56300295 189.74840349 205.55897451 193.30457502 205.54019356 196.86126328 C205.53477012 198.78143915 205.54899538 200.70163936 205.56388855 202.62176514 C205.50701797 209.29353152 205.35300628 213.87703391 201.03288269 219.12025452 C196.24562029 223.16710685 191.61258675 223.68946087 185.52726746 223.57435608 C184.70694534 223.57494019 183.88662323 223.57552429 183.04144287 223.5761261 C180.3519488 223.57335745 177.66358743 223.54232437 174.97428894 223.51087952 C173.100999 223.50341276 171.2277012 223.49772188 169.35440063 223.49372864 C164.44038568 223.47850648 159.52684881 223.43925431 154.61302185 223.39491272 C148.70842111 223.34666413 142.80365989 223.32840971 136.89891815 223.30509949 C127.9432412 223.26640109 118.98861181 223.18972365 110.03288269 223.12025452 C110.03288269 238.30025452 110.03288269 253.48025452 110.03288269 269.12025452 C112.01288269 269.45025452 113.99288269 269.78025452 116.03288269 270.12025452 C118.11491394 271.46009827 118.11491394 271.46009827 119.84538269 273.05775452 C120.72130066 273.84472717 120.72130066 273.84472717 121.61491394 274.64759827 C124.97325506 278.13546219 124.42309085 282.22462294 124.37687683 286.82154846 C123.80801578 292.27659896 121.55381555 296.56445878 119.00163269 301.35462952 C118.49112366 302.35866821 117.98061462 303.36270691 117.45463562 304.39717102 C115.83644258 307.56697216 114.18553365 310.71830625 112.53288269 313.87025452 C111.42259222 316.03057458 110.31449697 318.19202437 109.20866394 320.35462952 C106.50863601 325.62316036 103.78161687 330.87698547 101.03288269 336.12025452 C101.59585052 336.12612076 102.15881836 336.131987 102.73884583 336.13803101 C108.61176205 336.20209151 114.48413669 336.28654356 120.35661316 336.38270569 C122.54664457 336.41590761 124.73676059 336.44395422 126.92692566 336.46669006 C130.07979799 336.50032261 133.23189842 336.55264399 136.38444519 336.60853577 C137.35967133 336.61492569 138.33489746 336.62131561 139.3396759 336.62789917 C145.37006985 336.75757477 150.06947155 337.35393486 154.67741394 341.65541077 C157.93744141 345.91852361 159.44039044 348.29188273 159.35575867 353.76994324 C158.71905611 358.40469254 156.43942064 362.36803191 154.32975769 366.49134827 C153.83707397 367.4857341 153.34439026 368.48011993 152.83677673 369.50463867 C151.78470229 371.62695772 150.72644174 373.74621963 149.66252136 375.86262512 C148.04826677 379.08950192 146.46597542 382.33001268 144.89421082 385.57777405 C142.25692713 391.02722992 139.58967149 396.46112124 136.90641785 401.88807678 C135.81058964 404.11186651 134.72121627 406.33884707 133.63786316 408.56874084 C132.04007004 411.85541889 130.42162808 415.13118134 128.79850769 418.40541077 C128.3222998 419.39597977 127.84609192 420.38654877 127.35545349 421.40713501 C124.56582474 426.97063651 121.67264042 432.07585155 116.03288269 435.12025452 C114.05288269 435.45025452 112.07288269 435.78025452 110.03288269 436.12025452 C110.03288269 451.30025452 110.03288269 466.48025452 110.03288269 482.12025452 C57.23288269 482.12025452 4.43288269 482.12025452 -49.96711731 482.12025452 C-50.05531238 426.67031487 -50.12916397 371.22044141 -50.17137863 315.77045168 C-50.17638141 309.22290862 -50.1815587 302.67536571 -50.18684387 296.12782288 C-50.18789311 294.82433426 -50.18894236 293.52084564 -50.19002339 292.17785736 C-50.20742489 271.07664093 -50.23896121 249.97546813 -50.27572849 228.87427757 C-50.31314496 207.21978989 -50.33535467 185.56532504 -50.34347129 163.91080636 C-50.34895757 150.55063746 -50.36628079 137.19059187 -50.39878318 123.83046093 C-50.41993973 114.66681816 -50.42631474 105.50323907 -50.42112282 96.33957366 C-50.41856285 91.0539581 -50.42246562 85.76855792 -50.44393921 80.48298073 C-50.46347697 75.63839598 -50.46434052 70.79417043 -50.45071289 65.94956877 C-50.44902987 64.20237004 -50.45404257 62.45514843 -50.46665004 60.70799438 C-50.5912543 42.36495041 -46.22409201 28.09572496 -33.45149231 14.44447327 C-24.48563833 6.05660673 -12.42804061 -0.01358256 0 0 Z " fill="#54E25F" transform="translate(65.96711730957031,-0.1202545166015625)"/>
<path d="M0 0 C4.94021608 2.33537487 7.39879155 5.24519807 10 10 C10.51733952 12.98038079 10.4684711 15.88100883 10.390625 18.8984375 C10.38496521 19.73339752 10.37930542 20.56835754 10.37347412 21.42861938 C10.35120223 24.07801266 10.30102523 26.72602016 10.25 29.375 C10.22992302 31.17836579 10.21167435 32.98175292 10.1953125 34.78515625 C10.15477982 39.19105886 10.07647846 43.59399076 10 48 C20.89 48 31.78 48 43 48 C42.96519531 45.55464844 42.93039062 43.10929687 42.89453125 40.58984375 C42.87108927 38.20354376 42.85289921 35.81725693 42.83520508 33.4309082 C42.82018194 31.78110956 42.7997574 30.13135042 42.77368164 28.48168945 C42.73701101 26.10097464 42.72020897 23.72079092 42.70703125 21.33984375 C42.69154739 20.61039047 42.67606354 19.88093719 42.66011047 19.12937927 C42.6580216 12.67452654 44.17457075 8.09924364 48.5 3.125 C52.63841446 -0.39265229 56.35852856 -0.2792613 61.5625 -0.21875 C66.62697219 0.23575391 69.76455179 3.30234491 73 7 C74.29487016 10.88461047 74.1232604 14.55883956 74.09765625 18.60546875 C74.09553383 19.86427605 74.09553383 19.86427605 74.09336853 21.14851379 C74.08777215 23.82821216 74.07522035 26.5078269 74.0625 29.1875 C74.05748453 31.00455608 74.05292171 32.82161348 74.04882812 34.63867188 C74.03780391 39.09248013 74.02054178 43.54622589 74 48 C75.38638672 47.94392578 75.38638672 47.94392578 76.80078125 47.88671875 C81.58947076 48.05628163 84.28258149 50.51946681 87.8125 53.5625 C90.43205273 56.73353752 90.14224767 60.18637355 90.17700195 64.10107422 C90.19625481 65.98981766 90.19625481 65.98981766 90.21589661 67.91671753 C90.2240707 69.29603681 90.23151314 70.6753606 90.23828125 72.0546875 C90.24235678 72.75282688 90.2464323 73.45096626 90.25063133 74.17026138 C90.27149487 77.87457226 90.28578821 81.57884621 90.29516602 85.28320312 C90.30615523 89.07670016 90.34046543 92.86959833 90.38033772 96.66288567 C90.40673561 99.60579369 90.41487872 102.54856501 90.41844749 105.49158096 C90.42326398 106.88758454 90.43473347 108.28358412 90.45348549 109.67947006 C90.69742219 129.06259145 84.01411639 144.01664137 71.046875 158.125 C63.26833618 165.72540434 52.7232631 171.30288667 42 173 C42.00368717 174.1218378 42.00737434 175.24367559 42.01117325 176.39950848 C42.10006519 203.72622586 42.1657475 231.05292443 42.20724869 258.37975597 C42.22785302 271.59493849 42.25593303 284.81002537 42.30175781 298.02514648 C42.34169062 309.54663147 42.36744828 321.06804716 42.37635398 332.58959943 C42.38155777 338.68728899 42.39374444 344.78478035 42.42292023 350.88240623 C42.45019099 356.62877173 42.45842142 362.37485851 42.45243073 368.12128258 C42.45352575 370.22344989 42.46140967 372.3256271 42.4768219 374.42773819 C42.60350224 392.60685321 40.52066547 406.05554351 27.5625 419.8125 C17.66790727 429.11734879 5.66729588 432.64124743 -7.75585938 432.47241211 C-20.36594312 431.94889393 -32.70008868 426.39100981 -41.33984375 417.09765625 C-51.45472923 404.31720095 -53.45687951 391.27929727 -53.38476562 375.41601562 C-53.38888056 373.88693337 -53.39434683 372.35785425 -53.40104675 370.82878113 C-53.41269143 367.55989115 -53.41528513 364.29116963 -53.41069031 361.02226257 C-53.40382797 355.84275853 -53.4198378 350.66347251 -53.43908691 345.48400879 C-53.47999549 333.55630929 -53.49146577 321.62861683 -53.50261688 309.70085907 C-53.51315096 298.76024624 -53.53005279 287.81973958 -53.57071257 276.87919188 C-53.58896272 271.74094105 -53.59299972 266.60294362 -53.58577728 261.46466827 C-53.58424529 258.25732539 -53.59510224 255.05010705 -53.60915565 251.84279823 C-53.61312583 250.36750575 -53.6120895 248.89218894 -53.60538292 247.41690636 C-53.53825525 231.40830554 -56.37658731 217.77122435 -67.5625 205.75 C-73.79375723 199.95156085 -73.79375723 199.95156085 -86 194 C-86 183.44 -86 172.88 -86 162 C-64.96278221 166.20744356 -47.90378448 176.68290851 -35.50341797 194.40673828 C-24.74817426 210.61118978 -21.52223655 227.81405584 -21.63110352 246.98803711 C-21.62862769 248.52405057 -21.62478143 250.06006232 -21.61968994 251.59606934 C-21.61143344 254.8698337 -21.61208876 258.14342361 -21.61987495 261.41718864 C-21.63157374 266.60002902 -21.61920239 271.7826503 -21.60325623 276.96546936 C-21.56726948 289.82555884 -21.56083539 302.68564102 -21.56335449 315.54577637 C-21.56506758 325.57031961 -21.55792214 335.5946808 -21.52337593 345.61917311 C-21.50663401 350.76613767 -21.50832918 355.91265638 -21.52419865 361.05961883 C-21.53000845 364.26133279 -21.51923429 367.46283649 -21.50395203 370.66451263 C-21.50023719 372.14310418 -21.50330086 373.62173152 -21.51382256 375.1002903 C-21.56693459 383.09904115 -21.55230391 389.25239417 -17 396 C-12.81235436 399.61966769 -8.71113596 400.65343312 -3.2109375 400.390625 C1.37735784 399.57997211 4.73182852 397.39498863 7.875 393.9375 C10.40781185 389.57543514 10.15247454 385.32316143 10.15821838 380.43904114 C10.16315636 379.55443055 10.16809434 378.66981997 10.17318195 377.758403 C10.1885876 374.78270355 10.19692588 371.80702572 10.20532227 368.83129883 C10.21489838 366.70280262 10.2249083 364.57430832 10.23532104 362.44581604 C10.26240508 356.65693432 10.2833957 350.86804441 10.30332303 345.07913423 C10.32516101 339.03326561 10.35256039 332.9874223 10.37937927 326.9415741 C10.42933578 315.48816402 10.47426363 304.03473991 10.51740164 292.58130234 C10.56674875 279.54397921 10.62167623 266.50668147 10.67708123 253.46938288 C10.79094668 226.64627894 10.89777578 199.82315065 11 173 C9.1123291 172.53968384 9.1123291 172.53968384 7.18652344 172.07006836 C-7.45879309 168.49874885 -20.0676046 157.65115369 -28 145 C-35.03481315 132.23064723 -37.4692033 119.64167862 -37.43359375 105.10546875 C-37.4388356 103.83326981 -37.44407745 102.56107086 -37.44947815 101.25032043 C-37.45585566 98.58362978 -37.45608665 95.91781019 -37.44604492 93.2512207 C-37.43449055 89.85423462 -37.45490926 86.45827823 -37.48396206 83.06142712 C-37.50680682 79.78443651 -37.49985642 76.50752023 -37.49609375 73.23046875 C-37.50732773 72.02198776 -37.51856171 70.81350677 -37.53013611 69.56840515 C-37.4726278 62.58804434 -36.86224774 57.88814672 -33 52 C-29.24493354 48.86192782 -25.86511436 47.79972085 -21 48 C-21.0314209 46.42702148 -21.0314209 46.42702148 -21.06347656 44.82226562 C-21.13632492 40.90118265 -21.18196111 36.98015851 -21.21972656 33.05859375 C-21.2397406 31.36708489 -21.26696073 29.67564433 -21.30175781 27.984375 C-21.35073065 25.54149446 -21.37307033 23.09953489 -21.390625 20.65625 C-21.41127014 19.91008423 -21.43191528 19.16391846 -21.45318604 18.3951416 C-21.4555177 12.83739222 -20.06177397 8.65478415 -17 4 C-12.04154743 -0.83751471 -6.57836722 -0.96077494 0 0 Z " fill="#00884A" transform="translate(422,16)"/>
<path d="M0 0 C1.02443332 -0.00657338 1.02443332 -0.00657338 2.06956226 -0.01327956 C4.36325691 -0.02665827 6.65691314 -0.03284434 8.95063782 -0.03897095 C10.59325331 -0.0468727 12.23586707 -0.0551417 13.878479 -0.06375122 C19.27792199 -0.0899647 24.67737271 -0.10527902 30.07685852 -0.11953735 C31.93618589 -0.12489747 33.7955132 -0.13027498 35.65484047 -0.13566971 C43.39004564 -0.15729819 51.12524873 -0.17603427 58.86047649 -0.1872921 C69.94236255 -0.20352714 81.02389776 -0.23669446 92.10565156 -0.29369295 C99.89940319 -0.33241142 107.69306107 -0.3519271 115.48690635 -0.35721266 C120.14079041 -0.36086374 124.79430021 -0.37285893 129.44808006 -0.4053154 C133.82879822 -0.43542937 138.20891632 -0.44169613 142.58971596 -0.42993164 C144.19410058 -0.42971118 145.79851332 -0.43799376 147.40280151 -0.45558548 C162.45511065 -0.6116037 162.45511065 -0.6116037 167.90867996 3.71404743 C173.61334302 9.55415359 172.74689601 16.61688107 172.7191925 24.30014038 C172.72490001 25.63941008 172.73186575 26.97867491 172.73999023 28.31793213 C172.75789508 31.94403473 172.75675837 35.56989498 172.75104785 39.19602847 C172.74795206 42.22778782 172.75405278 45.25950088 172.7600866 48.29125363 C172.77412145 55.44578518 172.77257926 62.6001973 172.76118469 69.75473022 C172.74970453 77.12570454 172.76377956 84.49631496 172.79058117 91.86724132 C172.81276133 98.20544949 172.81937035 104.54354363 172.81350476 110.88178784 C172.81013947 114.66306053 172.81252146 118.44409998 172.82975578 122.22533989 C172.84526003 125.78204912 172.8412316 129.33822065 172.82245064 132.89490891 C172.81702721 134.81508478 172.83125246 136.73528499 172.84614563 138.65541077 C172.78927505 145.32717715 172.63526337 149.91067954 168.31513977 155.15390015 C163.36986586 158.47660807 160.20866353 159.65406778 154.13580322 159.65510559 C153.44801885 159.66063999 152.76023447 159.66617438 152.05160815 159.67187649 C149.76529621 159.6854033 147.48009119 159.67055872 145.19380188 159.65560913 C143.54734842 159.6593952 141.90089814 159.66489762 140.25445557 159.67198181 C135.79579561 159.6859151 131.33752246 159.67478216 126.87888408 159.6582706 C122.20785788 159.64439582 117.53685359 159.65088285 112.86581421 159.65440369 C105.0235828 159.65710362 97.18150464 159.64364793 89.33930969 159.62045288 C80.27730828 159.59383523 71.2155629 159.5920998 62.15353578 159.60384125 C53.42846083 159.61462575 44.70347834 159.60842727 35.97841072 159.59428596 C32.26841097 159.58853294 28.55847904 159.58860345 24.84847832 159.59335136 C20.47926608 159.59812883 16.11033372 159.58798765 11.7411747 159.56639671 C10.13920409 159.5608395 8.53720653 159.56035377 6.93523407 159.56534958 C4.74567795 159.57132077 2.55697229 159.55876339 0.36749268 159.5415802 C-0.85677461 159.5391503 -2.08104189 159.53672041 -3.34240818 159.53421688 C-8.29437718 158.97076327 -11.56260717 157.3696743 -14.93486023 153.71640015 C-17.82815725 149.47978664 -18.934597 146.78143566 -18.95228577 141.59486389 C-18.96081573 140.46357056 -18.9693457 139.33227722 -18.97813416 138.16670227 C-18.97722778 136.92973099 -18.97632141 135.6927597 -18.97538757 134.41830444 C-18.9821048 133.11223236 -18.98882202 131.80616028 -18.9957428 130.46051025 C-19.01340339 126.87979404 -19.01809824 123.29917344 -19.01937437 119.71841788 C-19.0207967 117.4797318 -19.02506789 115.24106996 -19.0303688 113.00238991 C-19.04887055 105.18772465 -19.0570394 97.3731276 -19.0554657 89.55844116 C-19.05426483 82.28181605 -19.07535578 75.00548781 -19.10695302 67.7289378 C-19.13313592 61.47570679 -19.14383213 55.2225726 -19.14255488 48.96928722 C-19.14204575 45.23715167 -19.14770092 41.50527988 -19.16891098 37.77319908 C-19.19193715 33.60782075 -19.18276023 29.44310397 -19.17070007 25.27767944 C-19.18193909 24.04678085 -19.1931781 22.81588226 -19.20475769 21.54768372 C-19.15550172 14.8556131 -18.75569641 10.55966191 -14.68486023 5.15390015 C-9.86669737 0.68828579 -6.45323113 0.02933699 0 0 Z " fill="#A7EAF9" transform="translate(98.68486022949219,63.846099853515625)"/>
<path d="M0 0 C13.695 -0.103125 27.39 -0.20625 41.5 -0.3125 C45.81255859 -0.35802002 50.12511719 -0.40354004 54.56835938 -0.45043945 C59.86425781 -0.47302246 59.86425781 -0.47302246 62.34924316 -0.47721863 C64.07229074 -0.48485999 65.79531278 -0.50236967 67.51818848 -0.52787781 C70.13954579 -0.56472378 72.75928017 -0.56952232 75.38085938 -0.56762695 C76.13901695 -0.58561749 76.89717453 -0.60360804 77.67830658 -0.62214375 C83.51189455 -0.56605392 87.56898526 1.19155045 92 5 C96.33655917 10.46994796 95.42805545 17.48935411 95.40405273 24.14624023 C95.40976024 25.48550993 95.41672598 26.82477477 95.42485046 28.16403198 C95.4427553 31.79013458 95.4416186 35.41599484 95.43590808 39.04212832 C95.43281229 42.07388767 95.43891301 45.10560073 95.44494683 48.13735348 C95.45898168 55.29188503 95.45743949 62.44629716 95.44604492 69.60083008 C95.43456476 76.97180439 95.44863979 84.34241481 95.4754414 91.71334118 C95.49762156 98.05154935 95.50423058 104.38964348 95.49836498 110.72788769 C95.4949997 114.50916038 95.49738169 118.29019984 95.51461601 122.07143974 C95.53012026 125.62814898 95.52609182 129.1843205 95.50731087 132.74100876 C95.50188743 134.66118463 95.51611269 136.58138485 95.53100586 138.50151062 C95.47413528 145.173277 95.32012359 149.7567794 91 155 C86.21270556 159.04687941 81.57958549 159.56907392 75.49438477 159.45410156 C74.66091743 159.4545837 73.82745008 159.45506584 72.96872616 159.45556259 C70.292506 159.45259629 67.61742488 159.42222738 64.94140625 159.390625 C63.28056372 159.38473783 61.61971376 159.38066083 59.9588623 159.37841797 C53.82662775 159.35751631 47.69455248 159.30167107 41.5625 159.25 C27.846875 159.1675 14.13125 159.085 0 159 C0 106.53 0 54.06 0 0 Z " fill="#75E1F7" transform="translate(176,64)"/>
<path d="M0 0 C5.35909124 0.46199062 8.0021563 2.94589477 12 6.3125 C14.61269244 11.13593219 14.22744347 15.94014302 13.625 21.3125 C12.36627565 25.29732122 10.55541739 28.86503783 8.59375 32.546875 C8.08324097 33.5509137 7.57273193 34.55495239 7.04675293 35.5894165 C5.42855989 38.75921765 3.77765096 41.91055174 2.125 45.0625 C1.01470953 47.22282007 -0.09338572 49.38426985 -1.19921875 51.546875 C-3.89924668 56.81540584 -6.62626582 62.06923095 -9.375 67.3125 C-8.81203217 67.31836624 -8.24906433 67.32423248 -7.66903687 67.33027649 C-1.79612064 67.394337 4.076254 67.47878904 9.94873047 67.57495117 C12.13876188 67.6081531 14.32887789 67.6361997 16.51904297 67.65893555 C19.6719153 67.69256809 22.82401573 67.74488948 25.9765625 67.80078125 C26.95178864 67.80717117 27.92701477 67.8135611 28.93179321 67.82014465 C34.96218715 67.94982026 39.66158886 68.54618034 44.26953125 72.84765625 C47.52955872 77.1107691 49.03250775 79.48412821 48.94787598 84.96218872 C48.31117342 89.59693803 46.03153795 93.56027739 43.921875 97.68359375 C43.42919128 98.67797958 42.93650757 99.67236542 42.42889404 100.69688416 C41.3768196 102.8192032 40.31855905 104.93846512 39.25463867 107.05487061 C37.64038408 110.2817474 36.05809273 113.52225816 34.48632812 116.77001953 C31.84904444 122.2194754 29.1817888 127.65336673 26.49853516 133.08032227 C25.40270695 135.304112 24.31333358 137.53109255 23.22998047 139.76098633 C21.63218735 143.04766437 20.01374539 146.32342683 18.390625 149.59765625 C17.91441711 150.58822525 17.43820923 151.57879425 16.9475708 152.59938049 C13.60074946 159.27412012 9.97047947 164.86400684 2.625 167.3125 C-3.20592925 167.87316627 -6.85831633 166.87889132 -11.375 163.3125 C-15.57283092 158.8993957 -15.84756993 155.17436099 -15.75219727 149.35824585 C-15.08116361 143.93986624 -12.65084588 139.51680972 -10.125 134.73828125 C-9.59229492 133.68843552 -9.05958984 132.63858978 -8.51074219 131.55693054 C-6.81935612 128.23529713 -5.0979087 124.93037337 -3.375 121.625 C-2.21672132 119.36366817 -1.06045001 117.10130695 0.09375 114.83789062 C2.91439211 109.31730887 5.75982269 103.81008775 8.625 98.3125 C8.02444794 98.32138245 7.42389587 98.33026489 6.80514526 98.3394165 C0.54337094 98.42804711 -5.71822461 98.48829949 -11.98046875 98.53222656 C-14.31615438 98.55231709 -16.65178987 98.57959461 -18.98730469 98.61425781 C-22.34843331 98.66288691 -25.70889575 98.68549492 -29.0703125 98.703125 C-30.63158371 98.73409271 -30.63158371 98.73409271 -32.22439575 98.76568604 C-38.27292261 98.76754966 -41.78922017 98.38276276 -46.375 94.3125 C-49.97728222 89.26930489 -50.34792423 84.28807732 -49.375 78.3125 C-47.23491756 72.58540593 -44.4881446 67.2017858 -41.7109375 61.76171875 C-40.91683794 60.17440337 -40.12410529 58.58640348 -39.33267212 56.99775696 C-37.67557431 53.68236077 -36.00493807 50.37427804 -34.32373047 47.07104492 C-32.17537591 42.84818868 -30.05760727 38.61087391 -27.94923973 34.36793804 C-26.31780575 31.09139992 -24.67252603 27.82197425 -23.0228157 24.55460548 C-22.23686121 22.99486096 -21.45467712 21.43321033 -20.67643356 19.86960411 C-19.5848596 17.68278243 -18.47546229 15.50595545 -17.36083984 13.33081055 C-17.04578491 12.6912442 -16.73072998 12.05167786 -16.40612793 11.39273071 C-13.87015117 6.51698564 -10.60885525 2.66863285 -5.4375 0.5 C-3.62482826 0.33521166 -1.81239411 0.16781427 0 0 Z " fill="#FCB64B" transform="translate(176.375,268.6875)"/>
<path d="M0 0 C0.68622537 -0.00256327 1.37245074 -0.00512655 2.07947081 -0.0077675 C4.37204407 -0.01269724 6.6639544 0.00377341 8.95646667 0.02018738 C10.6025033 0.02103383 12.24854106 0.02055816 13.89457703 0.01885986 C18.35911394 0.01799919 22.82340901 0.03563669 27.28788972 0.05658174 C31.95504674 0.07533642 36.62220931 0.07709803 41.28939819 0.08065796 C50.12556899 0.08998197 58.96162842 0.1146006 67.79775017 0.14470643 C77.8581185 0.17823933 87.91849215 0.19473366 97.97890246 0.20979273 C118.67225267 0.24114982 139.3654962 0.29452163 160.0587616 0.36076355 C160.0587616 10.26076355 160.0587616 20.16076355 160.0587616 30.36076355 C138.38832655 30.45335565 116.71793915 30.52474005 95.04734612 30.56801224 C84.98532757 30.58863823 74.92343418 30.61675959 64.86149597 30.66252136 C56.09159516 30.70238793 47.32178499 30.72819609 38.55179608 30.73711753 C33.90803693 30.74233258 29.2645371 30.75459063 24.62086105 30.78368378 C20.24929377 30.81085002 15.87809243 30.81920611 11.50644875 30.81319427 C9.90284168 30.81429397 8.29922227 30.82224081 6.69568825 30.83758545 C4.50342943 30.8575333 2.31254618 30.8526866 0.12025452 30.84178162 C-1.71872249 30.84731237 -1.71872249 30.84731237 -3.59485054 30.85295486 C-8.56001628 30.12267148 -11.73469241 27.9142234 -14.78889465 23.9818573 C-16.87692522 19.23247252 -16.56044797 14.43828204 -15.9412384 9.36076355 C-12.48970562 2.07419434 -7.82723831 -0.01764216 0 0 Z " fill="#00AA5D" transform="translate(15.941238403320313,481.6392364501953)"/>
<path d="M0 0 C21.54005101 -0.092593 43.08005409 -0.16397696 64.62026405 -0.20724869 C74.62174886 -0.22787448 84.62310774 -0.25599545 94.62451172 -0.30175781 C103.34167482 -0.341625 112.05874673 -0.36743269 120.77599847 -0.37635398 C125.39181264 -0.38156892 130.00736591 -0.39382631 134.62309647 -0.42292023 C138.96839951 -0.45008746 143.31333439 -0.45844237 147.65871429 -0.45243073 C149.25264614 -0.45353038 150.8465904 -0.46147664 152.44044876 -0.4768219 C154.61957302 -0.49677132 156.7973136 -0.49192253 158.97647095 -0.48101807 C160.80438643 -0.48654882 160.80438643 -0.48654882 162.66922951 -0.49219131 C167.23590443 0.18263084 170.39797757 2.20093738 173.4609375 5.640625 C175.98781075 10.0896497 176.98216652 13.90876947 176 19 C174.01810512 24.47804651 171.06377285 27.08436914 166 30 C162.66922951 30.49219131 162.66922951 30.49219131 158.97647095 30.48101807 C157.95197659 30.48614462 157.95197659 30.48614462 156.90678537 30.49137473 C154.63094441 30.49793418 152.35629766 30.47601171 150.08056641 30.45410156 C148.4442345 30.45297266 146.80790056 30.45360779 145.17156982 30.45587158 C140.73800399 30.45701798 136.30487213 30.43352081 131.87140703 30.40557575 C127.23496235 30.38054968 122.59850742 30.37821915 117.96200562 30.37347412 C109.18603292 30.36104789 100.41025983 30.32823104 91.63437498 30.28807616 C81.6417093 30.24334749 71.64903403 30.22136865 61.65629315 30.20129442 C41.10408107 30.15949811 20.55206015 30.08834598 0 30 C0 20.1 0 10.2 0 0 Z " fill="#00884A" transform="translate(176,482)"/>
<path d="M0 0 C5.35909124 0.46199062 8.0021563 2.94589477 12 6.3125 C14.61698005 11.14384779 14.24535804 15.93227121 13.625 21.3125 C12.2997699 25.44392725 10.4075483 29.15907606 8.375 32.984375 C7.84229492 34.03280579 7.30958984 35.08123657 6.76074219 36.16143799 C5.07122051 39.47385807 3.34895572 42.76789334 1.625 46.0625 C0.46653397 48.31917627 -0.68973867 50.57697995 -1.84375 52.8359375 C-4.66231175 58.34148272 -7.51034785 63.83080527 -10.375 69.3125 C-7.075 69.3125 -3.775 69.3125 -0.375 69.3125 C-0.375 78.8825 -0.375 88.4525 -0.375 98.3125 C-5.96258173 98.40451873 -11.54751711 98.48409791 -17.13525391 98.53222656 C-19.03443325 98.55229629 -20.93355115 98.57955851 -22.83251953 98.61425781 C-25.56818839 98.66298109 -28.30303771 98.68551507 -31.0390625 98.703125 C-31.88304596 98.72377014 -32.72702942 98.74441528 -33.59658813 98.76568604 C-39.01447801 98.76773117 -42.08604662 97.9344298 -46.375 94.3125 C-49.97728222 89.26930489 -50.34792423 84.28807732 -49.375 78.3125 C-47.23491756 72.58540593 -44.4881446 67.2017858 -41.7109375 61.76171875 C-40.91683794 60.17440337 -40.12410529 58.58640348 -39.33267212 56.99775696 C-37.67557431 53.68236077 -36.00493807 50.37427804 -34.32373047 47.07104492 C-32.17537591 42.84818868 -30.05760727 38.61087391 -27.94923973 34.36793804 C-26.31780575 31.09139992 -24.67252603 27.82197425 -23.0228157 24.55460548 C-22.23686121 22.99486096 -21.45467712 21.43321033 -20.67643356 19.86960411 C-19.5848596 17.68278243 -18.47546229 15.50595545 -17.36083984 13.33081055 C-17.04578491 12.6912442 -16.73072998 12.05167786 -16.40612793 11.39273071 C-13.87015117 6.51698564 -10.60885525 2.66863285 -5.4375 0.5 C-3.62482826 0.33521166 -1.81239411 0.16781427 0 0 Z " fill="#FCDA41" transform="translate(176.375,268.6875)"/>
<path d="M0 0 C4.94021608 2.33537487 7.39879155 5.24519807 10 10 C10.51733952 12.98038079 10.4684711 15.88100883 10.390625 18.8984375 C10.38496521 19.73339752 10.37930542 20.56835754 10.37347412 21.42861938 C10.35120223 24.07801266 10.30102523 26.72602016 10.25 29.375 C10.22992302 31.17836579 10.21167435 32.98175292 10.1953125 34.78515625 C10.15477982 39.19105886 10.07647846 43.59399076 10 48 C-0.23 48 -10.46 48 -21 48 C-21.09224838 43.01858737 -21.17175286 38.04018264 -21.21972656 33.05859375 C-21.2397406 31.36708489 -21.26696073 29.67564433 -21.30175781 27.984375 C-21.35073065 25.54149446 -21.37307033 23.09953489 -21.390625 20.65625 C-21.41127014 19.91008423 -21.43191528 19.16391846 -21.45318604 18.3951416 C-21.4555177 12.83739222 -20.06177397 8.65478415 -17 4 C-12.04154743 -0.83751471 -6.57836722 -0.96077494 0 0 Z " fill="#8DB9C4" transform="translate(422,16)"/>
<path d="M0 0 C5.80067568 4.77702703 5.80067568 4.77702703 7.125 8.75 C7.2103013 11.62694671 7.24085645 14.47900182 7.22265625 17.35546875 C7.2212413 18.19467361 7.21982635 19.03387848 7.21836853 19.89851379 C7.21277215 22.57821216 7.20022035 25.2578269 7.1875 27.9375 C7.18248453 29.75455608 7.17792171 31.57161348 7.17382812 33.38867188 C7.16365491 37.84250604 7.1440788 42.29615943 7.125 46.75 C-3.105 46.75 -13.335 46.75 -23.875 46.75 C-23.94412835 41.89309363 -24.00378152 37.03791579 -24.03979492 32.1809082 C-24.05481806 30.53110956 -24.0752426 28.88135042 -24.10131836 27.23168945 C-24.13798899 24.85097464 -24.15479103 22.47079092 -24.16796875 20.08984375 C-24.18345261 19.36039047 -24.19893646 18.63093719 -24.21488953 17.87937927 C-24.2169784 11.42452654 -22.70042925 6.84924364 -18.375 1.875 C-13.35388491 -2.39294782 -5.94451769 -2.58457291 0 0 Z " fill="#8DB8C4" transform="translate(488.875,17.25)"/>
<path d="M0 0 C0.33 0 0.66 0 1 0 C1 6.27 1 12.54 1 19 C-2.3 19 -5.6 19 -9 19 C-6.03 12.73 -3.06 6.46 0 0 Z " fill="#52DF5D" transform="translate(175,318)"/>
<path d="M0 0 C2.97 0 5.94 0 9 0 C6.36 5.61 3.72 11.22 1 17 C0.67 17 0.34 17 0 17 C0 11.39 0 5.78 0 0 Z " fill="#03B44A" transform="translate(176,368)"/>
</svg>
