<?xml version="1.0" encoding="UTF-8"?>
<svg version="1.1" xmlns="http://www.w3.org/2000/svg" width="368" height="368">
<path d="M0 0 C0.7321875 0.6084375 1.464375 1.216875 2.21875 1.84375 C6.96931001 5.86345462 11.06868663 10.18071031 15 15 C15.76183594 15.92425781 16.52367187 16.84851563 17.30859375 17.80078125 C44.18755234 51.12729087 55.78075292 93.95733307 51.5390625 136.40625 C49.31200769 154.37597467 43.98194167 171.77496606 36 188 C35.69336426 188.63099609 35.38672852 189.26199219 35.07080078 189.91210938 C27.56228051 205.18605108 17.78307904 217.79489091 6 230 C5.11441406 230.98033203 5.11441406 230.98033203 4.2109375 231.98046875 C-19.104334 257.14900542 -58.74735008 272.56907537 -92.56152344 274.16845703 C-140.0848921 275.60219663 -180.95099069 261.54975907 -216 229 C-216.90685547 228.17435547 -216.90685547 228.17435547 -217.83203125 227.33203125 C-244.70278649 201.84571773 -260.21572443 160.88317574 -261.203125 124.35546875 C-261.75740192 80.98154563 -248.08299825 40.78397554 -218 9 C-217.12988281 8.05382812 -216.25976562 7.10765625 -215.36328125 6.1328125 C-207.48612048 -2.23983605 -198.6011354 -8.72601441 -189 -15 C-187.47246094 -16.00353516 -187.47246094 -16.00353516 -185.9140625 -17.02734375 C-127.76932363 -52.9402707 -51.03790147 -43.47673088 0 0 Z " fill="#3BAAF3" transform="translate(287,66)"/>
<path d="M0 0 C1.24652344 -0.00128906 2.49304688 -0.00257813 3.77734375 -0.00390625 C5.09089844 -0.00003906 6.40445313 0.00382813 7.7578125 0.0078125 C9.06363281 0.00394531 10.36945313 0.00007812 11.71484375 -0.00390625 C13.58849609 -0.00197266 13.58849609 -0.00197266 15.5 0 C16.65097168 0.00112793 17.80194336 0.00225586 18.98779297 0.00341797 C21.8828125 0.1328125 21.8828125 0.1328125 24.8828125 1.1328125 C24.8828125 30.8328125 24.8828125 60.5328125 24.8828125 91.1328125 C20.30619034 93.42112358 13.90783958 92.31783955 8.8828125 92.3203125 C7.573125 92.33255859 6.2634375 92.34480469 4.9140625 92.35742188 C3.04234375 92.36032227 3.04234375 92.36032227 1.1328125 92.36328125 C-0.01703125 92.36739014 -1.166875 92.37149902 -2.3515625 92.37573242 C-5.1171875 92.1328125 -5.1171875 92.1328125 -7.1171875 90.1328125 C-7.31061104 87.30657023 -7.37939961 84.57868828 -7.36010742 81.75170898 C-7.36200577 80.88495544 -7.36390411 80.0182019 -7.36585999 79.12518311 C-7.3695741 76.25133305 -7.35885535 73.37773396 -7.34765625 70.50390625 C-7.34646479 68.51375864 -7.34601121 66.52361047 -7.3462677 64.53346252 C-7.34470178 60.35959358 -7.33640326 56.18581029 -7.32299805 52.01196289 C-7.30599705 46.64921737 -7.30218395 41.28656597 -7.30294323 35.92379665 C-7.30267194 31.81385899 -7.29719748 27.70394209 -7.28994179 23.59401131 C-7.28674931 21.61595886 -7.28478637 19.63790405 -7.28404808 17.65984917 C-7.28189125 14.9013654 -7.27316168 12.14298353 -7.26245117 9.38452148 C-7.26290436 8.55904312 -7.26335754 7.73356476 -7.26382446 6.8830719 C-7.22437244 -0.03002155 -6.78755064 0.00666473 0 0 Z " fill="#E8EEF3" transform="translate(175.1171875,161.8671875)"/>
<path d="M0 0 C4.95245053 2.76026287 9.09791056 5.45696837 11.21875 10.85546875 C12.05576229 16.54161836 12.5908562 22.15270972 9.92578125 27.40234375 C5.74780418 32.48857671 0.53614848 36.12832795 -6.0078125 37.23046875 C-11.68017081 37.54235099 -16.17942897 36.18115454 -20.78125 32.85546875 C-25.63255708 28.21508806 -27.90608847 24.48968128 -28.15625 17.66796875 C-28.0717549 11.85316968 -26.84541336 8.06240131 -22.78125 3.85546875 C-16.06826134 -1.66021331 -8.15148674 -3.35447418 0 0 Z " fill="#F5F1F5" transform="translate(192.78125,108.14453125)"/>
<path d="M0 0 C10.3394412 15.5091618 6.24063218 46.71661237 3.0390625 64.12890625 C0.05431149 78.72926381 -4.42258082 92.62996375 -11 106 C-11.30663574 106.63099609 -11.61327148 107.26199219 -11.92919922 107.91210938 C-19.43771949 123.18605108 -29.21692096 135.79489091 -41 148 C-41.59039062 148.65355469 -42.18078125 149.30710937 -42.7890625 149.98046875 C-66.104334 175.14900542 -105.74735008 190.56907537 -139.56152344 192.16845703 C-187.0848921 193.60219663 -227.95099069 179.54975907 -263 147 C-263.60457031 146.44957031 -264.20914063 145.89914062 -264.83203125 145.33203125 C-277.23611404 133.56703469 -286.07068058 118.36100111 -293.5 103.125 C-294.00781006 102.10937988 -294.00781006 102.10937988 -294.52587891 101.07324219 C-296.87055561 96.09247376 -297.68827744 91.48218188 -298 86 C-295.76406 88.23594 -295.59563259 89.13082235 -294.875 92.125 C-287.95216116 116.09662106 -269.80820485 142.12786343 -249 156 C-249 156.66 -249 157.32 -249 158 C-248.34257812 158.22558594 -247.68515625 158.45117188 -247.0078125 158.68359375 C-243.03093435 160.42412354 -239.51861334 162.71638467 -235.875 165.0625 C-234.45759313 165.97296045 -233.03839082 166.88063339 -231.6171875 167.78515625 C-230.99440918 168.18613525 -230.37163086 168.58711426 -229.72998047 169.00024414 C-227.85959821 170.15840295 -227.85959821 170.15840295 -225 171 C-225 171.66 -225 172.32 -225 173 C-223.7625 173.391875 -222.525 173.78375 -221.25 174.1875 C-217.67376667 175.36490605 -214.30058651 176.75541522 -210.875 178.3125 C-170.21503341 195.47079792 -125.51183171 191.52681906 -85.40234375 175.52734375 C-81.77380136 173.89845732 -78.40909129 172.0374207 -75 170 C-73.97519531 169.39800781 -72.95039063 168.79601562 -71.89453125 168.17578125 C-62.07043162 162.23649668 -52.19905672 156.22097 -44.8984375 147.2109375 C-42.95129436 144.94327697 -40.85492774 142.89084035 -38.69750977 140.82470703 C-29.60981538 132.0855083 -22.7684729 122.23698521 -17 111 C-16.2575 109.576875 -16.2575 109.576875 -15.5 108.125 C-14.7575 106.578125 -14.7575 106.578125 -14 105 C-13.65453125 104.32710938 -13.3090625 103.65421875 -12.953125 102.9609375 C2.96463109 70.40189095 4.82522619 35.2288359 0 0 Z " fill="#5D53D8" transform="translate(334,148)"/>
<path d="M0 0 C0.7321875 0.6084375 1.464375 1.216875 2.21875 1.84375 C6.87025928 5.77964247 11.50473947 9.97556299 15 15 C15 15.99 15 16.98 15 18 C14.5467334 17.53102295 14.0934668 17.0620459 13.62646484 16.57885742 C11.55071011 14.44040146 9.46305132 12.31394806 7.375 10.1875 C6.66214844 9.44951172 5.94929687 8.71152344 5.21484375 7.95117188 C1.39527745 4.07904274 -1.87400071 1.07480924 -7 -1 C-8.33333333 -1.66666667 -9.66666667 -2.33333333 -11 -3 C-11 -3.66 -11 -4.32 -11 -5 C-11.57621094 -5.1340625 -12.15242187 -5.268125 -12.74609375 -5.40625 C-14.92301146 -5.97971879 -16.96312575 -6.69099258 -19.0625 -7.5 C-21.3667129 -8.3845347 -23.65677439 -9.2189248 -26 -10 C-26.33 -10.99 -26.66 -11.98 -27 -13 C-28.98 -13.33 -30.96 -13.66 -33 -14 C-33 -14.66 -33 -15.32 -33 -16 C-50.39451203 -24.33718459 -50.39451203 -24.33718459 -69 -28 C-69.495 -28.99 -69.495 -28.99 -70 -30 C-74.58274408 -31.44718234 -79.21028769 -32 -84 -32 C-87.24422406 -32 -89.31858032 -32.24893441 -92.375 -33 C-97.4108812 -34.11120383 -102.30451845 -34.1915746 -107.4375 -34.1875 C-108.23140137 -34.18814453 -109.02530273 -34.18878906 -109.84326172 -34.18945312 C-113.13917489 -34.15836627 -115.85375272 -34.04874909 -119 -33 C-120.95584013 -33 -122.91230917 -33.00117048 -124.8671875 -33.0625 C-127.34202583 -32.98997727 -129.58261662 -32.52938105 -132 -32 C-132.81339844 -31.84660156 -133.62679687 -31.69320312 -134.46484375 -31.53515625 C-139.12149101 -30.64502305 -143.52394751 -29.59148533 -148 -28 C-151.5 -27 -151.5 -27 -155 -26 C-158.30505516 -24.98824842 -161.17553001 -23.90885942 -164.25 -22.3125 C-165.1575 -21.879375 -166.065 -21.44625 -167 -21 C-167.66 -21.33 -168.32 -21.66 -169 -22 C-165.25 -25 -165.25 -25 -163 -25 C-162.67 -25.99 -162.34 -26.98 -162 -28 C-155.8940804 -31.39680325 -148.763899 -33.05485507 -142 -34.625 C-141.09282227 -34.83664795 -140.18564453 -35.0482959 -139.25097656 -35.26635742 C-89.74240581 -46.38202518 -38.45886195 -32.76125278 0 0 Z " fill="#DDFEFE" transform="translate(287,66)"/>
<path d="M0 0 C0.66 0.33 1.32 0.66 2 1 C1.319375 1.6084375 0.63875 2.216875 -0.0625 2.84375 C-6.31394851 8.49665557 -12.43068676 14.27497654 -18.4375 20.1875 C-19.11103516 20.83976562 -19.78457031 21.49203125 -20.47851562 22.1640625 C-24.77238915 26.42790894 -27.97799292 30.77428837 -31 36 C-31.82785596 37.29518405 -32.66057453 38.58728415 -33.5 39.875 C-38.84473124 47.92402283 -38.84473124 47.92402283 -41 57 C-38.02101669 54.17226749 -35.65499017 51.24386426 -33.3125 47.875 C-29.83014779 42.98794662 -26.03547661 38.61535716 -21.8828125 34.2890625 C-19.90091162 32.13183607 -19.90091162 32.13183607 -19.09960938 29.5925293 C-17.91677745 26.80378769 -16.67978071 25.33198967 -14.5234375 23.23046875 C-13.51796875 22.23950195 -13.51796875 22.23950195 -12.4921875 21.22851562 C-11.79351562 20.55498047 -11.09484375 19.88144531 -10.375 19.1875 C-9.66859375 18.49462891 -8.9621875 17.80175781 -8.234375 17.08789062 C-6.49618194 15.38493121 -4.75136939 13.68938808 -3 12 C-2.34 12.33 -1.68 12.66 -1 13 C-1.99 13.99 -2.98 14.98 -4 16 C-3.34 16.33 -2.68 16.66 -2 17 C-3.56693926 20.84612364 -6.05564903 23.12412231 -9 26 C-10.24275038 27.46580814 -11.48456468 28.93270158 -12.69921875 30.421875 C-14.01701016 32.02063695 -15.38039595 33.57051827 -16.75 35.125 C-19.47356023 38.28264952 -21.95542439 41.58733003 -24.4375 44.9375 C-27.62150294 49.22758154 -30.90163557 53.32643917 -34.4921875 57.28125 C-37.16572043 60.32880049 -39.27557722 63.33560159 -41 67 C-43.40943542 72.03791043 -45.82592266 77.04513537 -50.02905273 80.82446289 C-52.39350382 83.43435062 -52.86994541 85.25866415 -53.59765625 88.68359375 C-53.84193359 89.77607422 -54.08621094 90.86855469 -54.33789062 91.99414062 C-54.57701172 93.13044922 -54.81613281 94.26675781 -55.0625 95.4375 C-55.54537574 97.68793148 -56.0359976 99.93671782 -56.53515625 102.18359375 C-56.745354 103.17931396 -56.95555176 104.17503418 -57.17211914 105.20092773 C-58.05355381 108.18106589 -59.24148007 110.44584101 -61 113 C-61.33 113 -61.66 113 -62 113 C-63.19459861 81.11914958 -45.71536454 45.92958588 -24.5625 22.8125 C-22.72844862 20.85511832 -20.8682169 18.92473111 -19 17 C-18.52884766 16.50838379 -18.05769531 16.01676758 -17.57226562 15.51025391 C-12.09588899 9.80787401 -6.56166842 4.45591809 0 0 Z M-22 31 C-21.01 31.495 -21.01 31.495 -20 32 C-20.99 32.495 -20.99 32.495 -22 33 C-22 32.34 -22 31.68 -22 31 Z " fill="#9CF9FF" transform="translate(89,57)"/>
<path d="M0 0 C2.23594 2.23594 2.40436741 3.13082235 3.125 6.125 C10.04783884 30.09662106 28.19179515 56.12786343 49 70 C49 70.66 49 71.32 49 72 C49.65742187 72.22558594 50.31484375 72.45117188 50.9921875 72.68359375 C54.96906565 74.42412354 58.48138666 76.71638467 62.125 79.0625 C63.54240687 79.97296045 64.96160918 80.88063339 66.3828125 81.78515625 C67.00559082 82.18613525 67.62836914 82.58711426 68.27001953 83.00024414 C70.14040179 84.15840295 70.14040179 84.15840295 73 85 C73 85.66 73 86.32 73 87 C74.2375 87.391875 75.475 87.78375 76.75 88.1875 C80.32623333 89.36490605 83.69941349 90.75541522 87.125 92.3125 C99.59590839 97.60221693 113.55317524 100.93060835 126.98828125 102.578125 C129 103 129 103 131 105 C125.17764204 105.16465944 119.93765462 104.66251479 114.25 103.4375 C113.43362061 103.26186523 112.61724121 103.08623047 111.77612305 102.90527344 C84.06737039 96.6192348 58.8024152 83.28461422 38 64 C36.64261719 62.74896484 36.64261719 62.74896484 35.2578125 61.47265625 C22.04222694 48.77169629 12.48793819 33.50661293 4.5 17.125 C4.16145996 16.44791992 3.82291992 15.77083984 3.47412109 15.07324219 C1.12944439 10.09247376 0.31172256 5.48218188 0 0 Z " fill="#4F5FC5" transform="translate(36,234)"/>
<path d="M0 0 C0.598125 0.309375 1.19625 0.61875 1.8125 0.9375 C4.08956772 2.10209704 4.08956772 2.10209704 7 3 C7 3.66 7 4.32 7 5 C7.58160889 5.12125244 8.16321777 5.24250488 8.76245117 5.36743164 C15.9099742 7.3880789 21.2084465 12.82811042 26.1875 18.0625 C27.36608284 19.28487718 28.54702423 20.5049853 29.73046875 21.72265625 C30.28887451 22.29749756 30.84728027 22.87233887 31.42260742 23.46459961 C33.10328778 25.16129626 33.10328778 25.16129626 35.625 27.0078125 C38.65354832 29.54820665 40.6853776 32.52485899 42.8125 35.8125 C43.24409424 36.47411133 43.67568848 37.13572266 44.12036133 37.81738281 C54.47721354 53.93185859 62.05741505 71.18823752 66 90 C64 89 64 89 63.24145508 87.11743164 C62.88410278 85.90108032 62.88410278 85.90108032 62.51953125 84.66015625 C62.2460083 83.76643311 61.97248535 82.87270996 61.69067383 81.9519043 C61.40087646 80.99840088 61.1110791 80.04489746 60.8125 79.0625 C58.54823928 71.91280186 56.27389709 65.90402052 51.55078125 59.9765625 C49.62620403 57.52357491 48.42051479 54.96439357 47.109375 52.15234375 C45.15813371 48.36666083 42.74176605 44.86678157 40.390625 41.3203125 C39 39 39 39 39 37 C38.34 37 37.68 37 37 37 C36.5875 36.0925 36.175 35.185 35.75 34.25 C34.0540838 31.10044134 32.5707279 29.42382916 30 27 C28.90204923 25.80493319 27.81955255 24.5955482 26.75 23.375 C26.22921875 22.78460938 25.7084375 22.19421875 25.171875 21.5859375 C24 20 24 20 24 18 C23.01 17.67 22.02 17.34 21 17 C21 16.34 21 15.68 21 15 C20.21625 14.855625 19.4325 14.71125 18.625 14.5625 C16 14 16 14 14 13 C14 12.34 14 11.68 14 11 C13.01 11 12.02 11 11 11 C11 10.34 11 9.68 11 9 C10.34 9 9.68 9 9 9 C9 8.34 9 7.68 9 7 C8.01 7 7.02 7 6 7 C6 6.34 6 5.68 6 5 C5.38125 4.731875 4.7625 4.46375 4.125 4.1875 C2 3 2 3 0 0 Z " fill="#73DAFE" transform="translate(269,58)"/>
<path d="M0 0 C6.28260706 -0.23268915 11.88019467 0.59545452 18 2 C18 2.66 18 3.32 18 4 C19.01191406 4.10570312 20.02382812 4.21140625 21.06640625 4.3203125 C25.09484569 5.01638843 28.22189205 6.19482633 31.9375 7.875 C35.62559032 9.52888254 39.26919457 11.14631567 43.125 12.375 C53.23945354 16.08435183 61.914084 24.11199748 70 31 C70.7321875 31.6084375 71.464375 32.216875 72.21875 32.84375 C76.87025928 36.77964247 81.50473947 40.97556299 85 46 C85 46.99 85 47.98 85 49 C84.5467334 48.53102295 84.0934668 48.0620459 83.62646484 47.57885742 C81.55071011 45.44040146 79.46305132 43.31394806 77.375 41.1875 C76.66214844 40.44951172 75.94929688 39.71152344 75.21484375 38.95117188 C71.39527745 35.07904274 68.12599929 32.07480924 63 30 C61.66666667 29.33333333 60.33333333 28.66666667 59 28 C59 27.34 59 26.68 59 26 C58.42378906 25.8659375 57.84757812 25.731875 57.25390625 25.59375 C55.07698854 25.02028121 53.03687425 24.30900742 50.9375 23.5 C48.6332871 22.6154653 46.34322561 21.7810752 44 21 C43.505 19.515 43.505 19.515 43 18 C41.02 17.67 39.04 17.34 37 17 C37 16.34 37 15.68 37 15 C19.60548797 6.66281541 19.60548797 6.66281541 1 3 C0.67 2.01 0.34 1.02 0 0 Z " fill="#94F8FE" transform="translate(217,35)"/>
<path d="M0 0 C0.66 0.33 1.32 0.66 2 1 C1.33333333 2.33333333 0.66666667 3.66666667 0 5 C-0.45375 5.94875 -0.9075 6.8975 -1.375 7.875 C-3.48669306 11.9359482 -5.60101468 15.74207469 -9.02905273 18.82446289 C-11.39350382 21.43435062 -11.86994541 23.25866415 -12.59765625 26.68359375 C-12.84193359 27.77607422 -13.08621094 28.86855469 -13.33789062 29.99414062 C-13.57701172 31.13044922 -13.81613281 32.26675781 -14.0625 33.4375 C-14.54537574 35.68793148 -15.0359976 37.93671782 -15.53515625 40.18359375 C-15.85045288 41.67717407 -15.85045288 41.67717407 -16.17211914 43.20092773 C-17.05355381 46.18106589 -18.24148007 48.44584101 -20 51 C-20.33 51 -20.66 51 -21 51 C-21.2065049 44.81909469 -20.49012334 39.28469868 -19.1875 33.25 C-19.02185547 32.41339844 -18.85621094 31.57679688 -18.68554688 30.71484375 C-17.77788464 26.41971755 -16.97450671 23.35647888 -14 20 C-13.30899447 18.00827818 -12.64097297 16.00838196 -12 14 C-11.34 13.01 -10.68 12.02 -10 11 C-9.34 11 -8.68 11 -8 11 C-7.79375 10.29875 -7.5875 9.5975 -7.375 8.875 C-5.54218423 5.04274884 -3.09748481 2.89547493 0 0 Z " fill="#92EFFE" transform="translate(48,119)"/>
<path d="M0 0 C0.66 0 1.32 0 2 0 C3.24619995 6.76004688 3.14404772 13.46712854 3.1328125 20.32421875 C3.13376923 21.62083939 3.13472595 22.91746002 3.13571167 24.25337219 C3.13718225 26.99941196 3.13505923 29.74541912 3.13037109 32.49145508 C3.12474668 35.94825843 3.12799647 39.40498351 3.13382339 42.86178398 C3.15523386 57.93679867 2.98504249 72.95398081 2 88 C1.01 88.495 1.01 88.495 0 89 C0 59.63 0 30.26 0 0 Z " fill="#2173D6" transform="translate(200,164)"/>
<path d="M0 0 C10.34055193 15.51082789 6.22587915 46.67923656 3.0546875 64.09765625 C0.69602887 75.66261616 -2.74189134 86.99988597 -7 98 C-7.33 98 -7.66 98 -8 98 C-8.27888602 92.79412762 -7.9276858 89.24699793 -5.921875 84.35546875 C4.66677489 57.30057093 3.86692496 28.23230647 0 0 Z " fill="#5384E2" transform="translate(334,148)"/>
<path d="M0 0 C0.33 0 0.66 0 1 0 C1 29.7 1 59.4 1 90 C-1.97 90.495 -1.97 90.495 -5 91 C-3.515 90.505 -3.515 90.505 -2 90 C-1.22809514 83.85539228 -0.84418013 77.87715702 -0.875 71.6875 C-0.87113281 70.92244141 -0.86726562 70.15738281 -0.86328125 69.36914062 C-0.87058098 64.96375159 -1.09464448 60.63321524 -1.5 56.24609375 C-2.09172045 49.61596664 -2.14775787 43.0278848 -2.125 36.375 C-2.12886719 35.20582031 -2.13273438 34.03664062 -2.13671875 32.83203125 C-2.13542969 31.71957031 -2.13414062 30.60710937 -2.1328125 29.4609375 C-2.13168457 28.45853027 -2.13055664 27.45612305 -2.12939453 26.42333984 C-2 24 -2 24 -1 22 C-1.165 20.906875 -1.33 19.81375 -1.5 18.6875 C-1.96233085 15.27780998 -1.72869327 13.27911972 -1 10 C-1.33 9.01 -1.66 8.02 -2 7 C-1.40206327 4.64811553 -0.74118205 2.31074405 0 0 Z " fill="#C6D1E5" transform="translate(199,163)"/>
<path d="M0 0 C0.66 0.33 1.32 0.66 2 1 C1.319375 1.6084375 0.63875 2.216875 -0.0625 2.84375 C-6.31394851 8.49665557 -12.43068676 14.27497654 -18.4375 20.1875 C-19.11103516 20.83976562 -19.78457031 21.49203125 -20.47851562 22.1640625 C-24.76780363 26.42335548 -28.00698808 30.75842355 -31 36 C-32.65946158 38.6713284 -34.32440412 41.33875948 -36 44 C-36.37382813 44.60585937 -36.74765625 45.21171875 -37.1328125 45.8359375 C-38.03497839 47.25935479 -39.01082117 48.63561541 -40 50 C-40.66 50 -41.32 50 -42 50 C-42.103125 50.721875 -42.20625 51.44375 -42.3125 52.1875 C-43.07124657 55.29146324 -44.322665 57.29045885 -46 60 C-46.53694177 61.24316568 -47.05736544 62.49357394 -47.5625 63.75 C-49 67 -49 67 -51 68 C-50.36924584 63.43579283 -48.56354166 59.6272006 -46.5 55.5625 C-46.14542725 54.86165283 -45.79085449 54.16080566 -45.42553711 53.4387207 C-37.68261025 38.42844347 -27.794342 25.67148212 -15.9375 13.6875 C-15.2767749 13.01734863 -14.6160498 12.34719727 -13.93530273 11.65673828 C-9.57672243 7.32677956 -5.0123023 3.55145536 0 0 Z " fill="#E0FEFE" transform="translate(89,57)"/>
<path d="M0 0 C0.66 0 1.32 0 2 0 C2.5 2.5625 2.5 2.5625 2 6 C-0.35633087 8.7340633 -3.12351026 10.83631351 -6 13 C-6.62003906 13.48984375 -7.24007812 13.9796875 -7.87890625 14.484375 C-12.84458562 18.26140181 -17.20227633 20.28442129 -23.5625 19.9375 C-27.01113069 19.44317688 -28.08325266 18.93756051 -31 16.75 C-32.99496782 14.00691925 -33.71346097 12.3429554 -34 9 C-29 11 -29 11 -26.75 12.125 C-21.29226801 13.86155109 -16.07382648 13.7859465 -10.8125 11.4375 C-6.1022282 8.80916834 -2.41212199 4.82424399 0 0 Z " fill="#1D73C5" transform="translate(204,131)"/>
<path d="M0 0 C26.78734818 -0.75703375 55.471082 -1.10237364 80 11 C81.08796875 11.515625 82.1759375 12.03125 83.296875 12.5625 C85.56079559 13.66319067 87.79033407 14.7952324 90 16 C88 17 88 17 86.27587891 16.48681641 C85.59960449 16.19468262 84.92333008 15.90254883 84.2265625 15.6015625 C83.4840625 15.28703125 82.7415625 14.9725 81.9765625 14.6484375 C80.81253906 14.14183594 80.81253906 14.14183594 79.625 13.625 C78.09742323 12.96885964 76.56880798 12.31513064 75.0390625 11.6640625 C74.36053223 11.36967285 73.68200195 11.0752832 72.98291016 10.77197266 C71.00760021 10.00295886 69.0653391 9.46800503 67 9 C67 8.34 67 7.68 67 7 C65.081875 7.0309375 65.081875 7.0309375 63.125 7.0625 C59.25 7.125 59.25 7.125 57 6 C54.51703674 5.79284663 52.04957232 5.62634234 49.5625 5.5 C42.40265363 5.13421788 42.40265363 5.13421788 39 4 C37.824375 4.020625 36.64875 4.04125 35.4375 4.0625 C32.30955744 4.11322339 29.65761984 3.74898901 26.625 3 C18.88899646 1.2808881 10.87548557 1.85724195 3 2 C2.01 2 1.02 2 0 2 C0 1.34 0 0.68 0 0 Z " fill="#BFFDFE" transform="translate(168,30)"/>
<path d="M0 0 C0.66 0.33 1.32 0.66 2 1 C1.01 1.99 0.02 2.98 -1 4 C-0.34 4.33 0.32 4.66 1 5 C-0.5745731 8.86486124 -3.0047236 11.13495301 -6 14 C-6.66 14.69222656 -7.32 15.38445312 -8 16.09765625 C-8.70125 16.82855469 -9.4025 17.55945313 -10.125 18.3125 C-10.78757812 19.00988281 -11.45015625 19.70726563 -12.1328125 20.42578125 C-14 22 -14 22 -17 22 C-17.3403125 22.804375 -17.3403125 22.804375 -17.6875 23.625 C-20.16430344 28.1068348 -23.07451056 32.17574465 -28 34 C-26.01843758 29.33686669 -22.54360419 26.15862323 -19.09375 22.53515625 C-16.91852905 20.18000591 -16.91852905 20.18000591 -16.08642578 17.57714844 C-14.91260179 14.79267967 -13.67477739 13.32711356 -11.5234375 11.23046875 C-10.853125 10.56982422 -10.1828125 9.90917969 -9.4921875 9.22851562 C-8.79351562 8.55498047 -8.09484375 7.88144531 -7.375 7.1875 C-6.66859375 6.49462891 -5.9621875 5.80175781 -5.234375 5.08789062 C-3.49618194 3.38493121 -1.75136939 1.68938808 0 0 Z M-19 19 C-18.01 19.495 -18.01 19.495 -17 20 C-17.99 20.495 -17.99 20.495 -19 21 C-19 20.34 -19 19.68 -19 19 Z " fill="#B1FEFF" transform="translate(86,69)"/>
<path d="M0 0 C4.88434916 2.8220684 6.66118577 4.94816127 9 10 C10.09950006 11.64236099 11.22739474 13.26588466 12.375 14.875 C21 26.99761146 21 26.99761146 21 30 C21.99 30 22.98 30 24 30 C27.66646761 38.53748078 31.19227999 47.07381308 34 55.9375 C34.32907349 56.95650391 34.32907349 56.95650391 34.66479492 57.99609375 C36.12451056 62.75097889 36.12451056 62.75097889 35 65 C30.11653868 53.76610873 30.11653868 53.76610873 28.625 47.875 C27.24690054 42.96109107 24.71735741 39.42525745 21.69140625 35.36328125 C19.8078619 32.73153914 18.47167557 30.07411997 17.109375 27.15234375 C15.15813371 23.36666083 12.74176605 19.86678157 10.390625 16.3203125 C9 14 9 14 9 12 C8.34 12 7.68 12 7 12 C6.38125 10.63875 6.38125 10.63875 5.75 9.25 C4.10256403 6.19047606 2.46618157 4.38114082 0 2 C0 1.34 0 0.68 0 0 Z " fill="#5EBFF1" transform="translate(299,83)"/>
<path d="M0 0 C3.5570905 0.56590076 6.16524796 1.46736128 9.25 3.3125 C12.28190889 5.05936141 15.29740665 6.65156727 18.5 8.0625 C19.24636719 8.3925 19.99273437 8.7225 20.76171875 9.0625 C22.2056614 9.66729273 23.6668089 10.23320093 25.14453125 10.75 C34.8337364 14.38126968 41.8501994 22.81450987 49 30 C49.59425781 30.59425781 50.18851562 31.18851563 50.80078125 31.80078125 C52.20052083 33.20052083 53.60026042 34.60026042 55 36 C54.505 36.99 54.505 36.99 54 38 C53.5467334 37.53102295 53.0934668 37.0620459 52.62646484 36.57885742 C50.55071011 34.44040146 48.46305132 32.31394806 46.375 30.1875 C45.30572266 29.08051758 45.30572266 29.08051758 44.21484375 27.95117188 C40.39527745 24.07904274 37.12599929 21.07480924 32 19 C30.66666667 18.33333333 29.33333333 17.66666667 28 17 C28 16.34 28 15.68 28 15 C27.42378906 14.8659375 26.84757812 14.731875 26.25390625 14.59375 C24.07698854 14.02028121 22.03687425 13.30900742 19.9375 12.5 C17.6332871 11.6154653 15.34322561 10.7810752 13 10 C12.67 9.01 12.34 8.02 12 7 C9.03 6.505 9.03 6.505 6 6 C6 5.34 6 4.68 6 4 C4.02 3.01 2.04 2.02 0 1 C0 0.67 0 0.34 0 0 Z " fill="#84EBFE" transform="translate(248,46)"/>
<path d="M0 0 C2.23594 2.23594 2.40436741 3.13082235 3.125 6.125 C9.56597211 28.42806761 25.1623092 50.41187547 43 65 C42.505 66.485 42.505 66.485 42 68 C26.18049426 52.79595054 14.1247964 36.86347135 4.5 17.125 C4.16145996 16.44791992 3.82291992 15.77083984 3.47412109 15.07324219 C1.12944439 10.09247376 0.31172256 5.48218188 0 0 Z " fill="#5880C9" transform="translate(36,234)"/>
<path d="M0 0 C0.33 0 0.66 0 1 0 C1.81965024 6.29781893 -1.02858843 10.71200076 -3.9375 16.0625 C-4.67770386 17.45118286 -4.67770386 17.45118286 -5.43286133 18.86791992 C-9.46122168 26.29777678 -13.92372635 33.24416915 -19 40 C-19.6953125 38.29296875 -19.6953125 38.29296875 -20 36 C-18.7421875 33.73828125 -18.7421875 33.73828125 -16.875 31.3125 C-13.47816802 26.71798026 -10.63887224 22.06112065 -8 17 C-7.505 16.05125 -7.01 15.1025 -6.5 14.125 C-4.25672462 9.45150963 -2.12795243 4.72691409 0 0 Z " fill="#5661DC" transform="translate(325,242)"/>
<path d="M0 0 C9.24 0 18.48 0 28 0 C28.33 0.66 28.66 1.32 29 2 C28.25314941 2.0501123 27.50629883 2.10022461 26.73681641 2.15185547 C23.36547942 2.3834019 19.99531318 2.62901854 16.625 2.875 C14.8615625 2.99294922 14.8615625 2.99294922 13.0625 3.11328125 C11.38027344 3.23896484 11.38027344 3.23896484 9.6640625 3.3671875 C8.62717285 3.44050293 7.5902832 3.51381836 6.52197266 3.58935547 C3.83585452 3.77462799 3.83585452 3.77462799 2 6 C1.59952556 8.32275177 1.2602896 10.65739357 1 13 C0.67 13 0.34 13 0 13 C0 8.71 0 4.42 0 0 Z " fill="#D6F3FB" transform="translate(169,162)"/>
<path d="M0 0 C0 5.35686086 -2.89627687 10.14154487 -5 15 C-5.35707031 15.87398437 -5.71414062 16.74796875 -6.08203125 17.6484375 C-7.89524642 21.99726432 -9.5852106 24.69903691 -13 28 C-13.70164642 29.98799818 -14.37372872 31.98698517 -15 34 C-15.99 34.495 -15.99 34.495 -17 35 C-16.54548816 33.26982492 -16.08621143 31.54090123 -15.625 29.8125 C-15.36976562 28.84957031 -15.11453125 27.88664062 -14.8515625 26.89453125 C-12.73957763 19.71572028 -12.73957763 19.71572028 -10.0625 17.125 C-7.38080057 14.36203695 -6.39385855 11.5755502 -5 8 C-2.28395062 1.14197531 -2.28395062 1.14197531 0 0 Z " fill="#BAF7FE" transform="translate(49,106)"/>
<path d="M0 0 C12.21 0 24.42 0 37 0 C36.67 0.66 36.34 1.32 36 2 C31.93792211 3.19251505 27.93831485 3.11497249 23.73046875 3.09765625 C23.04946609 3.0962413 22.36846344 3.09482635 21.66682434 3.09336853 C19.50700353 3.08780298 17.34728911 3.07525703 15.1875 3.0625 C13.71679838 3.05748054 12.24609512 3.05291841 10.77539062 3.04882812 C7.1835596 3.03784488 3.5917902 3.02060422 0 3 C0 2.01 0 1.02 0 0 Z " fill="#574FD5" transform="translate(167,337)"/>
<path d="M0 0 C8.14108722 7.37786029 14.38351821 17.08505615 19 27 C19 27.66 19 28.32 19 29 C18.34 29 17.68 29 17 29 C15.81079102 27.39526367 15.81079102 27.39526367 14.50390625 25.16796875 C14.02759766 24.36939453 13.55128906 23.57082031 13.06054688 22.74804688 C12.56619141 21.90306641 12.07183594 21.05808594 11.5625 20.1875 C10.58862211 18.53280339 9.61089323 16.8803659 8.62890625 15.23046875 C8.19650635 14.49207764 7.76410645 13.75368652 7.31860352 12.99291992 C6.036783 11.05559335 4.64333912 9.62719247 3 8 C0 2.55555556 0 2.55555556 0 0 Z " fill="#A5DDFC" transform="translate(303,84)"/>
<path d="M0 0 C1.73322062 3.46644124 0.07913185 7.15337991 -0.75 10.8125 C-0.92015625 11.62009766 -1.0903125 12.42769531 -1.265625 13.25976562 C-2.24537415 17.65783073 -3.27410455 21.30805919 -6 25 C-6.33 25 -6.66 25 -7 25 C-7.19392201 19.47322267 -6.7479503 15.24385089 -5 10 C-4.34 10 -3.68 10 -3 10 C-2.814375 8.63875 -2.814375 8.63875 -2.625 7.25 C-2.07890323 4.41029677 -1.42736197 2.47409409 0 0 Z " fill="#65DAF9" transform="translate(34,145)"/>
<path d="M0 0 C0 4.04612408 -1.52904783 5.36422266 -4.16796875 8.28125 C-9.19264475 12.99523175 -14.22139657 14.45625847 -21.01953125 14.3359375 C-23 14 -23 14 -26 12 C-24.741875 12.12375 -23.48375 12.2475 -22.1875 12.375 C-15.9797032 12.38483803 -10.88657208 9.69296677 -6 6 C-4.97888548 4.34618534 -3.97570699 2.68100376 -3 1 C-2.01 0.67 -1.02 0.34 0 0 Z " fill="#BCC5DC" transform="translate(203,131)"/>
<path d="M0 0 C7.087223 0.5928439 14.01574289 1.60504244 21 2.9375 C21.93972656 3.10701172 22.87945312 3.27652344 23.84765625 3.45117188 C24.74355469 3.62068359 25.63945312 3.79019531 26.5625 3.96484375 C27.77099609 4.19095337 27.77099609 4.19095337 29.00390625 4.42163086 C31 5 31 5 33 7 C26.8364984 7.21253454 21.38076587 6.4691476 15.375 5.125 C14.55515625 4.95097656 13.7353125 4.77695312 12.890625 4.59765625 C8.48901303 3.64232246 4.24688206 2.52557899 0 1 C0 0.67 0 0.34 0 0 Z " fill="#5D5DCF" transform="translate(134,332)"/>
<path d="M0 0 C7.66452415 4.29760819 13.90341621 10.73864367 20 17 C21.2694935 18.27217176 22.54040027 19.54293433 23.8125 20.8125 C24.875 21.875 25.9375 22.9375 27 24 C26.67 24.66 26.34 25.32 26 26 C25.56768066 25.55720703 25.13536133 25.11441406 24.68994141 24.65820312 C13.72903059 13.38084769 13.72903059 13.38084769 1.625 3.3828125 C1.08875 2.92648438 0.5525 2.47015625 0 2 C0 1.34 0 0.68 0 0 Z " fill="#B7EAFE" transform="translate(276,58)"/>
<path d="M0 0 C2.23594 2.23594 2.40436741 3.13082235 3.125 6.125 C5.30434991 13.88394209 9.2854146 20.88846595 13 28 C12.01 28 11.02 28 10 28 C8.49803331 25.03181695 7.02789667 22.04888502 5.5625 19.0625 C5.14162109 18.23169922 4.72074219 17.40089844 4.28710938 16.54492188 C1.54586628 10.90892608 0.34767409 6.26445496 0 0 Z " fill="#438ED1" transform="translate(36,234)"/>
<path d="M0 0 C0.66 0.33 1.32 0.66 2 1 C-2.6548197 7.61474378 -8.96100745 12.69779086 -15 18 C-15 15 -15 15 -13.62304688 13.2824707 C-12.99462891 12.66976318 -12.36621094 12.05705566 -11.71875 11.42578125 C-11.04199219 10.75869141 -10.36523438 10.09160156 -9.66796875 9.40429688 C-8.95253906 8.71400391 -8.23710938 8.02371094 -7.5 7.3125 C-6.42685547 6.2596582 -6.42685547 6.2596582 -5.33203125 5.18554688 C-3.56120423 3.45013639 -1.78376544 1.7220927 0 0 Z M-19 19 C-18.01 19.495 -18.01 19.495 -17 20 C-17.99 20.495 -17.99 20.495 -19 21 C-19 20.34 -19 19.68 -19 19 Z " fill="#C5FEFF" transform="translate(86,69)"/>
<path d="M0 0 C0.33 0 0.66 0 1 0 C1 8.91 1 17.82 1 27 C-0.98 27.33 -2.96 27.66 -5 28 C-4.01 27.67 -3.02 27.34 -2 27 C-1.13449207 20.61687904 -0.93804135 14.45636036 -1.0625 8.015625 C-1.00423706 5.20443793 -0.64689672 2.72909552 0 0 Z " fill="#C6D2EA" transform="translate(199,226)"/>
<path d="M0 0 C0.66 0 1.32 0 2 0 C1.36589356 3.98718441 -0.63826057 6.75654996 -2.875 10.0625 C-3.57367188 11.10535156 -4.27234375 12.14820313 -4.9921875 13.22265625 C-6.56093762 15.39265884 -8.02970187 17.20938314 -10 19 C-9.73457104 13.69142085 -7.6964808 10.89621171 -4.4921875 6.90234375 C-2.84578409 4.89261378 -2.84578409 4.89261378 -1.25 2 C-0.8375 1.34 -0.425 0.68 0 0 Z " fill="#6364DA" transform="translate(315,263)"/>
<path d="M0 0 C0.598125 0.309375 1.19625 0.61875 1.8125 0.9375 C4.08956772 2.10209704 4.08956772 2.10209704 7 3 C7 3.66 7 4.32 7 5 C7.598125 5.12375 8.19625 5.2475 8.8125 5.375 C11 6 11 6 14 8 C14 8.66 14 9.32 14 10 C15.32 10.66 16.64 11.32 18 12 C16.68 12.33 15.36 12.66 14 13 C14 12.34 14 11.68 14 11 C13.01 11 12.02 11 11 11 C11 10.34 11 9.68 11 9 C10.34 9 9.68 9 9 9 C9 8.34 9 7.68 9 7 C8.01 7 7.02 7 6 7 C6 6.34 6 5.68 6 5 C5.38125 4.731875 4.7625 4.46375 4.125 4.1875 C2 3 2 3 0 0 Z " fill="#68E1FF" transform="translate(269,58)"/>
<path d="M0 0 C2.4375 0.75 2.4375 0.75 5 2 C5.33333333 3.33333333 5.66666667 4.66666667 6 6 C8.49034386 7.29660434 8.49034386 7.29660434 11 8 C11 8.66 11 9.32 11 10 C6.82811893 9.75931455 4.6494442 9.61613937 1.5625 6.6875 C0 4 0 4 0 0 Z " fill="#1F91D6" transform="translate(170,140)"/>
<path d="M0 0 C4.86143082 2.8088267 6.70940159 4.94159517 9 10 C10.93038024 13.04770627 12.95798321 16.02618915 15 19 C11.15625 17.328125 11.15625 17.328125 9.75 14.375 C9.5025 13.59125 9.255 12.8075 9 12 C8.34 12 7.68 12 7 12 C6.38125 10.63875 6.38125 10.63875 5.75 9.25 C4.10256403 6.19047606 2.46618157 4.38114082 0 2 C0 1.34 0 0.68 0 0 Z " fill="#5ECCF9" transform="translate(299,83)"/>
<path d="M0 0 C4.74130209 1.35262372 8.32288579 3.33354354 12.375 6.125 C13.43460937 6.84945312 14.49421875 7.57390625 15.5859375 8.3203125 C16.38257813 8.87460937 17.17921875 9.42890625 18 10 C17.01 10.33 16.02 10.66 15 11 C12.69912911 9.78654707 10.6008128 8.54816947 8.4375 7.125 C7.26981036 6.37716817 6.10185301 5.62975415 4.93359375 4.8828125 C3.96550781 4.26148438 2.99742187 3.64015625 2 3 C1.34 2.67 0.68 2.34 0 2 C0 1.34 0 0.68 0 0 Z " fill="#C1F4FE" transform="translate(258,47)"/>
<path d="M0 0 C1.3274855 3.98245651 -0.00092171 6.44789543 -1.4375 10.1875 C-1.80198242 11.16879883 -1.80198242 11.16879883 -2.17382812 12.16992188 C-2.7743293 13.78303286 -3.38609203 15.3919435 -4 17 C-4.33 17 -4.66 17 -5 17 C-5.16682272 12.07872966 -5.24828052 8.49656104 -3 4 C-2.34 4 -1.68 4 -1 4 C-0.67 2.68 -0.34 1.36 0 0 Z " fill="#6878DF" transform="translate(331,229)"/>
<path d="M0 0 C5.75 1.875 5.75 1.875 8 3 C8 3.66 8 4.32 8 5 C8.928125 5.268125 9.85625 5.53625 10.8125 5.8125 C13.76240366 6.91148371 15.05615186 7.62418561 17 10 C13.32617676 9.42231401 10.58823394 8.42308392 7.375 6.5625 C6.61960937 6.13066406 5.86421875 5.69882812 5.0859375 5.25390625 C3.36101146 4.21701251 1.67457609 3.11638406 0 2 C0 1.34 0 0.68 0 0 Z " fill="#9CF2FE" transform="translate(250,44)"/>
<path d="M0 0 C0 4.09632497 -1.55398196 5.76067881 -4 9 C-6.75 11.375 -6.75 11.375 -9 13 C-9 12.01 -9 11.02 -9 10 C-8.34 10 -7.68 10 -7 10 C-6.89816406 9.40703125 -6.79632813 8.8140625 -6.69140625 8.203125 C-5.88644348 5.63815889 -4.88433098 4.57256517 -2.9375 2.75 C-2.38964844 2.22921875 -1.84179688 1.7084375 -1.27734375 1.171875 C-0.85582031 0.78515625 -0.43429688 0.3984375 0 0 Z " fill="#7BEDFE" transform="translate(45,127)"/>
<path d="M0 0 C9.57 0 19.14 0 29 0 C29 0.33 29 0.66 29 1 C19.43 1 9.86 1 0 1 C0 0.67 0 0.34 0 0 Z " fill="#463DD0" transform="translate(168,341)"/>
<path d="M0 0 C0.99 0 1.98 0 3 0 C3 0.66 3 1.32 3 2 C3.62648438 2.18175781 4.25296875 2.36351562 4.8984375 2.55078125 C6.12433594 2.92783203 6.12433594 2.92783203 7.375 3.3125 C8.18710938 3.55613281 8.99921875 3.79976563 9.8359375 4.05078125 C12 5 12 5 14 8 C3.90882638 4.90009699 3.90882638 4.90009699 0 2 C0 1.34 0 0.68 0 0 Z " fill="#606AC8" transform="translate(106,319)"/>
<path d="M0 0 C3.42931954 3.7559214 4.56429083 8.23466745 6 13 C4.078125 12.2109375 4.078125 12.2109375 2 11 C0.55760783 7.10554113 0 4.16477964 0 0 Z " fill="#85CEF4" transform="translate(322,113)"/>
<path d="M0 0 C2.28814723 2.28814723 2.75451161 3.80751622 3.6875 6.875 C3.95949219 7.73867187 4.23148438 8.60234375 4.51171875 9.4921875 C5.01692938 12.08694932 4.85561171 13.530785 4 16 C-0.59225513 5.62642369 -0.59225513 5.62642369 0 0 Z " fill="#439DD7" transform="translate(36,234)"/>
<path d="M0 0 C1.32827107 2.65654214 0.72245548 3.59432385 -0.1875 6.375 C-1.48474156 10.10456948 -2.84321958 12.49634656 -6 15 C-5.67 13.35 -5.34 11.7 -5 10 C-4.34 10 -3.68 10 -3 10 C-2.87625 9.0925 -2.7525 8.185 -2.625 7.25 C-2.07890323 4.41029677 -1.42736197 2.47409409 0 0 Z " fill="#79E3FD" transform="translate(34,145)"/>
<path d="M0 0 C0.66 0 1.32 0 2 0 C2.3125 2.75 2.3125 2.75 2 6 C-0.5 8.375 -0.5 8.375 -3 10 C-2.25 3.375 -2.25 3.375 0 0 Z " fill="#1D87D5" transform="translate(204,131)"/>
<path d="M0 0 C-2 2 -2 2 -4.6015625 2.1953125 C-5.59929687 2.17210937 -6.59703125 2.14890625 -7.625 2.125 C-9.12933594 2.09792969 -9.12933594 2.09792969 -10.6640625 2.0703125 C-11.43492187 2.04710937 -12.20578125 2.02390625 -13 2 C-13 1.34 -13 0.68 -13 0 C-11.58456585 -0.19658808 -10.16755969 -0.38187546 -8.75 -0.5625 C-7.96109375 -0.66691406 -7.1721875 -0.77132812 -6.359375 -0.87890625 C-3.99467126 -1.00027349 -2.2488963 -0.69633257 0 0 Z " fill="#1161BA" transform="translate(193,145)"/>
<path d="M0 0 C1.32 0 2.64 0 4 0 C4 0.66 4 1.32 4 2 C5.051875 2.12375 6.10375 2.2475 7.1875 2.375 C10.45958771 2.91140782 13.00536076 3.63880035 16 5 C16 5.33 16 5.66 16 6 C9.75276774 6.82200425 5.28682163 3.92551394 0 1 C0 0.67 0 0.34 0 0 Z " fill="#AAF9FE" transform="translate(231,37)"/>
<path d="M0 0 C0 3.95702268 -1.23833431 6.47666862 -3 10 C-5.1875 11.9375 -5.1875 11.9375 -7 13 C-6.34206835 11.32986582 -5.67276716 9.6642135 -5 8 C-4.75894531 7.38769531 -4.51789062 6.77539062 -4.26953125 6.14453125 C-2.22574386 1.11287193 -2.22574386 1.11287193 0 0 Z " fill="#BFFCFE" transform="translate(49,106)"/>
<path d="M0 0 C0.33 0 0.66 0 1 0 C1 7.92 1 15.84 1 24 C0.67 24 0.34 24 0 24 C0 16.08 0 8.16 0 0 Z " fill="#4984E1" transform="translate(340,172)"/>
<path d="M0 0 C4.42679007 1.47559669 4.91432696 3.90057368 7 8 C7 8.66 7 9.32 7 10 C6.34 10 5.68 10 5 10 C3.7109375 8.3203125 3.7109375 8.3203125 2.375 6.125 C1.92898438 5.40570313 1.48296875 4.68640625 1.0234375 3.9453125 C0 2 0 2 0 0 Z " fill="#96D5F8" transform="translate(315,103)"/>
<path d="M0 0 C0.53625 0.226875 1.0725 0.45375 1.625 0.6875 C-5 4.6875 -5 4.6875 -8.375 4.6875 C-8.375 4.0275 -8.375 3.3675 -8.375 2.6875 C-2.95961538 -0.38942308 -2.95961538 -0.38942308 0 0 Z " fill="#6E61D8" transform="translate(257.375,320.3125)"/>
<path d="M0 0 C2 2 2 2 2.1953125 4.3828125 C2.17210937 5.28773437 2.14890625 6.19265625 2.125 7.125 C2.10695312 8.03507813 2.08890625 8.94515625 2.0703125 9.8828125 C2.03550781 10.93082031 2.03550781 10.93082031 2 12 C1.67 11.01 1.34 10.02 1 9 C0.34 9 -0.32 9 -1 9 C-0.67 6.03 -0.34 3.06 0 0 Z " fill="#22A9E6" transform="translate(205,122)"/>
<path d="M0 0 C0.33 0 0.66 0 1 0 C1 6.6 1 13.2 1 20 C0.67 20 0.34 20 0 20 C0 13.4 0 6.8 0 0 Z " fill="#5AC6ED" transform="translate(24,174)"/>
<path d="M0 0 C1.65 1.65 3.3 3.3 5 5 C4.67 5.99 4.34 6.98 4 8 C2.35 6.35 0.7 4.7 -1 3 C-0.67 2.01 -0.34 1.02 0 0 Z " fill="#E2DAE9" transform="translate(168,133)"/>
<path d="M0 0 C-6.4 3.07692308 -6.4 3.07692308 -9.4375 2.6875 C-9.953125 2.460625 -10.46875 2.23375 -11 2 C-11 1.34 -11 0.68 -11 0 C-9.54263913 -0.19491452 -8.08405407 -0.38069358 -6.625 -0.5625 C-5.81289062 -0.66691406 -5.00078125 -0.77132812 -4.1640625 -0.87890625 C-2 -1 -2 -1 0 0 Z " fill="#1A7DC9" transform="translate(192,148)"/>
<path d="M0 0 C3.37503669 1.1858237 5.64722731 2.27573689 8 5 C5.36 4.34 2.72 3.68 0 3 C0 2.01 0 1.02 0 0 Z " fill="#71EAFE" transform="translate(261,53)"/>
<path d="M0 0 C3.63 0 7.26 0 11 0 C11 0.33 11 0.66 11 1 C7.37 1 3.74 1 0 1 C0 0.67 0 0.34 0 0 Z " fill="#E3FEFF" transform="translate(177,25)"/>
<path d="M0 0 C2.97 0 5.94 0 9 0 C9 0.33 9 0.66 9 1 C6.03 1 3.06 1 0 1 C0 0.67 0 0.34 0 0 Z " fill="#D5FEFE" transform="translate(192,26)"/>
<path d="M0 0 C2.97 0 5.94 0 9 0 C9 0.33 9 0.66 9 1 C6.03 1 3.06 1 0 1 C0 0.67 0 0.34 0 0 Z " fill="#DDFEFE" transform="translate(164,26)"/>
<path d="M0 0 C0.33 0 0.66 0 1 0 C1 2.64 1 5.28 1 8 C0.67 8 0.34 8 0 8 C0 5.36 0 2.72 0 0 Z " fill="#4168DE" transform="translate(339,197)"/>
<path d="M0 0 C2.31 0 4.62 0 7 0 C7 0.33 7 0.66 7 1 C4.69 1 2.38 1 0 1 C0 0.67 0 0.34 0 0 Z " fill="#5046D4" transform="translate(199,340)"/>
<path d="M0 0 C0.33 0 0.66 0 1 0 C1 2.31 1 4.62 1 7 C0.67 7 0.34 7 0 7 C0 4.69 0 2.38 0 0 Z " fill="#39B0E4" transform="translate(25,197)"/>
<path d="M0 0 C0.33 0 0.66 0 1 0 C1 2.31 1 4.62 1 7 C0.67 7 0.34 7 0 7 C0 4.69 0 2.38 0 0 Z " fill="#5DD3F5" transform="translate(25,163)"/>
<path d="M0 0 C0.33 0 0.66 0 1 0 C1 2.31 1 4.62 1 7 C0.67 7 0.34 7 0 7 C0 4.69 0 2.38 0 0 Z " fill="#317DE2" transform="translate(339,163)"/>
<path d="M0 0 C1.98 0 3.96 0 6 0 C6 0.33 6 0.66 6 1 C4.02 1 2.04 1 0 1 C0 0.67 0 0.34 0 0 Z " fill="#4946CE" transform="translate(160,340)"/>
<path d="M0 0 C0.33 0 0.66 0 1 0 C1 1.98 1 3.96 1 6 C0.67 6 0.34 6 0 6 C0 4.02 0 2.04 0 0 Z " fill="#327CE2" transform="translate(338,156)"/>
<path d="M0 0 C0.33 0 0.66 0 1 0 C1 1.65 1 3.3 1 5 C0.67 5 0.34 5 0 5 C0 3.35 0 1.7 0 0 Z " fill="#4971DF" transform="translate(338,206)"/>
<path d="M0 0 C0.33 0 0.66 0 1 0 C1 1.65 1 3.3 1 5 C0.67 5 0.34 5 0 5 C0 3.35 0 1.7 0 0 Z " fill="#41B0E2" transform="translate(26,206)"/>
<path d="M0 0 C0.33 0 0.66 0 1 0 C1 1.65 1 3.3 1 5 C0.67 5 0.34 5 0 5 C0 3.35 0 1.7 0 0 Z " fill="#66DBFA" transform="translate(26,157)"/>
<path d="M0 0 C0.33 0 0.66 0 1 0 C1 1.65 1 3.3 1 5 C0.67 5 0.34 5 0 5 C0 3.35 0 1.7 0 0 Z " fill="#3483E4" transform="translate(337,151)"/>
<path d="M0 0 C0.33 0 0.66 0 1 0 C1 1.65 1 3.3 1 5 C0.67 5 0.34 5 0 5 C0 3.35 0 1.7 0 0 Z " fill="#7CE3FD" transform="translate(27,151)"/>
<path d="M0 0 C1.65 0 3.3 0 5 0 C5 0.33 5 0.66 5 1 C3.35 1 1.7 1 0 1 C0 0.67 0 0.34 0 0 Z " fill="#D6FEFF" transform="translate(209,28)"/>
<path d="M0 0 C1.65 0 3.3 0 5 0 C5 0.33 5 0.66 5 1 C3.35 1 1.7 1 0 1 C0 0.67 0 0.34 0 0 Z " fill="#E5FEFF" transform="translate(151,28)"/>
<path d="M0 0 C1.65 0 3.3 0 5 0 C5 0.33 5 0.66 5 1 C3.35 1 1.7 1 0 1 C0 0.67 0 0.34 0 0 Z " fill="#DAFEFE" transform="translate(203,27)"/>
<path d="M0 0 C1.65 0 3.3 0 5 0 C5 0.33 5 0.66 5 1 C3.35 1 1.7 1 0 1 C0 0.67 0 0.34 0 0 Z " fill="#E5FEFE" transform="translate(157,27)"/>
<path d="M0 0 C4 1 4 1 4 1 Z " fill="#594CD5" transform="translate(207,339)"/>
<path d="M0 0 C4 1 4 1 4 1 Z " fill="#5552CE" transform="translate(154,339)"/>
<path d="M0 0 C4 1 4 1 4 1 Z " fill="#473DD4" transform="translate(212,338)"/>
<path d="M0 0 C4 1 4 1 4 1 Z " fill="#4242CB" transform="translate(149,338)"/>
<path d="M0 0 C4 1 4 1 4 1 Z " fill="#5749D5" transform="translate(217,337)"/>
<path d="M0 0 C4 1 4 1 4 1 Z " fill="#5151CC" transform="translate(144,337)"/>
<path d="M0 0 C4 1 4 1 4 1 Z " fill="#5243D5" transform="translate(221,336)"/>
<path d="M0 0 C4 1 4 1 4 1 Z " fill="#4D4ECA" transform="translate(140,336)"/>
<path d="M0 0 C1 4 1 4 1 4 Z " fill="#4A64DC" transform="translate(335,221)"/>
<path d="M0 0 C1 4 1 4 1 4 Z " fill="#3EA5DC" transform="translate(29,221)"/>
<path d="M0 0 C1 4 1 4 1 4 Z " fill="#5471DE" transform="translate(336,217)"/>
<path d="M0 0 C1 4 1 4 1 4 Z " fill="#47ABDD" transform="translate(28,217)"/>
<path d="M0 0 C1 4 1 4 1 4 Z " fill="#4C6FDE" transform="translate(337,212)"/>
<path d="M0 0 C1 4 1 4 1 4 Z " fill="#41ADDF" transform="translate(27,212)"/>
<path d="M0 0 C1 4 1 4 1 4 Z " fill="#338CE6" transform="translate(336,147)"/>
<path d="M0 0 C1 4 1 4 1 4 Z " fill="#8DE7FE" transform="translate(28,147)"/>
<path d="M0 0 C4 1 4 1 4 1 Z " fill="#CFFEFF" transform="translate(214,29)"/>
<path d="M0 0 C4 1 4 1 4 1 Z " fill="#E3FEFF" transform="translate(147,29)"/>
<path d="M0 0 C3 1 3 1 3 1 Z " fill="#5748D5" transform="translate(225,335)"/>
<path d="M0 0 C3 1 3 1 3 1 Z " fill="#4F51C9" transform="translate(137,335)"/>
<path d="M0 0 C3 1 3 1 3 1 Z " fill="#3F35D2" transform="translate(228,334)"/>
<path d="M0 0 C3 1 3 1 3 1 Z " fill="#393BC5" transform="translate(134,334)"/>
<path d="M0 0 C3 1 3 1 3 1 Z " fill="#443AD3" transform="translate(237,331)"/>
<path d="M0 0 C3 1 3 1 3 1 Z " fill="#3E41C3" transform="translate(125,331)"/>
<path d="" fill="#5D6EDC" transform="translate(0,0)"/>
<path d="" fill="#48A4D8" transform="translate(0,0)"/>
<path d="" fill="#5C6FDC" transform="translate(0,0)"/>
<path d="" fill="#48A5D9" transform="translate(0,0)"/>
<path d="" fill="#6175DD" transform="translate(0,0)"/>
<path d="" fill="#4FA9DB" transform="translate(0,0)"/>
<path d="" fill="#4763DC" transform="translate(0,0)"/>
<path d="" fill="#38A3DB" transform="translate(0,0)"/>
<path d="" fill="#46A4E9" transform="translate(0,0)"/>
<path d="" fill="#AEEEFE" transform="translate(0,0)"/>
<path d="" fill="#52AEEB" transform="translate(0,0)"/>
<path d="" fill="#BAF2FE" transform="translate(0,0)"/>
<path d="" fill="#48AEEB" transform="translate(0,0)"/>
<path d="" fill="#B9F3FE" transform="translate(0,0)"/>
<path d="" fill="#42ACED" transform="translate(0,0)"/>
<path d="" fill="#B7F4FE" transform="translate(0,0)"/>
<path d="" fill="#B8F7FE" transform="translate(0,0)"/>
<path d="" fill="#54BCF0" transform="translate(0,0)"/>
<path d="" fill="#C7F9FE" transform="translate(0,0)"/>
<path d="M0 0 C3 1 3 1 3 1 Z " fill="#D4FEFE" transform="translate(230,33)"/>
<path d="M0 0 C3 1 3 1 3 1 Z " fill="#EAFEFF" transform="translate(132,33)"/>
<path d="M0 0 C3 1 3 1 3 1 Z " fill="#C1FEFE" transform="translate(226,32)"/>
<path d="M0 0 C3 1 3 1 3 1 Z " fill="#E3FEFF" transform="translate(136,32)"/>
<path d="M0 0 C3 1 3 1 3 1 Z " fill="#D4FEFE" transform="translate(223,31)"/>
<path d="M0 0 C3 1 3 1 3 1 Z " fill="#E8FEFE" transform="translate(139,31)"/>
<path d="M0 0 C3 1 3 1 3 1 Z " fill="#D5FEFE" transform="translate(219,30)"/>
<path d="M0 0 C3 1 3 1 3 1 Z " fill="#E7FEFE" transform="translate(143,30)"/>
<path d="M0 0 C2 1 2 1 2 1 Z " fill="#5D4DD6" transform="translate(232,333)"/>
<path d="M0 0 C2 1 2 1 2 1 Z " fill="#5358C9" transform="translate(131,333)"/>
<path d="M0 0 C2 1 2 1 2 1 Z " fill="#5E50D5" transform="translate(235,332)"/>
<path d="M0 0 C2 1 2 1 2 1 Z " fill="#5559C8" transform="translate(128,332)"/>
<path d="M0 0 C2 1 2 1 2 1 Z " fill="#4D3CD4" transform="translate(240,330)"/>
<path d="M0 0 C2 1 2 1 2 1 Z " fill="#434AC3" transform="translate(123,330)"/>
<path d="M0 0 C2 1 2 1 2 1 Z " fill="#6556D6" transform="translate(243,329)"/>
<path d="M0 0 C2 1 2 1 2 1 Z " fill="#5B62C8" transform="translate(120,329)"/>
<path d="M0 0 C2 1 2 1 2 1 Z " fill="#5343D5" transform="translate(245,328)"/>
<path d="M0 0 C2 1 2 1 2 1 Z " fill="#4952C3" transform="translate(118,328)"/>
<path d="M0 0 C2 1 2 1 2 1 Z " fill="#312AD1" transform="translate(247,327)"/>
<path d="M0 0 C2 1 2 1 2 1 Z " fill="#2B2FBC" transform="translate(116,327)"/>
<path d="M0 0 C2 1 2 1 2 1 Z " fill="#3A31D2" transform="translate(261,320)"/>
<path d="M0 0 C2 1 2 1 2 1 Z " fill="#3445BC" transform="translate(102,320)"/>
<path d="M0 0 C2 1 2 1 2 1 Z " fill="#6053D5" transform="translate(263,319)"/>
<path d="M0 0 C2 1 2 1 2 1 Z " fill="#5563C1" transform="translate(100,319)"/>
<path d="M0 0 C2 1 2 1 2 1 Z " fill="#3731CE" transform="translate(266,317)"/>
<path d="M0 0 C2 1 2 1 2 1 Z " fill="#3239B7" transform="translate(97,317)"/>
<path d="M0 0 C2 1 2 1 2 1 Z " fill="#3B35CF" transform="translate(275,311)"/>
<path d="M0 0 C2 1 2 1 2 1 Z " fill="#353DB5" transform="translate(88,311)"/>
<path d="M0 0 C2 1 2 1 2 1 Z " fill="#363EB4" transform="translate(84,308)"/>
<path d="M0 0 C2 1 2 1 2 1 Z " fill="#3E3ACF" transform="translate(284,304)"/>
<path d="M0 0 C2 1 2 1 2 1 Z " fill="#3A49B9" transform="translate(79,304)"/>
<path d="" fill="#423FD2" transform="translate(0,0)"/>
<path d="" fill="#3F6BC2" transform="translate(0,0)"/>
<path d="" fill="#3F3DD2" transform="translate(0,0)"/>
<path d="" fill="#3A6DC3" transform="translate(0,0)"/>
<path d="" fill="#4C4AD4" transform="translate(0,0)"/>
<path d="" fill="#4277C7" transform="translate(0,0)"/>
<path d="" fill="#3938CE" transform="translate(0,0)"/>
<path d="" fill="#335FC0" transform="translate(0,0)"/>
<path d="" fill="#3939D1" transform="translate(0,0)"/>
<path d="" fill="#326AC6" transform="translate(0,0)"/>
<path d="" fill="#5355D7" transform="translate(0,0)"/>
<path d="" fill="#4682CC" transform="translate(0,0)"/>
<path d="" fill="#5B5FD9" transform="translate(0,0)"/>
<path d="" fill="#4D8BCF" transform="translate(0,0)"/>
<path d="" fill="#4047D6" transform="translate(0,0)"/>
<path d="" fill="#3881CC" transform="translate(0,0)"/>
<path d="" fill="#2C6CC7" transform="translate(0,0)"/>
<path d="" fill="#2A5EC5" transform="translate(0,0)"/>
<path d="" fill="#2964C5" transform="translate(0,0)"/>
<path d="" fill="#2976CB" transform="translate(0,0)"/>
<path d="" fill="#424ED7" transform="translate(0,0)"/>
<path d="" fill="#348ACF" transform="translate(0,0)"/>
<path d="" fill="#5762D9" transform="translate(0,0)"/>
<path d="" fill="#4696D3" transform="translate(0,0)"/>
<path d="" fill="#6872DC" transform="translate(0,0)"/>
<path d="" fill="#57A1D6" transform="translate(0,0)"/>
<path d="" fill="#4454D8" transform="translate(0,0)"/>
<path d="" fill="#3293D3" transform="translate(0,0)"/>
<path d="" fill="#626FDB" transform="translate(0,0)"/>
<path d="" fill="#4FA3D8" transform="translate(0,0)"/>
<path d="" fill="#5465DB" transform="translate(0,0)"/>
<path d="" fill="#419ED6" transform="translate(0,0)"/>
<path d="" fill="#6ABFEF" transform="translate(0,0)"/>
<path d="" fill="#65C1F1" transform="translate(0,0)"/>
<path d="" fill="#CDFBFE" transform="translate(0,0)"/>
<path d="" fill="#82CAF2" transform="translate(0,0)"/>
<path d="" fill="#D5FCFF" transform="translate(0,0)"/>
<path d="" fill="#75C8F3" transform="translate(0,0)"/>
<path d="" fill="#D3FDFE" transform="translate(0,0)"/>
<path d="" fill="#CAFDFF" transform="translate(0,0)"/>
<path d="" fill="#97D3F6" transform="translate(0,0)"/>
<path d="" fill="#98D5F7" transform="translate(0,0)"/>
<path d="" fill="#DCFEFF" transform="translate(0,0)"/>
<path d="" fill="#99D5F7" transform="translate(0,0)"/>
<path d="" fill="#DDFEFF" transform="translate(0,0)"/>
<path d="" fill="#9ED7F8" transform="translate(0,0)"/>
<path d="" fill="#DEFEFF" transform="translate(0,0)"/>
<path d="" fill="#A4DAF8" transform="translate(0,0)"/>
<path d="" fill="#91D5F9" transform="translate(0,0)"/>
<path d="" fill="#DCFEFE" transform="translate(0,0)"/>
<path d="" fill="#ABDDFB" transform="translate(0,0)"/>
<path d="" fill="#A0DBFB" transform="translate(0,0)"/>
<path d="" fill="#DFFEFF" transform="translate(0,0)"/>
<path d="" fill="#92D6FB" transform="translate(0,0)"/>
<path d="" fill="#DCFEFF" transform="translate(0,0)"/>
<path d="" fill="#A7DEFD" transform="translate(0,0)"/>
<path d="" fill="#E1FEFF" transform="translate(0,0)"/>
<path d="" fill="#D8FEFF" transform="translate(0,0)"/>
<path d="" fill="#AFE1FE" transform="translate(0,0)"/>
<path d="" fill="#E4FEFF" transform="translate(0,0)"/>
<path d="" fill="#A3E2FE" transform="translate(0,0)"/>
<path d="M0 0 C2 1 2 1 2 1 Z " fill="#E4FEFE" transform="translate(74,67)"/>
<path d="M0 0 C2 1 2 1 2 1 Z " fill="#ABE8FE" transform="translate(288,66)"/>
<path d="M0 0 C2 1 2 1 2 1 Z " fill="#B9EEFE" transform="translate(281,60)"/>
<path d="M0 0 C2 1 2 1 2 1 Z " fill="#A8ECFE" transform="translate(277,57)"/>
<path d="M0 0 C2 1 2 1 2 1 Z " fill="#E8FEFE" transform="translate(86,57)"/>
<path d="M0 0 C2 1 2 1 2 1 Z " fill="#BFF2FE" transform="translate(273,54)"/>
<path d="M0 0 C2 1 2 1 2 1 Z " fill="#EBFEFF" transform="translate(90,54)"/>
<path d="M0 0 C2 1 2 1 2 1 Z " fill="#BDF2FE" transform="translate(270,52)"/>
<path d="M0 0 C2 1 2 1 2 1 Z " fill="#EAFEFE" transform="translate(93,52)"/>
<path d="M0 0 C2 1 2 1 2 1 Z " fill="#C3F4FE" transform="translate(267,50)"/>
<path d="M0 0 C2 1 2 1 2 1 Z " fill="#E1FEFF" transform="translate(98,49)"/>
<path d="M0 0 C2 1 2 1 2 1 Z " fill="#C5F6FF" transform="translate(262,47)"/>
<path d="M0 0 C2 1 2 1 2 1 Z " fill="#EBFEFF" transform="translate(101,47)"/>
<path d="M0 0 C2 1 2 1 2 1 Z " fill="#B7F5FF" transform="translate(260,46)"/>
<path d="M0 0 C2 1 2 1 2 1 Z " fill="#E8FEFF" transform="translate(103,46)"/>
<path d="M0 0 C2 1 2 1 2 1 Z " fill="#E0FEFE" transform="translate(105,45)"/>
<path d="M0 0 C2 1 2 1 2 1 Z " fill="#B9FAFF" transform="translate(248,40)"/>
<path d="M0 0 C2 1 2 1 2 1 Z " fill="#E6FEFF" transform="translate(115,40)"/>
<path d="M0 0 C2 1 2 1 2 1 Z " fill="#C7FBFE" transform="translate(246,39)"/>
<path d="M0 0 C2 1 2 1 2 1 Z " fill="#E9FEFE" transform="translate(117,39)"/>
<path d="M0 0 C2 1 2 1 2 1 Z " fill="#D0FCFF" transform="translate(244,38)"/>
<path d="M0 0 C2 1 2 1 2 1 Z " fill="#EAFEFE" transform="translate(119,38)"/>
<path d="M0 0 C2 1 2 1 2 1 Z " fill="#C5FCFE" transform="translate(241,37)"/>
<path d="M0 0 C2 1 2 1 2 1 Z " fill="#E7FEFF" transform="translate(122,37)"/>
<path d="M0 0 C2 1 2 1 2 1 Z " fill="#D1FEFF" transform="translate(239,36)"/>
<path d="M0 0 C2 1 2 1 2 1 Z " fill="#E9FEFE" transform="translate(124,36)"/>
<path d="M0 0 C2 1 2 1 2 1 Z " fill="#CFFEFF" transform="translate(236,35)"/>
<path d="M0 0 C2 1 2 1 2 1 Z " fill="#E9FEFF" transform="translate(127,35)"/>
<path d="M0 0 C2 1 2 1 2 1 Z " fill="#CFFEFF" transform="translate(233,34)"/>
<path d="M0 0 C2 1 2 1 2 1 Z " fill="#E8FEFE" transform="translate(130,34)"/>
<path d="" fill="#5A4BD6" transform="translate(0,0)"/>
<path d="" fill="#4F59C3" transform="translate(0,0)"/>
<path d="" fill="#5748D5" transform="translate(0,0)"/>
<path d="" fill="#4C56C2" transform="translate(0,0)"/>
<path d="" fill="#5546D4" transform="translate(0,0)"/>
<path d="" fill="#4A55C1" transform="translate(0,0)"/>
<path d="" fill="#5949D4" transform="translate(0,0)"/>
<path d="" fill="#4C58C1" transform="translate(0,0)"/>
<path d="" fill="#5D4ED5" transform="translate(0,0)"/>
<path d="" fill="#515DC1" transform="translate(0,0)"/>
<path d="" fill="#6457D5" transform="translate(0,0)"/>
<path d="" fill="#5864C2" transform="translate(0,0)"/>
<path d="" fill="#5B4DD4" transform="translate(0,0)"/>
<path d="" fill="#4E5DBF" transform="translate(0,0)"/>
<path d="" fill="#4E40D3" transform="translate(0,0)"/>
<path d="" fill="#4053BC" transform="translate(0,0)"/>
<path d="" fill="#6B5ED6" transform="translate(0,0)"/>
<path d="" fill="#5F6EC3" transform="translate(0,0)"/>
<path d="" fill="#4A3BD3" transform="translate(0,0)"/>
<path d="" fill="#3B4FBC" transform="translate(0,0)"/>
<path d="" fill="#6C60D6" transform="translate(0,0)"/>
<path d="" fill="#5E6EC2" transform="translate(0,0)"/>
<path d="" fill="#5345D3" transform="translate(0,0)"/>
<path d="" fill="#4459BC" transform="translate(0,0)"/>
<path d="" fill="#6155D5" transform="translate(0,0)"/>
<path d="" fill="#5366BF" transform="translate(0,0)"/>
<path d="" fill="#483AD2" transform="translate(0,0)"/>
<path d="" fill="#3850B9" transform="translate(0,0)"/>
<path d="" fill="#766CD7" transform="translate(0,0)"/>
<path d="" fill="#665BD5" transform="translate(0,0)"/>
<path d="" fill="#596DC1" transform="translate(0,0)"/>
<path d="" fill="#564AD3" transform="translate(0,0)"/>
<path d="" fill="#465EBD" transform="translate(0,0)"/>
<path d="" fill="#382AD0" transform="translate(0,0)"/>
<path d="" fill="#2D4BB9" transform="translate(0,0)"/>
<path d="" fill="#746AD7" transform="translate(0,0)"/>
<path d="" fill="#677CC5" transform="translate(0,0)"/>
<path d="" fill="#6A60D6" transform="translate(0,0)"/>
<path d="" fill="#5A72C2" transform="translate(0,0)"/>
<path d="" fill="#5F55D4" transform="translate(0,0)"/>
<path d="" fill="#4F69BF" transform="translate(0,0)"/>
<path d="" fill="#564BD3" transform="translate(0,0)"/>
<path d="" fill="#4663BD" transform="translate(0,0)"/>
<path d="" fill="#4D42D2" transform="translate(0,0)"/>
<path d="" fill="#3E5EBC" transform="translate(0,0)"/>
<path d="" fill="#483DD1" transform="translate(0,0)"/>
<path d="" fill="#3859BC" transform="translate(0,0)"/>
<path d="" fill="#4237D1" transform="translate(0,0)"/>
<path d="" fill="#3357BB" transform="translate(0,0)"/>
<path d="" fill="#3C32D1" transform="translate(0,0)"/>
<path d="" fill="#2F55BA" transform="translate(0,0)"/>
<path d="" fill="#382ED1" transform="translate(0,0)"/>
<path d="" fill="#2A52BA" transform="translate(0,0)"/>
<path d="" fill="#3E35D2" transform="translate(0,0)"/>
<path d="" fill="#3158BC" transform="translate(0,0)"/>
<path d="" fill="#443BD2" transform="translate(0,0)"/>
<path d="" fill="#355CBC" transform="translate(0,0)"/>
<path d="" fill="#483FD2" transform="translate(0,0)"/>
<path d="" fill="#3960BD" transform="translate(0,0)"/>
<path d="" fill="#5048D3" transform="translate(0,0)"/>
<path d="" fill="#3F65BE" transform="translate(0,0)"/>
<path d="" fill="#574FD4" transform="translate(0,0)"/>
<path d="" fill="#476CC1" transform="translate(0,0)"/>
<path d="" fill="#625BD5" transform="translate(0,0)"/>
<path d="" fill="#5275C4" transform="translate(0,0)"/>
<path d="" fill="#6C66D6" transform="translate(0,0)"/>
<path d="" fill="#5E7FC7" transform="translate(0,0)"/>
<path d="" fill="#7771D8" transform="translate(0,0)"/>
<path d="" fill="#6B8ACA" transform="translate(0,0)"/>
<path d="" fill="#443ED2" transform="translate(0,0)"/>
<path d="" fill="#3464C0" transform="translate(0,0)"/>
<path d="" fill="#5C57D5" transform="translate(0,0)"/>
<path d="" fill="#4B75C5" transform="translate(0,0)"/>
<path d="" fill="#6C67D7" transform="translate(0,0)"/>
<path d="" fill="#5E84C9" transform="translate(0,0)"/>
<path d="" fill="#504DD4" transform="translate(0,0)"/>
<path d="" fill="#3F72C5" transform="translate(0,0)"/>
<path d="" fill="#6562D7" transform="translate(0,0)"/>
<path d="" fill="#5682CA" transform="translate(0,0)"/>
<path d="" fill="#5957D6" transform="translate(0,0)"/>
<path d="" fill="#4A7DC8" transform="translate(0,0)"/>
<path d="" fill="#5353D6" transform="translate(0,0)"/>
<path d="" fill="#437BC9" transform="translate(0,0)"/>
<path d="" fill="#5859D7" transform="translate(0,0)"/>
<path d="" fill="#4681CB" transform="translate(0,0)"/>
<path d="" fill="#6768D9" transform="translate(0,0)"/>
<path d="" fill="#588ECF" transform="translate(0,0)"/>
<path d="" fill="#5659D8" transform="translate(0,0)"/>
<path d="" fill="#4585CD" transform="translate(0,0)"/>
<path d="" fill="#686CDA" transform="translate(0,0)"/>
<path d="" fill="#656ADA" transform="translate(0,0)"/>
<path d="" fill="#6268D9" transform="translate(0,0)"/>
<path d="" fill="#656DDA" transform="translate(0,0)"/>
<path d="" fill="#89CEF5" transform="translate(0,0)"/>
<path d="" fill="#D8FEFF" transform="translate(0,0)"/>
<path d="" fill="#DBFFFE" transform="translate(0,0)"/>
<path d="" fill="#9DD8F9" transform="translate(0,0)"/>
<path d="" fill="#DEFEFF" transform="translate(0,0)"/>
<path d="" fill="#A8DCFA" transform="translate(0,0)"/>
<path d="" fill="#E0FEFF" transform="translate(0,0)"/>
<path d="" fill="#DDFFFF" transform="translate(0,0)"/>
<path d="" fill="#ABDDFB" transform="translate(0,0)"/>
<path d="" fill="#E2FEFF" transform="translate(0,0)"/>
<path d="" fill="#ACDEFC" transform="translate(0,0)"/>
<path d="" fill="#E1FEFE" transform="translate(0,0)"/>
<path d="" fill="#B0E0FD" transform="translate(0,0)"/>
<path d="" fill="#E2FEFF" transform="translate(0,0)"/>
<path d="" fill="#B8E3FE" transform="translate(0,0)"/>
<path d="" fill="#E5FEFF" transform="translate(0,0)"/>
<path d="" fill="#ABDFFE" transform="translate(0,0)"/>
<path d="" fill="#E1FFFF" transform="translate(0,0)"/>
<path d="" fill="#C1E6FE" transform="translate(0,0)"/>
<path d="" fill="#B9E4FE" transform="translate(0,0)"/>
<path d="" fill="#E6FEFF" transform="translate(0,0)"/>
<path d="" fill="#B1E2FE" transform="translate(0,0)"/>
<path d="" fill="#E3FFFF" transform="translate(0,0)"/>
<path d="" fill="#C3E8FE" transform="translate(0,0)"/>
<path d="" fill="#E8FEFF" transform="translate(0,0)"/>
<path d="" fill="#BEE7FE" transform="translate(0,0)"/>
<path d="" fill="#E7FEFE" transform="translate(0,0)"/>
<path d="" fill="#B8E5FE" transform="translate(0,0)"/>
<path d="" fill="#E6FEFF" transform="translate(0,0)"/>
<path d="" fill="#B0E4FF" transform="translate(0,0)"/>
<path d="" fill="#E5FFFF" transform="translate(0,0)"/>
<path d="" fill="#A3E1FF" transform="translate(0,0)"/>
<path d="" fill="#E3FFFE" transform="translate(0,0)"/>
<path d="" fill="#DEFFFF" transform="translate(0,0)"/>
<path d="" fill="#CAEBFE" transform="translate(0,0)"/>
<path d="" fill="#ECFEFF" transform="translate(0,0)"/>
<path d="" fill="#C9EBFE" transform="translate(0,0)"/>
<path d="" fill="#EBFEFF" transform="translate(0,0)"/>
<path d="" fill="#C7EBFE" transform="translate(0,0)"/>
<path d="" fill="#EAFEFF" transform="translate(0,0)"/>
<path d="" fill="#C7EBFE" transform="translate(0,0)"/>
<path d="" fill="#EAFEFF" transform="translate(0,0)"/>
<path d="" fill="#C6EBFE" transform="translate(0,0)"/>
<path d="" fill="#EBFEFF" transform="translate(0,0)"/>
<path d="" fill="#C6ECFE" transform="translate(0,0)"/>
<path d="" fill="#EBFEFF" transform="translate(0,0)"/>
<path d="" fill="#C7ECFE" transform="translate(0,0)"/>
<path d="" fill="#EBFEFE" transform="translate(0,0)"/>
<path d="" fill="#C9EDFE" transform="translate(0,0)"/>
<path d="" fill="#ECFEFF" transform="translate(0,0)"/>
<path d="" fill="#CDEEFE" transform="translate(0,0)"/>
<path d="" fill="#E4FFFF" transform="translate(0,0)"/>
<path d="" fill="#A6E7FF" transform="translate(0,0)"/>
<path d="" fill="#E7FFFE" transform="translate(0,0)"/>
<path d="" fill="#B2EAFF" transform="translate(0,0)"/>
<path d="" fill="#E9FFFF" transform="translate(0,0)"/>
<path d="" fill="#B9ECFF" transform="translate(0,0)"/>
<path d="" fill="#EAFFFF" transform="translate(0,0)"/>
<path d="" fill="#C0EEFE" transform="translate(0,0)"/>
<path d="" fill="#EBFEFF" transform="translate(0,0)"/>
<path d="" fill="#C7F0FE" transform="translate(0,0)"/>
<path d="" fill="#EDFEFF" transform="translate(0,0)"/>
<path d="" fill="#E7FFFE" transform="translate(0,0)"/>
<path d="" fill="#B7EEFF" transform="translate(0,0)"/>
<path d="" fill="#EAFFFF" transform="translate(0,0)"/>
<path d="" fill="#C1F0FE" transform="translate(0,0)"/>
<path d="" fill="#EBFFFF" transform="translate(0,0)"/>
<path d="" fill="#B8EFFF" transform="translate(0,0)"/>
<path d="" fill="#EAFFFF" transform="translate(0,0)"/>
<path d="" fill="#C4F2FE" transform="translate(0,0)"/>
<path d="" fill="#ECFEFF" transform="translate(0,0)"/>
<path d="" fill="#C2F2FE" transform="translate(0,0)"/>
<path d="" fill="#EBFFFF" transform="translate(0,0)"/>
<path d="" fill="#C4F4FF" transform="translate(0,0)"/>
<path d="" fill="#EBFEFE" transform="translate(0,0)"/>
<path d="" fill="#E8FEFE" transform="translate(0,0)"/>
<path d="" fill="#CAF6FE" transform="translate(0,0)"/>
<path d="" fill="#C2F5FF" transform="translate(0,0)"/>
<path d="" fill="#EAFEFE" transform="translate(0,0)"/>
<path d="" fill="#CBF8FF" transform="translate(0,0)"/>
<path d="" fill="#C9F9FE" transform="translate(0,0)"/>
<path d="" fill="#EBFEFF" transform="translate(0,0)"/>
<path d="" fill="#CAF9FF" transform="translate(0,0)"/>
<path d="" fill="#EAFEFE" transform="translate(0,0)"/>
<path d="" fill="#CBFAFF" transform="translate(0,0)"/>
<path d="" fill="#E9FFFF" transform="translate(0,0)"/>
<path d="" fill="#CCFAFF" transform="translate(0,0)"/>
<path d="" fill="#EBFEFF" transform="translate(0,0)"/>
</svg>
