<?xml version="1.0" encoding="UTF-8"?>
<svg version="1.1" xmlns="http://www.w3.org/2000/svg" width="512" height="512">
<path d="M0 0 C0.75998795 -0.00817749 1.51997589 -0.01635498 2.30299377 -0.02478027 C4.81600172 -0.04956876 7.32895309 -0.06614026 9.84204102 -0.08056641 C10.70475176 -0.08589008 11.5674625 -0.09121376 12.45631599 -0.09669876 C17.02946202 -0.12341163 21.60258103 -0.14278593 26.17578125 -0.15722656 C29.94002838 -0.17051948 33.70372747 -0.19828816 37.46777344 -0.23925781 C42.03067289 -0.28891143 46.59307864 -0.3133881 51.15623665 -0.32045364 C52.88439388 -0.32711564 54.6125423 -0.34220371 56.34054375 -0.36634445 C72.37665854 -0.57745654 84.08454042 2.42375364 96.08032227 13.77490234 C103.06397089 21.17253014 107.557893 30.90150796 107.50610352 41.05224609 C107.50288086 42.16728516 107.4996582 43.28232422 107.49633789 44.43115234 C107.48795898 45.59001953 107.47958008 46.74888672 107.47094727 47.94287109 C107.46643555 49.11720703 107.46192383 50.29154297 107.45727539 51.50146484 C107.44549821 54.39865182 107.42905053 57.29573563 107.40844727 60.19287109 C108.40062256 60.16668701 109.39279785 60.14050293 110.41503906 60.11352539 C114.15910544 60.02180325 117.90307668 59.96518821 121.64794922 59.91821289 C123.25684402 59.89334217 124.86562918 59.85943221 126.47412109 59.81567383 C142.49784635 59.39123735 154.10662404 62.44465052 166.08032227 73.77490234 C172.36949121 80.43688284 177.55140195 90.0191906 177.52197266 99.31884766 C177.52189713 100.11937561 177.52182159 100.91990356 177.52174377 101.74468994 C177.51658249 102.59899597 177.5114212 103.453302 177.50610352 104.33349609 C177.50398109 105.6567691 177.50398109 105.6567691 177.5018158 107.0067749 C177.49622728 109.81884175 177.48367687 112.63082839 177.47094727 115.44287109 C177.46593078 117.35172411 177.46136813 119.26057837 177.45727539 121.16943359 C177.4462616 125.84394357 177.42900485 130.51839374 177.40844727 135.19287109 C178.27727539 134.98791016 179.14610352 134.78294922 180.04125977 134.57177734 C181.76989258 134.16765625 181.76989258 134.16765625 183.53344727 133.75537109 C184.67040039 133.48853516 185.80735352 133.22169922 186.97875977 132.94677734 C195.28009463 131.12199645 203.3259849 130.94992147 211.78344727 130.94287109 C212.86624466 130.94185898 212.86624466 130.94185898 213.97091675 130.94082642 C224.40731188 130.95636519 234.29276372 131.28593075 244.40844727 134.19287109 C245.6343457 134.53318359 246.86024414 134.87349609 248.12329102 135.22412109 C280.15274889 145.00814538 307.67054479 167.16032212 323.72094727 196.56787109 C333.43125056 215.10150232 337.64099721 234.82310308 337.65844727 255.63037109 C337.65912201 256.34973846 337.65979675 257.06910583 337.66049194 257.81027222 C337.64493745 268.22815114 337.31023455 278.09511937 334.40844727 288.19287109 C334.06813477 289.41876953 333.72782227 290.64466797 333.37719727 291.90771484 C323.59502351 323.93111473 301.44282883 351.46495231 272.03344727 367.50537109 C264.13408684 371.61927703 255.9352527 374.65977946 247.40844727 377.19287109 C246.71928223 377.40459961 246.03011719 377.61632812 245.32006836 377.83447266 C224.6758451 383.92874394 197.83612277 384.00209626 177.40844727 377.19287109 C177.41955032 378.41681076 177.43065338 379.64075043 177.4420929 380.90177917 C177.54378707 392.479253 177.61856493 404.05663529 177.66750813 415.63445568 C177.69351695 421.58567723 177.7287554 427.536536 177.78564453 433.48754883 C177.84027541 439.23882386 177.86993323 444.98975161 177.88283348 450.74126625 C177.89201776 452.9271624 177.9099516 455.11304119 177.93709755 457.29878807 C178.14753389 474.95728845 176.42453669 487.55117659 163.82641602 500.86474609 C155.28990825 508.92354174 145.12704034 512.33994126 133.66285706 512.34677124 C132.77023019 512.35115349 131.87760333 512.35553575 130.95792717 512.3600508 C127.96039331 512.37342812 124.96288885 512.37961536 121.96533203 512.38574219 C119.81837329 512.39364418 117.67141586 512.40191319 115.52445984 512.41052246 C108.46627062 512.43673788 101.4080755 512.45205265 94.34985352 512.46630859 C91.91826817 512.47166904 89.48668285 512.47704655 87.05509758 512.48244095 C76.9367922 512.50407164 66.8184884 512.52280645 56.70016575 512.53406334 C42.21169012 512.55028904 27.72348324 512.5834315 13.23510891 512.64046419 C3.04212811 512.67921584 -7.15078099 512.69870241 -17.34383351 512.7039839 C-23.42808455 512.70763101 -29.51204891 512.71958418 -35.59622002 512.75208664 C-41.32628169 512.78225778 -47.05588458 512.78844663 -52.78600883 512.77670288 C-54.8817313 512.77648288 -56.97747561 512.78472618 -59.07312393 512.80235672 C-76.14376259 512.93807682 -88.41750361 510.76644561 -101.26342773 498.61083984 C-108.47496174 490.971818 -112.70748085 481.19249701 -112.72856712 470.77115726 C-112.73121895 470.12547789 -112.73387078 469.47979852 -112.73660296 468.81455311 C-112.74428748 466.64206557 -112.74485481 464.46963463 -112.74545288 462.2971344 C-112.74946808 460.72727234 -112.7539064 459.15741131 -112.75873244 457.58755153 C-112.77069769 453.26628646 -112.77634629 448.94503254 -112.78091359 444.62375414 C-112.78686997 439.9657198 -112.79847983 435.3076988 -112.8092041 430.64967346 C-112.83372884 419.39571498 -112.84835617 408.14175208 -112.86126417 396.88777509 C-112.86497631 393.70870627 -112.86894953 390.52963788 -112.87301683 387.35056949 C-112.89825556 367.60640348 -112.92030739 347.86223678 -112.93274498 328.1180582 C-112.93567465 323.54444438 -112.93863632 318.97083057 -112.94165039 314.3972168 C-112.94239644 313.260474 -112.94314249 312.12373119 -112.94391115 310.95254164 C-112.95656023 292.54486365 -112.98977709 274.13728236 -113.03145222 255.72964955 C-113.07389525 236.82774207 -113.09744283 217.92588406 -113.10266554 199.02392906 C-113.10607716 188.41253448 -113.11780289 177.80129095 -113.15076828 167.18994331 C-113.17880258 158.15107356 -113.1897533 149.11238582 -113.17857282 140.07347596 C-113.17339468 135.46421066 -113.17621788 130.85532632 -113.20103836 126.24611664 C-113.22360712 122.0196332 -113.22273232 117.7938027 -113.20383449 113.56730723 C-113.2010451 112.04498928 -113.20657358 110.52262633 -113.22164743 109.00038046 C-113.36199156 93.89391341 -109.42576834 82.5287829 -99.00952148 71.52099609 C-90.72863881 63.70352048 -80.71558506 60.01781739 -69.54467773 60.09521484 C-68.38787506 60.09733727 -68.38787506 60.09733727 -67.20770264 60.09950256 C-64.75227935 60.10508576 -62.29694831 60.11763514 -59.84155273 60.13037109 C-58.1735853 60.13538827 -56.50561644 60.1399508 -54.83764648 60.14404297 C-50.75557986 60.15504968 -46.67358192 60.17230273 -42.59155273 60.19287109 C-42.61773682 59.50362549 -42.6439209 58.81437988 -42.67089844 58.10424805 C-43.21514659 41.60732864 -43.61442669 28.28328314 -32.39233398 15.11474609 C-23.54835234 5.67604985 -13.01351153 0.07772387 0 0 Z " fill="#E0EAEF" transform="translate(143.591552734375,-0.19287109375)"/>
<path d="M0 0 C1.22589844 0.3403125 2.45179688 0.680625 3.71484375 1.03125 C35.74430162 10.81527428 63.26209752 32.96745102 79.3125 62.375 C89.0228033 80.90863123 93.23254995 100.63023199 93.25 121.4375 C93.25067474 122.15686737 93.25134949 122.87623474 93.25204468 123.61740112 C93.23649018 134.03528005 92.90178729 143.90224828 90 154 C89.6596875 155.22589844 89.319375 156.45179688 88.96875 157.71484375 C79.18657625 189.73824363 57.03438156 217.27208122 27.625 233.3125 C19.72563957 237.42640593 11.52680544 240.46690837 3 243 C2.31083496 243.21172852 1.62166992 243.42345703 0.91162109 243.64160156 C-29.49260751 252.61707209 -63.73631476 247.50386492 -91.34765625 232.76171875 C-95.02066943 230.68227088 -98.5360286 228.40949775 -102 226 C-102.55300781 225.61763184 -103.10601562 225.23526367 -103.67578125 224.84130859 C-130.52408682 205.95475172 -149.18084651 177.49100865 -155.47436523 145.19848633 C-158.44883386 127.94801838 -158.34482692 109.97636003 -154 93 C-153.83371094 92.31921387 -153.66742188 91.63842773 -153.49609375 90.93701172 C-145.77276878 59.764814 -125.67726093 33.48447442 -99 16 C-98.09378906 15.38640625 -97.18757813 14.7728125 -96.25390625 14.140625 C-68.81958593 -3.21984475 -31.38687306 -9.01963444 0 0 Z " fill="#FE405C" transform="translate(388,134)"/>
<path d="M0 0 C0 115.83 0 231.66 0 351 C-24.42 351.33 -48.84 351.66 -74 352 C-81.18930668 355.66694671 -81.18930668 355.66694671 -84 362 C-84.41401047 365.53427711 -84.4443328 369.03018791 -84.43359375 372.5859375 C-84.44145653 374.10956406 -84.44145653 374.10956406 -84.44947815 375.66397095 C-84.45588558 377.80722136 -84.45457797 379.950507 -84.44604492 382.09375 C-84.4375458 385.35741444 -84.46629798 388.61932121 -84.49804688 391.8828125 C-84.49965944 393.97135365 -84.4990803 396.05989787 -84.49609375 398.1484375 C-84.50732773 399.11639252 -84.51856171 400.08434753 -84.53013611 401.08163452 C-84.47079167 406.90796506 -83.96384682 412.43760188 -80 417 C-75.44136719 419.87926359 -71.8666605 420.38680324 -66.52587891 420.43237305 C-65.80323853 420.4425647 -65.08059814 420.45275635 -64.33605957 420.46325684 C-61.96614707 420.4932619 -59.59663958 420.50263328 -57.2265625 420.51171875 C-55.5760261 420.52857476 -53.92550247 420.54672625 -52.2749939 420.56611633 C-47.94484445 420.61352252 -43.61474678 420.64339238 -39.28442383 420.66955566 C-34.86008483 420.69940868 -30.43592402 420.74592268 -26.01171875 420.79101562 C-17.34121879 420.87694209 -8.67073707 420.94279349 0 421 C0 431.23 0 441.46 0 452 C-13.42173323 452.11305368 -26.84314914 452.20474731 -40.26525116 452.25906086 C-46.4979779 452.28513135 -52.73036141 452.32048403 -58.96289062 452.37719727 C-64.97997909 452.43160616 -70.99673783 452.4614397 -77.01405334 452.47438622 C-79.30734954 452.48361002 -81.60062811 452.50162209 -83.89378357 452.52865028 C-87.11122339 452.56505725 -90.32730853 452.56994029 -93.54492188 452.56762695 C-94.48863647 452.58560333 -95.43235107 452.60357971 -96.40466309 452.62210083 C-101.89136391 452.57953999 -105.64541768 451.63902141 -110.32459259 448.75738811 C-116.54473864 442.2328791 -115.42510391 433.61140176 -115.38768005 425.19665527 C-115.39185489 423.67354741 -115.39733323 422.15044265 -115.40399987 420.62734365 C-115.41845338 416.44943053 -115.41421008 412.27171469 -115.40683305 408.09379077 C-115.40210351 403.58519816 -115.41460927 399.07664836 -115.42485046 394.56806946 C-115.44204738 385.73870978 -115.44287671 376.90942124 -115.43763756 368.08004916 C-115.43359667 360.90444824 -115.43503845 353.72886835 -115.44038582 346.55326843 C-115.44113424 345.53212962 -115.44188266 344.51099082 -115.44265376 343.45890841 C-115.44418523 341.38450626 -115.44572358 339.31010412 -115.44726873 337.23570198 C-115.46099674 317.78250271 -115.45555373 298.32934366 -115.44408352 278.8761453 C-115.43414848 261.07569871 -115.44709597 243.27535602 -115.47101771 225.47492546 C-115.49539358 207.19896867 -115.50502045 188.9230603 -115.49836498 170.64708757 C-115.4948697 160.38584401 -115.49712533 150.12468039 -115.51461601 139.8634491 C-115.52931898 131.12934117 -115.52999828 122.3953695 -115.5125451 113.6612643 C-115.50401744 109.20467668 -115.50192857 104.74833267 -115.51719666 100.29175758 C-115.53100105 96.21194496 -115.52633571 92.13258563 -115.50695742 88.05279952 C-115.50318403 86.57712143 -115.50615786 85.1014074 -115.51656907 83.62576121 C-115.60709848 69.81196904 -115.60709848 69.81196904 -111 64 C-105.24120137 59.47732566 -100.20759528 59.44970619 -93.0625 59.53125 C-91.50414429 59.52067566 -91.50414429 59.52067566 -89.91430664 59.5098877 C-85.49319435 59.48049774 -81.07252814 59.49702857 -76.65136719 59.50927734 C-73.41314542 59.5116619 -70.1756335 59.4907226 -66.9375 59.46875 C-65.94564697 59.48006958 -64.95379395 59.49138916 -63.93188477 59.50305176 C-57.76478166 59.45828583 -53.92261386 58.84399171 -49 55 C-45.6463912 50.25379455 -45.5846481 45.9409383 -45.62890625 40.34765625 C-45.61152602 38.66731565 -45.59394161 36.98697715 -45.57617188 35.30664062 C-45.56610765 32.68233366 -45.56250282 30.05816335 -45.56420898 27.43383789 C-45.56062253 24.88387188 -45.53322597 22.33493734 -45.50390625 19.78515625 C-45.51208878 19.00890396 -45.5202713 18.23265167 -45.52870178 17.43287659 C-45.45284282 11.83244492 -44.39514568 8.51687011 -41 4 C-34 0 -34 0 0 0 Z " fill="#FEF4F4" transform="translate(176,30)"/>
<path d="M0 0 C0.75998795 -0.00817749 1.51997589 -0.01635498 2.30299377 -0.02478027 C4.81600172 -0.04956876 7.32895309 -0.06614026 9.84204102 -0.08056641 C10.70475176 -0.08589008 11.5674625 -0.09121376 12.45631599 -0.09669876 C17.02946202 -0.12341163 21.60258103 -0.14278593 26.17578125 -0.15722656 C29.94002838 -0.17051948 33.70372747 -0.19828816 37.46777344 -0.23925781 C42.03067289 -0.28891143 46.59307864 -0.3133881 51.15623665 -0.32045364 C52.88439388 -0.32711564 54.6125423 -0.34220371 56.34054375 -0.36634445 C72.37665854 -0.57745654 84.08454042 2.42375364 96.08032227 13.77490234 C103.06397089 21.17253014 107.557893 30.90150796 107.50610352 41.05224609 C107.50288086 42.16728516 107.4996582 43.28232422 107.49633789 44.43115234 C107.48795898 45.59001953 107.47958008 46.74888672 107.47094727 47.94287109 C107.46643555 49.11720703 107.46192383 50.29154297 107.45727539 51.50146484 C107.44549821 54.39865182 107.42905053 57.29573563 107.40844727 60.19287109 C108.40062256 60.16668701 109.39279785 60.14050293 110.41503906 60.11352539 C114.15910544 60.02180325 117.90307668 59.96518821 121.64794922 59.91821289 C123.25684402 59.89334217 124.86562918 59.85943221 126.47412109 59.81567383 C142.49784635 59.39123735 154.10662404 62.44465052 166.08032227 73.77490234 C172.40684686 80.47645288 177.55081766 90.0648627 177.52197266 99.41064453 C177.52189713 100.23119324 177.52182159 101.05174194 177.52174377 101.89715576 C177.51658249 102.77333557 177.5114212 103.64951538 177.50610352 104.55224609 C177.50398109 105.90881317 177.50398109 105.90881317 177.5018158 107.29278564 C177.49622637 110.17618136 177.4836758 113.05949892 177.47094727 115.94287109 C177.4659309 117.89990122 177.46136823 119.85693257 177.45727539 121.81396484 C177.4462604 126.60696363 177.42900301 131.39990412 177.40844727 136.19287109 C175.95581055 136.76424154 174.50317383 137.33561198 173.05053711 137.90698242 C172.19240417 138.24468658 171.33427124 138.58239075 170.45013428 138.93032837 C168.68271785 139.62513126 166.91428351 140.31734636 165.14526367 141.00805664 C163.96456299 141.47659058 163.96456299 141.47659058 162.76000977 141.95458984 C161.9744873 142.26356201 161.18896484 142.57253418 160.37963867 142.89086914 C155.97194492 144.82235893 151.69854508 147.01481891 147.40844727 149.19287109 C147.40480164 148.59231903 147.40115601 147.99176697 147.3973999 147.37301636 C147.35552275 141.11075427 147.28614048 134.84922153 147.20092773 128.58740234 C147.17273798 126.25186464 147.15151357 123.91623189 147.13745117 121.58056641 C147.11599481 118.2190695 147.0693282 114.85871303 147.01782227 111.49755859 C147.01597931 109.93628738 147.01597931 109.93628738 147.01409912 108.34347534 C146.89711767 102.52624712 146.58122445 98.62285038 142.40844727 94.19287109 C137.19392254 90.4603277 131.91762394 90.76758025 125.75219727 90.78662109 C124.22145569 90.77036682 124.22145569 90.77036682 122.65979004 90.75378418 C119.40927749 90.7196075 116.15911565 90.7039458 112.90844727 90.69287109 C108.62686103 90.67828415 104.34605475 90.64458295 100.06469727 90.59912109 C99.08641968 90.60214233 98.10814209 90.60516357 97.10021973 90.60827637 C91.03772962 90.54173135 86.47892497 89.92785717 81.76391602 85.72802734 C77.33159041 80.13944289 77.27026321 75.87014193 77.23266602 68.91943359 C77.2094695 67.27358745 77.18535223 65.62775407 77.16040039 63.98193359 C77.12530574 61.39916395 77.09594204 58.81686575 77.08251953 56.23388672 C77.06699436 53.73266253 77.02676495 51.23279634 76.98266602 48.73193359 C76.98552864 47.58321274 76.98552864 47.58321274 76.9884491 46.4112854 C76.87185031 41.26819316 75.92679481 38.18456693 72.40844727 34.19287109 C67.99978864 31.5341398 64.71478007 30.81238366 59.59619141 30.78881836 C58.9433165 30.78195511 58.29044159 30.77509186 57.61778259 30.76802063 C55.47616347 30.74983479 53.33528271 30.753578 51.19360352 30.75927734 C49.69436914 30.75471148 48.19513686 30.74940471 46.69590759 30.74339294 C43.55971758 30.73447795 40.42378242 30.7368663 37.28759766 30.74682617 C33.28166287 30.75831265 29.27661003 30.73810208 25.27079105 30.70890903 C22.17624892 30.69050434 19.08191647 30.69084793 15.9873333 30.69654655 C14.51103923 30.69669926 13.03473049 30.69069736 11.55848885 30.67825508 C0.71327056 30.36026321 0.71327056 30.36026321 -8.59155273 35.19287109 C-11.94612403 39.93884164 -11.99452445 44.22007311 -11.92749023 49.81005859 C-11.94000304 51.48584371 -11.95304018 53.16162499 -11.96655273 54.83740234 C-11.97047629 57.45293943 -11.96655149 60.06809327 -11.9519043 62.68359375 C-11.94328003 65.22631593 -11.9651013 67.76747401 -11.98999023 70.31005859 C-11.97664642 71.0811496 -11.96330261 71.8522406 -11.94955444 72.646698 C-12.0291285 78.56535023 -13.69155118 82.70444436 -17.59155273 87.19287109 C-22.73319646 91.05017576 -28.26295641 90.60206567 -34.43139648 90.56396484 C-36.56746581 90.58134488 -38.70353349 90.59892929 -40.83959961 90.61669922 C-44.18818191 90.62677125 -47.53665708 90.63036722 -50.88525391 90.62866211 C-54.13012261 90.63223969 -57.37417376 90.6596073 -60.61889648 90.68896484 C-61.61388657 90.68078232 -62.60887665 90.67259979 -63.63401794 90.66416931 C-69.80259552 90.72994873 -73.66751997 91.34856117 -78.59155273 95.19287109 C-81.19808856 99.48700343 -81.96689504 102.68188159 -81.96907616 107.67441463 C-81.9768994 108.967417 -81.98472264 110.26041937 -81.99278295 111.59260362 C-81.98629731 113.02039079 -81.97952737 114.44817668 -81.97250366 115.8759613 C-81.97596105 117.39820554 -81.98072616 118.92044726 -81.9866854 120.44268376 C-81.9992141 124.62286227 -81.99301651 128.80283543 -81.98372674 132.9830147 C-81.97694419 137.4923019 -81.98741358 142.00155358 -81.9956665 146.51083374 C-82.00901483 155.34367753 -82.0061211 164.1764449 -81.99742858 173.0092917 C-81.99065635 180.18777599 -81.98973333 187.36623885 -81.99300003 194.54472542 C-81.99345973 195.56599972 -81.99391943 196.58727401 -81.99439306 197.63949602 C-81.99535223 199.7141397 -81.99632487 201.78878338 -81.99731083 203.86342705 C-82.00586806 223.32330114 -81.9960256 242.78313284 -81.97990973 262.24299998 C-81.96650827 278.94221328 -81.9688326 295.64136401 -81.98266602 312.34057617 C-81.99871941 331.72876566 -82.00504193 351.11691798 -81.99582922 370.50511318 C-81.99487357 372.57247579 -81.99393046 374.63983839 -81.99300003 376.707201 C-81.9925372 377.72440278 -81.99207438 378.74160456 -81.99159753 379.78963063 C-81.98900677 386.95938174 -81.99338053 394.12910928 -82.00043869 401.29885674 C-82.0088513 410.0366324 -82.00657865 418.7743272 -81.99059646 427.5120936 C-81.98271023 431.97065942 -81.97962813 436.42909042 -81.98954391 440.88765526 C-81.99848413 444.96929272 -81.99356909 449.05067039 -81.97761126 453.13228429 C-81.97426058 454.60866395 -81.97596401 456.08506556 -81.98323862 457.5614311 C-82.31828691 467.89583907 -82.31828691 467.89583907 -78.59155273 477.19287109 C-73.39703249 481.16850497 -69.3033158 481.77251952 -62.8936615 481.69407654 C-62.04253503 481.69961093 -61.19140856 481.70514533 -60.31449038 481.71084744 C-57.47547242 481.72441128 -54.6373401 481.70950808 -51.79833984 481.69458008 C-49.75780363 481.69836477 -47.71726998 481.70386606 -45.67674255 481.71095276 C-40.14376336 481.724904 -34.61109524 481.71374013 -29.07813334 481.69724154 C-23.28601895 481.68338311 -17.49392247 481.68985196 -11.70179749 481.69337463 C-1.97644034 481.6960759 7.74879333 481.68260747 17.47412109 481.65942383 C28.71737058 481.63280721 39.96041371 481.63106972 51.20368391 481.64281219 C62.02178147 481.65359122 72.83980441 481.64740238 83.65789604 481.63325691 C88.26103924 481.62749897 92.8641278 481.62757828 97.4672718 481.63232231 C102.88705573 481.63709458 108.30661366 481.62697988 113.7263546 481.60536766 C115.71534081 481.59980333 117.70434875 481.59933124 119.69333649 481.60432053 C122.40832164 481.61027688 125.12261668 481.59776148 127.83753967 481.58055115 C129.01813771 481.58956622 129.01813771 481.58956622 130.22258621 481.59876341 C135.02787103 481.54337189 138.32176186 480.73083066 142.40844727 478.19287109 C145.63924912 474.62784836 146.52813761 471.47095828 146.56666565 466.73200989 C146.57645447 465.81915726 146.58624329 464.90630463 146.59632874 463.96578979 C146.6020842 462.96669586 146.60783966 461.96760193 146.61376953 460.93823242 C146.62366913 459.88440872 146.63356873 458.83058502 146.64376831 457.74482727 C146.67540433 454.2548753 146.70014914 450.76490971 146.72485352 447.27490234 C146.74542122 444.85779971 146.76641764 442.44070068 146.78782654 440.02360535 C146.84306613 433.65649335 146.89246713 427.28934879 146.94067383 420.92218018 C146.99087504 414.42709448 147.04656831 407.93205618 147.10180664 401.43701172 C147.20941131 388.68900558 147.31103762 375.940959 147.40844727 363.19287109 C148.48481445 363.71236328 149.56118164 364.23185547 150.67016602 364.76708984 C159.46196602 368.97665014 168.23503287 372.87448815 177.40844727 376.19287109 C177.52468129 389.13701931 177.61333494 402.08104182 177.66750813 415.02560711 C177.69351844 421.03736086 177.72875971 427.04875556 177.78564453 433.06030273 C177.84026997 438.8699321 177.86993211 444.67921773 177.88283348 450.48908424 C177.89201872 452.69730852 177.90995448 454.90551559 177.93709755 457.11359215 C178.14627204 474.84717025 176.48090805 487.4916039 163.82641602 500.86474609 C155.28990825 508.92354174 145.12704034 512.33994126 133.66285706 512.34677124 C132.77023019 512.35115349 131.87760333 512.35553575 130.95792717 512.3600508 C127.96039331 512.37342812 124.96288885 512.37961536 121.96533203 512.38574219 C119.81837329 512.39364418 117.67141586 512.40191319 115.52445984 512.41052246 C108.46627062 512.43673788 101.4080755 512.45205265 94.34985352 512.46630859 C91.91826817 512.47166904 89.48668285 512.47704655 87.05509758 512.48244095 C76.9367922 512.50407164 66.8184884 512.52280645 56.70016575 512.53406334 C42.21169012 512.55028904 27.72348324 512.5834315 13.23510891 512.64046419 C3.04212811 512.67921584 -7.15078099 512.69870241 -17.34383351 512.7039839 C-23.42808455 512.70763101 -29.51204891 512.71958418 -35.59622002 512.75208664 C-41.32628169 512.78225778 -47.05588458 512.78844663 -52.78600883 512.77670288 C-54.8817313 512.77648288 -56.97747561 512.78472618 -59.07312393 512.80235672 C-76.14376259 512.93807682 -88.41750361 510.76644561 -101.26342773 498.61083984 C-108.47496174 490.971818 -112.70748085 481.19249701 -112.72856712 470.77115726 C-112.73121895 470.12547789 -112.73387078 469.47979852 -112.73660296 468.81455311 C-112.74428748 466.64206557 -112.74485481 464.46963463 -112.74545288 462.2971344 C-112.74946808 460.72727234 -112.7539064 459.15741131 -112.75873244 457.58755153 C-112.77069769 453.26628646 -112.77634629 448.94503254 -112.78091359 444.62375414 C-112.78686997 439.9657198 -112.79847983 435.3076988 -112.8092041 430.64967346 C-112.83372884 419.39571498 -112.84835617 408.14175208 -112.86126417 396.88777509 C-112.86497631 393.70870627 -112.86894953 390.52963788 -112.87301683 387.35056949 C-112.89825556 367.60640348 -112.92030739 347.86223678 -112.93274498 328.1180582 C-112.93567465 323.54444438 -112.93863632 318.97083057 -112.94165039 314.3972168 C-112.94239644 313.260474 -112.94314249 312.12373119 -112.94391115 310.95254164 C-112.95656023 292.54486365 -112.98977709 274.13728236 -113.03145222 255.72964955 C-113.07389525 236.82774207 -113.09744283 217.92588406 -113.10266554 199.02392906 C-113.10607716 188.41253448 -113.11780289 177.80129095 -113.15076828 167.18994331 C-113.17880258 158.15107356 -113.1897533 149.11238582 -113.17857282 140.07347596 C-113.17339468 135.46421066 -113.17621788 130.85532632 -113.20103836 126.24611664 C-113.22360712 122.0196332 -113.22273232 117.7938027 -113.20383449 113.56730723 C-113.2010451 112.04498928 -113.20657358 110.52262633 -113.22164743 109.00038046 C-113.36199156 93.89391341 -109.42576834 82.5287829 -99.00952148 71.52099609 C-90.72863881 63.70352048 -80.71558506 60.01781739 -69.54467773 60.09521484 C-68.38787506 60.09733727 -68.38787506 60.09733727 -67.20770264 60.09950256 C-64.75227935 60.10508576 -62.29694831 60.11763514 -59.84155273 60.13037109 C-58.1735853 60.13538827 -56.50561644 60.1399508 -54.83764648 60.14404297 C-50.75557986 60.15504968 -46.67358192 60.17230273 -42.59155273 60.19287109 C-42.61773682 59.50362549 -42.6439209 58.81437988 -42.67089844 58.10424805 C-43.21514659 41.60732864 -43.61442669 28.28328314 -32.39233398 15.11474609 C-23.54835234 5.67604985 -13.01351153 0.07772387 0 0 Z " fill="#5ECEF4" transform="translate(143.591552734375,-0.19287109375)"/>
<path d="M0 0 C35.46439042 0 64.8693903 12.58660378 90.5 37.125 C113.61654661 60.8021476 125.22242512 91.55748838 125.25 124.4375 C125.25067474 125.15686737 125.25134949 125.87623474 125.25204468 126.61740112 C125.23649018 137.03528005 124.90178729 146.90224828 122 157 C121.6596875 158.22589844 121.319375 159.45179688 120.96875 160.71484375 C111.18657625 192.73824363 89.03438156 220.27208122 59.625 236.3125 C48.78989621 241.95531098 37.32974606 245.68305891 25.4375 248.375 C24.37837402 248.62685059 24.37837402 248.62685059 23.29785156 248.88378906 C15.31159557 250.54266592 8.58219713 250 0 250 C0 231.85 0 213.7 0 195 C2.97 194.01 5.94 193.02 9 192 C12.75463157 188.24536843 14.13999735 184.94429133 14.3125 179.6875 C14.244793 175.06085507 13.16491776 172.498067 10 169 C6.60821712 166.95079785 3.85857346 165.96464337 0 165 C0 158.4 0 151.8 0 145 C2.97 144.01 5.94 143.02 9 142 C13.57381068 137.42618932 14.12542494 133.71318202 14.17700195 127.4206543 C14.18357315 126.7568576 14.19014435 126.09306091 14.19691467 125.40914917 C14.21661179 123.21417115 14.22830216 121.01926144 14.23828125 118.82421875 C14.24235678 118.07321207 14.2464323 117.32220539 14.25063133 116.54844093 C14.27147676 112.57339377 14.28578507 108.59838098 14.29516602 104.62329102 C14.30622759 100.52421572 14.34062833 96.42568369 14.38033772 92.32680035 C14.40652063 89.16885896 14.41485929 86.01104674 14.41844749 82.85300636 C14.42330914 81.34236799 14.43491121 79.83173523 14.45348549 78.32120323 C14.47791455 76.2028775 14.47690616 74.08595366 14.4699707 71.9675293 C14.47583694 70.76412399 14.48170319 69.56071869 14.48774719 68.32084656 C13.89619504 64.2932397 12.53795919 62.14910787 10 59 C6.60821712 56.95079785 3.85857346 55.96464337 0 55 C0 36.85 0 18.7 0 0 Z " fill="#C9001C" transform="translate(356,131)"/>
<path d="M0 0 C1.44779157 -0.00542597 2.89557761 -0.01255129 4.34335327 -0.02124023 C8.26077786 -0.03942042 12.17777939 -0.03242827 16.09521103 -0.01972389 C20.20256405 -0.00956857 24.30988182 -0.01899659 28.41723633 -0.02526855 C35.3137052 -0.03253761 42.21000251 -0.02297681 49.10644531 -0.00390625 C57.06990592 0.01786116 65.03295683 0.01080926 72.99640751 -0.01121187 C79.84419533 -0.02938709 86.69186011 -0.03191386 93.53966427 -0.0214572 C97.62495065 -0.01523389 101.71004472 -0.01435446 105.7953186 -0.02760315 C109.63685832 -0.03919207 113.47787189 -0.0310811 117.31935501 -0.00802612 C118.72578688 -0.00275516 120.13226333 -0.00422516 121.53867722 -0.01307678 C134.84564389 -0.08908059 134.84564389 -0.08908059 140.73046875 4.51757812 C145.2335979 10.2608054 145.31991536 15.32613823 145.26171875 22.45507812 C145.26554565 23.49398193 145.26937256 24.53288574 145.27331543 25.60327148 C145.27602792 27.79183933 145.2687134 29.98043996 145.25195312 32.16894531 C145.23053501 35.50724992 145.25177845 38.84340247 145.27734375 42.18164062 C145.27470036 44.31445785 145.26957514 46.44727374 145.26171875 48.58007812 C145.26981567 49.57193115 145.2779126 50.56378418 145.28625488 51.58569336 C145.2033472 57.75264775 144.58229936 61.60500781 140.73046875 66.51757812 C134.19869377 71.63067135 127.46210432 71.08551362 119.4609375 71.03515625 C118.01314593 71.04058222 116.56535989 71.04770754 115.11758423 71.05639648 C111.20015964 71.07457667 107.28315811 71.06758452 103.36572647 71.05488014 C99.25837345 71.04472482 95.15105568 71.05415284 91.04370117 71.0604248 C84.1472323 71.06769386 77.25093499 71.05813306 70.35449219 71.0390625 C62.39103158 71.01729509 54.42798067 71.02434699 46.46452999 71.04636812 C39.61674217 71.06454334 32.76907739 71.06707011 25.92127323 71.05661345 C21.83598685 71.05039014 17.75089278 71.04951071 13.6656189 71.0627594 C9.82407918 71.07434832 5.98306561 71.06623735 2.14158249 71.04318237 C0.73515062 71.03791141 -0.67132583 71.03938141 -2.07773972 71.04823303 C-15.46930225 71.12472002 -15.46930225 71.12472002 -21.26953125 66.51757812 C-25.92770325 61.19257487 -25.85719674 54.42356113 -25.80078125 47.70117188 C-25.80460815 46.68587906 -25.80843506 45.67058624 -25.81237793 44.62452698 C-25.81508713 42.48901369 -25.80779588 40.35346666 -25.79101562 38.21801758 C-25.76957021 34.96099547 -25.79086343 31.70617345 -25.81640625 28.44921875 C-25.81376323 26.36653162 -25.8086388 24.28384586 -25.80078125 22.20117188 C-25.80887817 21.23432968 -25.8169751 20.26748749 -25.82531738 19.27134705 C-25.74117408 13.16763107 -25.06794743 9.38709521 -21.26953125 4.51757812 C-14.73921605 -0.59672043 -8.00037302 -0.05035238 0 0 Z " fill="#C9001C" transform="translate(116.26953125,380.482421875)"/>
<path d="M0 0 C1.61455078 0.77923828 1.61455078 0.77923828 3.26171875 1.57421875 C12.05351875 5.78377905 20.8265856 9.68161705 30 13 C30.11623403 25.94414821 30.20488768 38.88817072 30.25906086 51.83273602 C30.28507117 57.84448976 30.32031244 63.85588447 30.37719727 69.86743164 C30.43182271 75.677061 30.46148485 81.48634664 30.47438622 87.29621315 C30.48357146 89.50443743 30.50150721 91.71264449 30.52865028 93.92072105 C30.73782477 111.65429916 29.07246078 124.2987328 16.41796875 137.671875 C9.52497444 144.17912997 -0.09083886 149.13117484 -9.65704346 149.12025452 C-10.58809906 149.12162918 -11.51915466 149.12300385 -12.47842407 149.12442017 C-13.49262421 149.12082489 -14.50682434 149.11722961 -15.55175781 149.11352539 C-17.16197311 149.11374443 -17.16197311 149.11374443 -18.80471802 149.1139679 C-22.35420754 149.11327103 -25.90364464 149.10548914 -29.453125 149.09765625 C-31.91363496 149.09579127 -34.3741453 149.09436774 -36.83465576 149.09336853 C-43.31194076 149.08954967 -49.78920335 149.07972472 -56.26647949 149.06866455 C-62.87556658 149.0584369 -69.48465728 149.053868 -76.09375 149.04882812 C-89.06251143 149.03810192 -102.03125035 149.02051019 -115 149 C-115 139.1 -115 129.2 -115 119 C-110.32142822 118.97812622 -110.32142822 118.97812622 -105.54833984 118.95581055 C-95.24250152 118.90547147 -84.9368144 118.83887745 -74.6311245 118.76428509 C-68.38283961 118.71955951 -62.13462025 118.68030798 -55.88623047 118.65356445 C-49.85608179 118.62755365 -43.82618501 118.58716643 -37.79619217 118.53681374 C-35.49574543 118.52013009 -33.1952551 118.50862516 -30.89475632 118.50238609 C-27.67224475 118.49276159 -24.45037984 118.46472091 -21.22802734 118.43237305 C-20.27712219 118.43380814 -19.32621704 118.43524323 -18.34649658 118.4367218 C-13.15000241 118.36296098 -9.49500743 117.90332712 -5 115 C-1.76919815 111.43497726 -0.88030965 108.27808718 -0.84178162 103.53913879 C-0.8319928 102.62628616 -0.82220398 101.71343353 -0.81211853 100.7729187 C-0.80636307 99.77382477 -0.8006076 98.77473083 -0.79467773 97.74536133 C-0.78477814 96.69153763 -0.77487854 95.63771393 -0.76467896 94.55195618 C-0.73304294 91.06200421 -0.70829812 87.57203861 -0.68359375 84.08203125 C-0.66302605 81.66492861 -0.64202962 79.24782959 -0.62062073 76.83073425 C-0.56538114 70.46362225 -0.51598014 64.0964777 -0.46777344 57.72930908 C-0.41757222 51.23422339 -0.36187895 44.73918508 -0.30664062 38.24414062 C-0.19903595 25.49613449 -0.09740964 12.74808791 0 0 Z " fill="#4895FE" transform="translate(291,363)"/>
<path d="M0 0 C5.45994864 -0.11573137 10.91552745 -0.21497079 16.37573242 -0.2746582 C18.22711725 -0.29957482 20.07840608 -0.33352129 21.92944336 -0.37719727 C38.87215204 -0.76652688 50.941152 1.53543588 63.671875 13.58203125 C70.65552363 20.97965905 75.14944573 30.70863687 75.09765625 40.859375 C75.09282227 42.53193359 75.09282227 42.53193359 75.08789062 44.23828125 C75.07532227 45.97658203 75.07532227 45.97658203 75.0625 47.75 C75.05798828 48.92433594 75.05347656 50.09867188 75.04882812 51.30859375 C75.03705094 54.20578072 75.02060326 57.10286454 75 60 C75.99217529 59.97381592 76.98435059 59.94763184 78.0065918 59.9206543 C81.75065817 59.82893215 85.49462942 59.77231712 89.23950195 59.7253418 C90.84839675 59.70047108 92.45718192 59.66656111 94.06567383 59.62280273 C110.08939908 59.19836626 121.69817678 62.25177943 133.671875 73.58203125 C139.99839959 80.28358178 145.1423704 89.8719916 145.11352539 99.21777344 C145.11344986 100.03832214 145.11337433 100.85887085 145.11329651 101.70428467 C145.10813522 102.58046448 145.10297394 103.45664429 145.09765625 104.359375 C145.09553383 105.71594208 145.09553383 105.71594208 145.09336853 107.09991455 C145.08777911 109.98331027 145.07522853 112.86662782 145.0625 115.75 C145.05748363 117.70703013 145.05292096 119.66406147 145.04882812 121.62109375 C145.03781313 126.41409253 145.02055574 131.20703302 145 136 C143.54736328 136.57137044 142.09472656 137.14274089 140.64208984 137.71411133 C139.78395691 138.05181549 138.92582397 138.38951965 138.04168701 138.73745728 C136.27427059 139.43226016 134.50583624 140.12447527 132.73681641 140.81518555 C131.94968262 141.1275415 131.16254883 141.43989746 130.3515625 141.76171875 C129.56604004 142.07069092 128.78051758 142.37966309 127.97119141 142.69799805 C123.56349765 144.62948784 119.29009782 146.82194782 115 149 C114.99453156 148.09917191 114.99453156 148.09917191 114.98895264 147.18014526 C114.94707548 140.91788318 114.87769322 134.65635044 114.79248047 128.39453125 C114.76429071 126.05899355 114.7430663 123.7233608 114.72900391 121.38769531 C114.70754754 118.02619841 114.66088094 114.66584193 114.609375 111.3046875 C114.60814636 110.26384003 114.60691772 109.22299255 114.60565186 108.15060425 C114.48867041 102.33337602 114.17277719 98.42997929 110 94 C104.78547527 90.2674566 99.50917667 90.57470915 93.34375 90.59375 C91.81300842 90.57749573 91.81300842 90.57749573 90.25134277 90.56091309 C87.00083023 90.52673641 83.75066838 90.51107471 80.5 90.5 C76.21841377 90.48541305 71.93760749 90.45171185 67.65625 90.40625 C66.67797241 90.40927124 65.69969482 90.41229248 64.69177246 90.41540527 C58.62928236 90.34886025 54.0704777 89.73498608 49.35546875 85.53515625 C44.92314315 79.9465718 44.86181595 75.67727084 44.82421875 68.7265625 C44.80102223 67.08071635 44.77690496 65.43488297 44.75195312 63.7890625 C44.71685848 61.20629286 44.68749478 58.62399465 44.67407227 56.04101562 C44.6585471 53.53979144 44.61831769 51.03992524 44.57421875 48.5390625 C44.57612717 47.7732486 44.57803558 47.00743469 44.58000183 46.21841431 C44.46340305 41.07532207 43.51834754 37.99169584 40 34 C35.46965575 30.96219855 31.29991488 30.53600661 25.9765625 30.48828125 C25.23038666 30.47033005 24.48421082 30.45237885 23.71542358 30.43388367 C21.3520051 30.38006895 18.98878514 30.34597933 16.625 30.3125 C15.01429546 30.27930128 13.40361702 30.24480928 11.79296875 30.20898438 C7.86195521 30.1219434 3.9318209 30.06163395 0 30 C0 20.1 0 10.2 0 0 Z " fill="#4895FE" transform="translate(176,0)"/>
<path d="M0 0 C0.72278641 -0.00058411 1.44557281 -0.00116821 2.19026184 -0.00177002 C4.55516309 0.00099415 6.91876904 0.03200395 9.28344727 0.06347656 C10.93253389 0.07094496 12.58162944 0.07663506 14.23072815 0.08062744 C18.55293655 0.09583681 22.8745999 0.13507729 27.19659424 0.17944336 C32.39200325 0.22772716 37.5875954 0.24595251 42.78316498 0.26925659 C50.65993924 0.30793197 58.53551959 0.38461712 66.41235352 0.45410156 C66.41235352 23.55410156 66.41235352 46.65410156 66.41235352 70.45410156 C48.22523675 70.6145368 48.22523675 70.6145368 40.44946289 70.64941406 C35.15169166 70.67328948 29.854198 70.70147897 24.55664062 70.75585938 C20.28371712 70.79944528 16.01109144 70.82326552 11.73796272 70.83361053 C10.11091489 70.84097912 8.48388263 70.85536834 6.8569622 70.87702179 C4.57095492 70.90622653 2.28616499 70.91005065 0 70.90820312 C-1.29905777 70.91708557 -2.59811554 70.92596802 -3.9365387 70.93511963 C-8.94208867 70.27565951 -12.71432188 68.59559819 -16.12756348 64.69374084 C-18.84106044 59.00036935 -19.17137328 53.89075567 -19.11889648 47.63769531 C-19.12272339 46.6224025 -19.12655029 45.60710968 -19.13049316 44.56105042 C-19.13320236 42.42553713 -19.12591112 40.28999009 -19.10913086 38.15454102 C-19.08768545 34.89751891 -19.10897867 31.64269689 -19.13452148 28.38574219 C-19.13187847 26.30305506 -19.12675403 24.22036929 -19.11889648 22.13769531 C-19.12699341 21.17085312 -19.13509033 20.20401093 -19.14343262 19.20787048 C-19.05928932 13.1041545 -18.38606266 9.32361865 -14.58764648 4.45410156 C-9.50981799 0.99389853 -6.26674756 -0.04284956 0 0 Z " fill="#FF405C" transform="translate(109.587646484375,380.5458984375)"/>
<path d="M0 0 C3.5677811 2.35149209 5.84221079 4.99692157 7.75 8.8125 C7.85725116 10.96577324 7.89889871 13.12241243 7.91113281 15.27832031 C7.91609772 15.94197098 7.92106262 16.60562164 7.92617798 17.28938293 C7.94080823 19.48980745 7.94760416 21.69015979 7.953125 23.890625 C7.95887721 25.42038983 7.96463493 26.95015464 7.97039795 28.47991943 C7.98091139 31.69120622 7.98675132 34.90246795 7.99023438 38.11376953 C7.99570977 42.2206213 8.0197156 46.32713997 8.04820633 50.43388748 C8.06687178 53.5961197 8.07204045 56.75827247 8.07357025 59.92055511 C8.07659018 61.4339657 8.08459643 62.94737511 8.09775543 64.46073151 C8.11489294 66.5837753 8.11291711 68.70601584 8.10644531 70.82910156 C8.11009094 72.03552307 8.11373657 73.24194458 8.11749268 74.48492432 C7.56562963 79.48193835 5.92690029 82.72386723 2.25 86.125 C-2.03756121 89.01910382 -6.19559487 89.45359183 -11.25 88.8125 C-15.60581119 87.43374525 -17.85928443 85.38991326 -20.41992188 81.60571289 C-23.38465779 75.30884766 -22.82536855 68.43428678 -22.78125 61.62109375 C-22.78394942 60.14713791 -22.78783558 58.67318381 -22.79284668 57.19923401 C-22.79871883 54.12198805 -22.79025227 51.04520894 -22.77148438 47.96801758 C-22.74867521 44.03832385 -22.76184363 40.10972194 -22.78577423 36.18006802 C-22.80027749 33.14040504 -22.79560605 30.10099796 -22.78526306 27.06132698 C-22.78260928 25.61295502 -22.78581774 24.16455926 -22.79518127 22.71621513 C-22.86575222 8.73739195 -22.86575222 8.73739195 -18.25 2.8125 C-13.03108336 -2.1454708 -6.565322 -2.39886766 0 0 Z " fill="#E1E9EF" transform="translate(363.25,187.1875)"/>
<path d="M0 0 C0 29.7 0 59.4 0 90 C-8.4 88.8 -8.4 88.8 -12 85 C-16.10473905 78.11839784 -15.45474418 70.70376742 -15.43359375 62.90625 C-15.43816114 61.43086508 -15.44346836 59.95548229 -15.44947815 58.48010254 C-15.45838398 55.39696577 -15.45601461 52.31408839 -15.44604492 49.23095703 C-15.43454863 45.29342689 -15.45478864 41.35679271 -15.48396206 37.41938019 C-15.50236623 34.37545147 -15.50202347 31.33173593 -15.49632454 28.2877655 C-15.49617189 26.836591 -15.50216942 25.38540153 -15.51461601 23.9342804 C-15.6181243 9.89175323 -15.6181243 9.89175323 -11 4 C-7.6289837 1.05036074 -4.51478905 0 0 0 Z " fill="#FFF3F4" transform="translate(356,186)"/>
<path d="M0 0 C3.5677811 2.35149209 5.84221079 4.99692157 7.75 8.8125 C8.34106487 14.49581608 8.02243416 18.96027003 4.75 23.8125 C0.35628126 27.87668983 -3.08164815 29.20423138 -9.125 29.08203125 C-12.81382866 28.61414673 -15.49620094 27.30137661 -18.25 24.8125 C-21.68120373 20.14646779 -23.09383459 15.61386278 -22.25 9.8125 C-20.50656517 4.92262954 -17.83049481 1.78115588 -13.17578125 -0.53125 C-8.56339171 -2.10301763 -4.58443247 -1.67508109 0 0 Z " fill="#E1E7EC" transform="translate(363.25,297.1875)"/>
<path d="M0 0 C0 9.9 0 19.8 0 30 C-8.4 28.8 -8.4 28.8 -12 25 C-14.61960863 20.2124394 -15.67958649 16.4366919 -15 11 C-13.4875308 6.72367341 -11.37995235 3.93219133 -7.5 1.5625 C-4 0 -4 0 0 0 Z " fill="#FFF1F1" transform="translate(356,296)"/>
</svg>
