<?xml version="1.0" encoding="UTF-8"?>
<svg version="1.1" xmlns="http://www.w3.org/2000/svg" width="512" height="512">
<path d="M0 0 C2.99095158 2.6950553 5.90766604 5.45509062 8.796875 8.2578125 C9.38710449 8.82226074 9.97733398 9.38670898 10.58544922 9.96826172 C19.48830228 18.50408141 27.4862392 27.32409143 34.796875 37.2578125 C35.74433594 38.53011719 35.74433594 38.53011719 36.7109375 39.828125 C70.98540547 87.24896424 84.66245341 146.99637109 75.56567383 204.640625 C67.25305405 252.99466361 47.45226787 294.5388773 13.796875 330.2578125 C13.06855469 331.04027344 12.34023438 331.82273437 11.58984375 332.62890625 C-22.08041123 367.67345735 -72.44766017 388.4374252 -120.203125 393.2578125 C-121.15703125 393.36867188 -122.1109375 393.47953125 -123.09375 393.59375 C-182.73907326 399.49449054 -243.85017874 382.33612773 -290.54443359 344.63916016 C-295.63257309 340.40178994 -300.42772987 335.84065137 -305.203125 331.2578125 C-306.028125 330.4740625 -306.853125 329.6903125 -307.703125 328.8828125 C-344.00751962 293.58687329 -362.28217253 244.45154801 -369.203125 195.2578125 C-369.3069751 194.56510254 -369.4108252 193.87239258 -369.51782227 193.15869141 C-376.72942024 138.88021949 -359.94971427 81.72914302 -327.703125 37.9453125 C-326.21785694 36.03791563 -324.7177485 34.14198332 -323.203125 32.2578125 C-322.04683594 30.79601562 -322.04683594 30.79601562 -320.8671875 29.3046875 C-307.92632933 13.28521904 -293.02701343 -0.89163295 -276.203125 -12.7421875 C-275.59082031 -13.18320801 -274.97851562 -13.62422852 -274.34765625 -14.07861328 C-193.71428858 -71.95185737 -78.95826744 -65.32081243 0 0 Z M-228.578125 87.8828125 C-230.37980421 90.51603597 -230.94624337 92.09098571 -231.203125 95.2578125 C-230.05603912 97.34892803 -230.05603912 97.34892803 -228.19494629 99.13885498 C-227.21767326 100.17191898 -227.21767326 100.17191898 -226.22065735 101.22585297 C-225.55487167 101.89639961 -224.889086 102.56694626 -224.203125 103.2578125 C-223.63986008 103.83907143 -223.07659515 104.42033035 -222.4962616 105.01920319 C-220.7948294 106.75377198 -219.06870353 108.45987892 -217.33398438 110.16113281 C-216.68762024 110.79961151 -216.0412561 111.43809021 -215.37530518 112.09591675 C-213.9877401 113.46642955 -212.59911669 114.83587155 -211.20951843 116.20432281 C-208.25662201 119.11485225 -205.31328782 122.03497329 -202.36930084 124.95450974 C-196.90130448 130.376868 -191.4293889 135.79512946 -185.94140625 141.19726562 C-182.11009146 144.96937465 -178.29094258 148.75342471 -174.47969055 152.54579926 C-173.0264461 153.98727476 -171.56866998 155.42419615 -170.10636902 156.85648346 C-168.07170123 158.85038106 -166.05287819 160.85909449 -164.03710938 162.87207031 C-163.42736267 163.46226959 -162.81761597 164.05246887 -162.18939209 164.66055298 C-160.54138184 166.32501221 -160.54138184 166.32501221 -158.203125 169.2578125 C-158.49448862 172.51367783 -159.72707539 174.14741347 -162.01881409 176.38716125 C-162.91698349 177.27634247 -162.91698349 177.27634247 -163.83329773 178.18348694 C-164.82375847 179.14127296 -164.82375847 179.14127296 -165.83422852 180.1184082 C-166.52687805 180.80025177 -167.21952759 181.48209534 -167.9331665 182.18460083 C-169.43821689 183.66483829 -170.94655747 185.14173607 -172.45776558 186.61568642 C-174.84805513 188.94923727 -177.22717397 191.29363706 -179.60325623 193.64164734 C-186.3603287 200.31615333 -193.13227748 206.97531707 -199.92358398 213.61499023 C-204.07634129 217.67656421 -208.21189952 221.75499403 -212.33714104 225.8445034 C-213.91313726 227.40001747 -215.49567925 228.9489282 -217.08477974 230.49105263 C-219.30653838 232.64793749 -221.50585237 234.82553486 -223.70141602 237.0090332 C-224.36374741 237.64148453 -225.0260788 238.27393585 -225.70848083 238.92555237 C-228.85177935 242.09673726 -230.10239531 243.50406318 -230.71104431 248.05851746 C-230.42604824 251.29080627 -230.42604824 251.29080627 -228.578125 253.6953125 C-225.38285665 255.79746273 -223.99585038 255.84908622 -220.203125 255.2578125 C-217.41907744 253.34957803 -215.16284326 250.97511165 -212.82080078 248.55664062 C-212.10791397 247.84462997 -211.39502716 247.13261932 -210.66053772 246.39903259 C-208.30866955 244.04298566 -205.97876217 241.66640396 -203.6484375 239.2890625 C-202.02164656 237.65108067 -200.39352549 236.01441891 -198.76412964 234.37902832 C-194.47973072 230.07172363 -190.21365417 225.74670541 -185.95111084 221.41778564 C-181.59809578 217.00338775 -177.22804008 212.60593208 -172.859375 208.20703125 C-164.29050172 199.57381415 -155.74088405 190.92179327 -147.203125 182.2578125 C-144.3211842 183.56220339 -142.27926434 184.93991011 -140.06704712 187.1937561 C-139.17569817 188.0939875 -139.17569817 188.0939875 -138.26634216 189.0124054 C-137.6262471 189.66911728 -136.98615204 190.32582916 -136.32666016 191.00244141 C-135.6432103 191.69523697 -134.95976044 192.38803253 -134.25559998 193.1018219 C-132.77319966 194.60521218 -131.29297858 196.11075368 -129.81468582 197.61818314 C-127.47488163 200.00200645 -125.12723479 202.377827 -122.77694702 204.75131226 C-116.09572629 211.49975788 -109.42273338 218.25616489 -102.77050781 225.03320312 C-98.70037009 229.17856354 -94.61580454 233.30922374 -90.52155685 237.43076706 C-88.96347011 239.00498016 -87.41096017 240.58473304 -85.86415482 242.1700325 C-83.70245801 244.38458478 -81.52292803 246.57999359 -79.33837891 248.77197266 C-78.70233231 249.432733 -78.06628571 250.09349335 -77.41096497 250.77427673 C-73.77351715 254.39529827 -73.77351715 254.39529827 -68.90560913 255.76083374 C-66.12005658 255.42291584 -66.12005658 255.42291584 -63.828125 253.6953125 C-61.52485164 250.24040246 -61.64655342 248.36640863 -62.203125 244.2578125 C-64.04554794 241.4372791 -66.39509278 239.23144163 -68.82836914 236.91723633 C-69.53223251 236.22038223 -70.23609589 235.52352814 -70.96128845 234.80555725 C-72.48901947 233.29774188 -74.02487058 231.7981195 -75.56779671 230.3058567 C-78.00720599 227.94654037 -80.42494669 225.56683425 -82.83824158 223.18083191 C-87.09043455 218.98368975 -91.36100873 214.80582954 -95.63787842 210.6338501 C-102.49066459 203.94851175 -109.32760223 197.24743842 -116.14089775 190.52185631 C-118.52964465 188.17312626 -120.9336044 185.84076934 -123.33888245 183.50898743 C-124.79567736 182.07673498 -126.25184335 180.64384244 -127.70727539 179.21020508 C-128.38412384 178.56233032 -129.06097229 177.91445557 -129.7583313 177.24694824 C-130.36277573 176.64574661 -130.96722015 176.04454498 -131.58998108 175.42512512 C-132.38779291 174.64786434 -132.38779291 174.64786434 -133.20172215 173.85490131 C-134.203125 172.2578125 -134.203125 172.2578125 -134.04242706 170.25543976 C-133.10409476 168.0221101 -132.11613832 166.81794841 -130.38743591 165.12846375 C-129.48926651 164.23928253 -129.48926651 164.23928253 -128.57295227 163.33213806 C-127.58249153 162.37435204 -127.58249153 162.37435204 -126.57202148 161.3972168 C-125.87937195 160.71537323 -125.18672241 160.03352966 -124.4730835 159.33102417 C-122.96803311 157.85078671 -121.45969253 156.37388893 -119.94848442 154.89993858 C-117.55819487 152.56638773 -115.17907603 150.22198794 -112.80299377 147.87397766 C-106.0459213 141.19947167 -99.27397252 134.54030793 -92.48266602 127.90063477 C-88.32990871 123.83906079 -84.19435048 119.76063097 -80.06910896 115.6711216 C-78.49311274 114.11560753 -76.91057075 112.5666968 -75.32147026 111.02457237 C-73.09971162 108.86768751 -70.90039763 106.69009014 -68.70483398 104.5065918 C-68.04250259 103.87414047 -67.3801712 103.24168915 -66.69776917 102.59007263 C-63.56270287 99.427193 -62.30788537 97.99552887 -61.66395569 93.46101379 C-61.94327316 90.13104459 -61.94327316 90.13104459 -64.328125 87.7578125 C-68.03196281 85.82537538 -69.22436459 86.02636378 -73.203125 87.2578125 C-75.89382743 89.24246139 -78.1656342 91.58847728 -80.49365234 93.98071289 C-81.19678558 94.683116 -81.89991882 95.3855191 -82.62435913 96.10920715 C-84.94131161 98.42963797 -87.2400597 100.76726407 -89.5390625 103.10546875 C-91.14365162 104.71938499 -92.74934957 106.33219952 -94.35610962 107.94395447 C-98.57908012 112.18600216 -102.78681971 116.44285083 -106.99157715 120.70294189 C-111.28607894 125.04861938 -115.59479587 129.3801513 -119.90234375 133.71289062 C-128.34992167 142.21406916 -136.78147889 150.7309495 -145.203125 159.2578125 C-148.06177168 157.96154553 -150.09964017 156.60344551 -152.29450989 154.36656189 C-152.87888321 153.77626694 -153.46325653 153.18597198 -154.06533813 152.57778931 C-154.69451141 151.93199921 -155.32368469 151.28620911 -155.97192383 150.62084961 C-156.64401382 149.93941391 -157.31610382 149.25797821 -158.00856018 148.55589294 C-159.46640382 147.07705968 -160.92206788 145.59607531 -162.37580299 144.11320305 C-164.67806783 141.76690207 -166.98818747 139.42861887 -169.3009491 137.09266663 C-175.87557 130.4508436 -182.44200392 123.801104 -188.98754883 117.13061523 C-192.9928102 113.05004652 -197.01256793 108.98425169 -201.04199791 104.92755318 C-202.57414875 103.37929537 -204.10072656 101.82550179 -205.62156105 100.26612663 C-207.74946919 98.08524412 -209.89531412 95.92362834 -212.04614258 93.76538086 C-212.98079346 92.79365936 -212.98079346 92.79365936 -213.93432617 91.80230713 C-218.09791917 87.67634218 -222.92393029 84.01415296 -228.578125 87.8828125 Z " fill="#FF0000" transform="translate(402.203125,85.7421875)"/>
</svg>
