<?xml version="1.0" encoding="UTF-8"?>
<svg version="1.1" xmlns="http://www.w3.org/2000/svg" width="512" height="512">
<path d="M0 0 C0.94500846 -0.00367669 1.89001692 -0.00735338 2.863662 -0.01114148 C6.04414355 -0.02219318 9.22459244 -0.02602467 12.40509033 -0.02983093 C14.67986149 -0.03609442 16.95463163 -0.04274111 19.22940063 -0.04974365 C25.41957466 -0.06716302 31.60974096 -0.0777078 37.79993343 -0.08594918 C41.66562726 -0.09109695 45.53131868 -0.09717276 49.3970108 -0.10346031 C60.10119256 -0.12033036 70.80537092 -0.13496555 81.50956345 -0.14220905 C84.28691357 -0.14411892 87.06426368 -0.14603926 89.84161377 -0.147995 C90.53190372 -0.14847874 91.22219367 -0.14896248 91.9334015 -0.14946087 C103.11562381 -0.15776118 114.29773915 -0.18309859 125.47991475 -0.21557567 C136.96210863 -0.24865208 148.44422269 -0.26632557 159.92646909 -0.26985329 C166.37266893 -0.27220641 172.81869967 -0.28120119 179.26485443 -0.30631447 C185.32889048 -0.32955724 191.39264562 -0.33384354 197.45671463 -0.32355309 C199.68234058 -0.32305671 201.90798017 -0.32940701 204.133564 -0.34310913 C207.1725512 -0.36077218 210.21052419 -0.35374892 213.24951172 -0.34057617 C214.12977547 -0.35154542 215.01003923 -0.36251466 215.91697764 -0.37381631 C221.72680818 -0.31303674 225.11228587 0.7725105 229.87872314 4.14717102 C233.51338925 8.7383282 234.99966896 12.40100862 235.01015091 18.18056965 C235.01399205 18.97843114 235.0178332 19.77629264 235.02179074 20.59833175 C235.02092426 21.46904176 235.02005778 22.33975176 235.01916504 23.23684692 C235.02362172 24.63113994 235.02362172 24.63113994 235.02816844 26.05360049 C235.03685651 29.17570143 235.03836378 32.29776402 235.03985596 35.4198761 C235.04448402 37.65538617 235.04950866 39.89089545 235.05490112 42.12640381 C235.06802748 48.20495519 235.07447044 54.28349553 235.07891178 60.36205888 C235.08184187 64.15857673 235.08594654 67.95509156 235.09041595 71.75160789 C235.10252412 82.2662493 235.11290662 92.78088892 235.11629105 103.29553699 C235.11651061 103.96825094 235.11673018 104.64096489 235.1169564 105.33406411 C235.11717468 106.00837163 235.11739295 106.68267916 235.11761785 107.37742025 C235.11806131 108.74378574 235.11850787 110.11015123 235.11895752 111.47651672 C235.11917895 112.15427871 235.11940038 112.8320407 235.11962852 113.53034093 C235.12357638 124.51201679 235.1410309 135.49362628 235.16431704 146.47527651 C235.18803999 157.7540918 235.20023541 169.03287495 235.20165896 180.31171912 C235.2027078 186.64273543 235.20863259 192.97365811 235.22647858 199.30465126 C235.24293775 205.2595046 235.24512515 211.21419371 235.23633957 217.16906166 C235.23556807 219.3543695 235.23992675 221.53968609 235.24979782 223.72497177 C235.26248628 226.70902541 235.25665715 229.69249468 235.24621582 232.67654419 C235.25830043 233.97257095 235.25830043 233.97257095 235.27062917 235.29478008 C235.22073592 241.3948076 234.30003969 246.3269833 230.19512939 251.10810852 C229.61634033 251.57474915 229.03755127 252.04138977 228.44122314 252.52217102 C227.86501221 253.0042804 227.28880127 253.48638977 226.69512939 253.98310852 C223.58353808 255.9772036 220.48536905 256.27199697 216.84811783 256.27859879 C215.65225064 256.2843605 215.65225064 256.2843605 214.43222451 256.29023862 C213.12718268 256.2889389 213.12718268 256.2889389 211.79577637 256.28761292 C210.4025417 256.2920696 210.4025417 256.2920696 208.98116088 256.29661632 C205.86139391 256.30530442 202.74166532 256.30681166 199.62188721 256.30830383 C197.38799965 256.31293193 195.15411289 256.31795657 192.92022705 256.323349 C186.84574062 256.33647582 180.77126525 256.34291851 174.69676685 256.34735966 C170.90225132 256.35028992 167.10773881 256.35439464 163.31322479 256.35886383 C152.8028746 256.37097253 142.2925262 256.38135464 131.78216934 256.38473892 C131.10970696 256.38495849 130.43724457 256.38517805 129.74440454 256.38540427 C129.07035247 256.38562255 128.39630041 256.38584083 127.70182252 256.38606572 C126.33598471 256.38650918 124.97014689 256.38695575 123.60430908 256.3874054 C122.9268094 256.38762683 122.24930973 256.38784826 121.55127975 256.38807639 C110.57674595 256.39202325 99.6022786 256.40947444 88.62777045 256.43276492 C77.3546004 256.45649568 66.0814625 256.46868373 54.80826354 256.47010684 C48.48112771 256.47115525 42.1540856 256.47707089 35.82697296 256.49492645 C29.87457883 256.51139759 23.92234897 256.51356718 17.96994019 256.50478745 C15.78666494 256.50401656 13.6033809 256.50836648 11.42012787 256.5182457 C8.43642451 256.53095387 5.45330396 256.52509426 2.46960449 256.5146637 C1.60849949 256.5227201 0.74739449 256.53077651 -0.1398046 256.53907704 C-6.04144342 256.49092544 -12.104734 255.87954454 -16.68513083 251.73063779 C-21.31366813 246.39510382 -21.26828578 241.76344512 -21.26171875 235.01916504 C-21.26617543 233.600594 -21.26617543 233.600594 -21.27072215 232.15336496 C-21.2794241 228.97054601 -21.28091866 225.78776461 -21.28240967 222.60493469 C-21.28703676 220.32854125 -21.29206128 218.05214859 -21.29745483 215.77575684 C-21.31059085 209.58151458 -21.31702608 203.38728317 -21.32146549 197.19302917 C-21.32439414 193.3253329 -21.32849854 189.45763961 -21.33296967 185.58994484 C-21.34507975 174.8814703 -21.35546152 164.1729994 -21.35884476 153.46451855 C-21.35906432 152.77914747 -21.35928389 152.0937764 -21.35951011 151.3876365 C-21.35972839 150.70062562 -21.35994666 150.01361475 -21.36017156 149.30578536 C-21.36061502 147.91363982 -21.36106159 146.52149429 -21.36151123 145.12934875 C-21.36173266 144.43879649 -21.36195409 143.74824424 -21.36218223 143.03676615 C-21.36613022 131.84742288 -21.38358435 120.65814473 -21.40687075 109.46882661 C-21.43058544 97.9809912 -21.44278868 86.49319775 -21.44421268 75.00533658 C-21.44526207 68.55528943 -21.4511986 62.10533413 -21.46903229 55.65530968 C-21.48547886 49.5888481 -21.48768503 43.52254774 -21.47889328 37.45607185 C-21.47812109 35.22841842 -21.48248947 33.00075643 -21.49235153 30.77312469 C-21.50501832 27.73393248 -21.49922269 24.69531582 -21.48876953 21.65612793 C-21.49682594 20.77295133 -21.50488234 19.88977474 -21.51318288 18.97983521 C-21.46709509 13.25723314 -20.6309405 8.89865121 -16.62127686 4.50263977 C-11.03982366 0.1566645 -6.86385756 -0.00142314 0 0 Z " fill="#FDC100" transform="translate(36.12127685546875,243.8528289794922)"/>
<path d="M0 0 C3.29996724 3.3395352 3.48153906 6.3647161 3.875 10.9375 C5.48769317 25.47654919 11.56904868 37.82698975 22.8125 47.375 C34.70580851 56.27674011 46.85137549 58.30147333 61.35986328 58.27124023 C63.37616321 58.27926385 65.39246313 58.28728985 67.40876269 58.29540551 C69.56083022 58.30222956 71.71285526 58.30425854 73.86493301 58.30496025 C78.37290343 58.30691557 82.88072311 58.32505019 87.38864136 58.34571838 C98.58792975 58.39471562 109.78725893 58.42570388 120.9866333 58.44702148 C129.69022484 58.46361535 138.39368607 58.48663151 147.09719074 58.53004223 C151.56305602 58.55161836 156.02867252 58.55989536 160.49458623 58.55764949 C163.29347163 58.55933639 166.09219955 58.57350669 168.89102745 58.59086227 C170.77382649 58.59897756 172.65667136 58.59259974 174.53947449 58.585495 C186.1827459 58.68230373 198.09669856 60.12444049 208.4375 65.8125 C209.10724854 66.16578369 209.77699707 66.51906738 210.46704102 66.88305664 C215.33756854 69.50573978 219.87034913 72.29506158 224 76 C224.72316406 76.63164063 225.44632813 77.26328125 226.19140625 77.9140625 C237.08086901 88.04808029 246.41183736 103.74409643 247.08868599 118.99878883 C247.12310948 121.49041465 247.12360236 123.98007646 247.11352539 126.47192383 C247.11367142 127.41875031 247.11381744 128.36557678 247.1139679 129.34109497 C247.11327258 132.46309723 247.10549801 135.58503944 247.09765625 138.70703125 C247.09579072 140.87464872 247.09436745 143.0422666 247.09336853 145.20988464 C247.08955402 150.90954761 247.07973281 156.60918501 247.06866455 162.30883789 C247.05842753 168.12711237 247.053866 173.94539098 247.04882812 179.76367188 C247.0381096 191.17579247 247.02104595 202.58789411 247 214 C247.61488281 213.97317139 248.22976563 213.94634277 248.86328125 213.91870117 C250.07564453 213.88740112 250.07564453 213.88740112 251.3125 213.85546875 C252.11300781 213.82864014 252.91351563 213.80181152 253.73828125 213.77416992 C256 214 256 214 259 216.3125 C261.91902749 220.23494319 262.121816 223.00224787 262.09765625 227.76171875 C262.09443359 228.87998047 262.09121094 229.99824219 262.08789062 231.15039062 C262.07951172 232.31763672 262.07113281 233.48488281 262.0625 234.6875 C262.05798828 235.86634766 262.05347656 237.04519531 262.04882812 238.25976562 C262.03703273 241.17322789 262.0205727 244.08658863 262 247 C262.56081772 246.94416748 263.12163544 246.88833496 263.69944763 246.83081055 C273.04154149 246.30133047 278.20340682 251.09998785 284.93209839 257.05392456 C285.63513092 257.69612946 286.33816345 258.33833435 287.0625 259 C287.773992 259.64373566 288.48548401 260.28747131 289.21853638 260.95071411 C300.29542076 271.46094272 303.67076407 281.2045374 304.14274597 296.3578186 C304.1988143 308.93656028 303.36000711 321.4994943 302 334 C302.90041519 333.98005981 303.80083038 333.96011963 304.72853088 333.9395752 C305.90552048 333.92406616 307.08251007 333.90855713 308.29516602 333.89257812 C309.46370621 333.87263794 310.6322464 333.85269775 311.8361969 333.83215332 C315 334 315 334 318.27734375 335.71875 C320.98181797 340.87012948 320.68357404 345.77352517 320.5625 351.5 C320.57345703 352.62792969 320.58441406 353.75585938 320.59570312 354.91796875 C320.52480137 362.90623313 320.52480137 362.90623313 318.63647461 366.84179688 C314.50231538 370.22599612 310.41359887 369.53595801 305.25 369.3125 C304.26644531 369.28994141 303.28289062 369.26738281 302.26953125 369.24414062 C299.8448053 369.18528805 297.42318017 369.10313431 295 369 C295.00888245 369.83858551 295.01776489 370.67717102 295.0269165 371.54116821 C295.10717211 379.45652798 295.16802001 387.37175047 295.20724869 395.28742409 C295.2280949 399.35666939 295.25635753 403.42557759 295.30175781 407.49462891 C295.3453226 411.42390618 295.36915942 415.35285987 295.37950897 419.28236008 C295.38688138 420.77905748 295.4012782 422.27573782 295.42292023 423.77229691 C295.45209757 425.87413602 295.45595032 427.97465006 295.45410156 430.07666016 C295.46298401 431.27134918 295.47186646 432.46603821 295.48101807 433.69692993 C294.80919899 438.31019839 292.80749151 441.6061818 289.10546875 444.4609375 C283.90226399 446.94067256 279.6457267 448.22210801 273.92578125 446.3046875 C269.07935274 444.17261729 266.4595283 441.82067548 264 437 C263.01591738 433.17658868 262.87858096 429.58810275 262.88647461 425.64916992 C262.88655014 424.3882402 262.88662567 423.12731049 262.88670349 421.82817078 C262.89180931 420.46226969 262.8970253 419.09636902 262.90234375 417.73046875 C262.9042103 416.32513988 262.90563308 414.91981035 262.90663147 413.51448059 C262.910438 409.82705875 262.92025226 406.1396767 262.93133545 402.45227051 C262.94158975 398.68498279 262.94619258 394.9176884 262.95117188 391.15039062 C262.96134479 383.76689202 262.98092118 376.38350247 263 369 C244.85 369 226.7 369 208 369 C208.04640625 373.599375 208.0928125 378.19875 208.140625 382.9375 C208.16107983 385.86330403 208.18033659 388.78901904 208.1953125 391.71484375 C208.21916052 396.35191311 208.2472748 400.98866447 208.30175781 405.62548828 C208.34543929 409.36674468 208.36918367 413.10765974 208.37950897 416.84915161 C208.38686064 418.27163053 208.40121638 419.69409223 208.42292023 421.11642456 C208.54023457 429.1281039 208.55715282 435.23923069 204 442 C198.73420218 446.19114521 194.70117072 447.45431666 188 447 C182.32450447 444.95682161 178.70126279 441.40252559 176 436 C175.90824966 433.87583 175.88249306 431.74870545 175.88647461 429.62255859 C175.88632858 428.96877731 175.88618256 428.31499603 175.8860321 427.6414032 C175.88672964 425.47704773 175.8945146 423.31277796 175.90234375 421.1484375 C175.90420849 419.64913988 175.90563213 418.14984166 175.90663147 416.65054321 C175.91045221 412.70168378 175.92027872 408.75286104 175.93133545 404.80401611 C175.94155909 400.77559913 175.94613113 396.74717622 175.95117188 392.71875 C175.96190138 384.81248315 175.9789725 376.90624614 176 369 C175.41508789 369.01571045 174.83017578 369.0314209 174.22753906 369.04760742 C171.56845836 369.11010267 168.90953236 369.14903569 166.25 369.1875 C164.86941406 369.22520508 164.86941406 369.22520508 163.4609375 369.26367188 C162.57148438 369.27333984 161.68203125 369.28300781 160.765625 369.29296875 C159.94868164 369.3086792 159.13173828 369.32438965 158.29003906 369.34057617 C155.42365811 368.91428604 154.09159692 367.97845159 152 366 C150.42677389 361.28032168 150.815523 356.50510529 150.8125 351.5625 C150.80025391 350.51255859 150.78800781 349.46261719 150.77539062 348.38085938 C150.77345703 347.36958984 150.77152344 346.35832031 150.76953125 345.31640625 C150.76542236 344.39287354 150.76131348 343.46934082 150.75708008 342.51782227 C151.0196949 339.79586582 151.45038347 338.24833712 153 336 C156.51402071 333.65590508 159.6076325 333.79215265 163.75 333.875 C164.92046875 333.89304687 166.0909375 333.91109375 167.296875 333.9296875 C168.63492188 333.96449219 168.63492188 333.96449219 170 334 C169.93338165 333.35251801 169.86676331 332.70503601 169.79812622 332.03793335 C164.79753462 281.07864913 164.79753462 281.07864913 176.328125 266.53515625 C178.85497159 263.64150223 181.52414358 261.01018321 184.375 258.4375 C185.04984436 257.82098572 185.72468872 257.20447144 186.41998291 256.5692749 C197.97455844 246.36559968 197.97455844 246.36559968 205.9765625 246.28515625 C208.36181641 246.59790039 208.36181641 246.59790039 210 247 C209.97381592 246.17798096 209.94763184 245.35596191 209.9206543 244.5090332 C209.8165856 240.77705062 209.75163872 237.0453734 209.6875 233.3125 C209.6246582 231.37213867 209.6246582 231.37213867 209.56054688 229.39257812 C209.54443359 228.14541016 209.52832031 226.89824219 209.51171875 225.61328125 C209.47244263 223.89298706 209.47244263 223.89298706 209.43237305 222.13793945 C210.19967148 217.89618168 211.61724787 216.63383932 215 214 C217.80408158 213.41237553 220.46346165 213.52200626 223.3125 213.6875 C224.42334961 213.72133789 224.42334961 213.72133789 225.55664062 213.75585938 C227.37197357 213.8144185 229.18625681 213.90409114 231 214 C230.93854649 202.35943995 230.86126761 190.71909963 230.76428509 179.07877827 C230.71972928 173.67257008 230.68044119 168.2664347 230.65356445 162.86010742 C230.62738316 157.63390768 230.58687781 152.40799035 230.53681374 147.18196678 C230.52024467 145.19712041 230.50866884 143.2122253 230.50238609 141.22731972 C230.45601556 127.91319129 230.39489029 114.96341574 223.625 103.0625 C223.06039062 102.04285156 222.49578125 101.02320312 221.9140625 99.97265625 C214.64892469 88.68945242 203.79137411 81.58756403 191 78 C190.40671276 77.82431173 189.81342552 77.64862347 189.20215988 77.46761131 C186.56245987 76.9070918 184.1252968 76.86896896 181.42559814 76.86196899 C180.29048294 76.85651566 179.15536774 76.85106232 177.9858551 76.84544373 C176.74432175 76.8444014 175.50278839 76.84335907 174.22363281 76.84228516 C172.2107855 76.83448519 170.1979382 76.8266812 168.1850915 76.81872725 C166.02148982 76.81101702 163.85789237 76.8056318 161.69428253 76.80076981 C157.1696641 76.79005479 152.64511956 76.7697959 148.12054443 76.74765015 C135.25373769 76.68585893 122.38693396 76.63189491 109.52001953 76.59863281 C102.41335841 76.58018115 95.30682008 76.55110764 88.20024943 76.5106281 C84.44722257 76.48971886 80.69434943 76.47412414 76.94126129 76.47182083 C50.76167509 76.45104034 27.24757909 75.42001773 6.74609375 56.8359375 C-6.09765484 43.33132488 -12.5259514 27.30254435 -14.08203125 8.9453125 C-13.9637994 4.70022595 -13.00474061 2.00474061 -10 -1 C-6.25929352 -2.60315992 -3.61324902 -1.61443041 0 0 Z " fill="#009AFE" transform="translate(177,14)"/>
<path d="M0 0 C0.94500846 -0.00367669 1.89001692 -0.00735338 2.863662 -0.01114148 C6.04414355 -0.02219318 9.22459244 -0.02602467 12.40509033 -0.02983093 C14.67986149 -0.03609442 16.95463163 -0.04274111 19.22940063 -0.04974365 C25.41957466 -0.06716302 31.60974096 -0.0777078 37.79993343 -0.08594918 C41.66562726 -0.09109695 45.53131868 -0.09717276 49.3970108 -0.10346031 C60.10119256 -0.12033036 70.80537092 -0.13496555 81.50956345 -0.14220905 C84.28691357 -0.14411892 87.06426368 -0.14603926 89.84161377 -0.147995 C90.53190372 -0.14847874 91.22219367 -0.14896248 91.9334015 -0.14946087 C103.11562381 -0.15776118 114.29773915 -0.18309859 125.47991475 -0.21557567 C136.96210863 -0.24865208 148.44422269 -0.26632557 159.92646909 -0.26985329 C166.37266893 -0.27220641 172.81869967 -0.28120119 179.26485443 -0.30631447 C185.32889048 -0.32955724 191.39264562 -0.33384354 197.45671463 -0.32355309 C199.68234058 -0.32305671 201.90798017 -0.32940701 204.133564 -0.34310913 C207.1725512 -0.36077218 210.21052419 -0.35374892 213.24951172 -0.34057617 C214.12977547 -0.35154542 215.01003923 -0.36251466 215.91697764 -0.37381631 C221.72680818 -0.31303674 225.11228587 0.7725105 229.87872314 4.14717102 C233.51338925 8.7383282 234.99966896 12.40100862 235.01015091 18.18056965 C235.01399205 18.97843114 235.0178332 19.77629264 235.02179074 20.59833175 C235.02092426 21.46904176 235.02005778 22.33975176 235.01916504 23.23684692 C235.02362172 24.63113994 235.02362172 24.63113994 235.02816844 26.05360049 C235.03685651 29.17570143 235.03836378 32.29776402 235.03985596 35.4198761 C235.04448402 37.65538617 235.04950866 39.89089545 235.05490112 42.12640381 C235.06802748 48.20495519 235.07447044 54.28349553 235.07891178 60.36205888 C235.08184187 64.15857673 235.08594654 67.95509156 235.09041595 71.75160789 C235.10252412 82.2662493 235.11290662 92.78088892 235.11629105 103.29553699 C235.11651061 103.96825094 235.11673018 104.64096489 235.1169564 105.33406411 C235.11717468 106.00837163 235.11739295 106.68267916 235.11761785 107.37742025 C235.11806131 108.74378574 235.11850787 110.11015123 235.11895752 111.47651672 C235.11917895 112.15427871 235.11940038 112.8320407 235.11962852 113.53034093 C235.12357638 124.51201679 235.1410309 135.49362628 235.16431704 146.47527651 C235.18803999 157.7540918 235.20023541 169.03287495 235.20165896 180.31171912 C235.2027078 186.64273543 235.20863259 192.97365811 235.22647858 199.30465126 C235.24293775 205.2595046 235.24512515 211.21419371 235.23633957 217.16906166 C235.23556807 219.3543695 235.23992675 221.53968609 235.24979782 223.72497177 C235.26248628 226.70902541 235.25665715 229.69249468 235.24621582 232.67654419 C235.25830043 233.97257095 235.25830043 233.97257095 235.27062917 235.29478008 C235.22073592 241.3948076 234.30003969 246.3269833 230.19512939 251.10810852 C229.61634033 251.57474915 229.03755127 252.04138977 228.44122314 252.52217102 C227.86501221 253.0042804 227.28880127 253.48638977 226.69512939 253.98310852 C223.58353808 255.9772036 220.48536905 256.27199697 216.84811783 256.27859879 C215.65225064 256.2843605 215.65225064 256.2843605 214.43222451 256.29023862 C213.12718268 256.2889389 213.12718268 256.2889389 211.79577637 256.28761292 C210.4025417 256.2920696 210.4025417 256.2920696 208.98116088 256.29661632 C205.86139391 256.30530442 202.74166532 256.30681166 199.62188721 256.30830383 C197.38799965 256.31293193 195.15411289 256.31795657 192.92022705 256.323349 C186.84574062 256.33647582 180.77126525 256.34291851 174.69676685 256.34735966 C170.90225132 256.35028992 167.10773881 256.35439464 163.31322479 256.35886383 C152.8028746 256.37097253 142.2925262 256.38135464 131.78216934 256.38473892 C131.10970696 256.38495849 130.43724457 256.38517805 129.74440454 256.38540427 C129.07035247 256.38562255 128.39630041 256.38584083 127.70182252 256.38606572 C126.33598471 256.38650918 124.97014689 256.38695575 123.60430908 256.3874054 C122.9268094 256.38762683 122.24930973 256.38784826 121.55127975 256.38807639 C110.57674595 256.39202325 99.6022786 256.40947444 88.62777045 256.43276492 C77.3546004 256.45649568 66.0814625 256.46868373 54.80826354 256.47010684 C48.48112771 256.47115525 42.1540856 256.47707089 35.82697296 256.49492645 C29.87457883 256.51139759 23.92234897 256.51356718 17.96994019 256.50478745 C15.78666494 256.50401656 13.6033809 256.50836648 11.42012787 256.5182457 C8.43642451 256.53095387 5.45330396 256.52509426 2.46960449 256.5146637 C1.60849949 256.5227201 0.74739449 256.53077651 -0.1398046 256.53907704 C-6.04144342 256.49092544 -12.104734 255.87954454 -16.68513083 251.73063779 C-21.31366813 246.39510382 -21.26828578 241.76344512 -21.26171875 235.01916504 C-21.26617543 233.600594 -21.26617543 233.600594 -21.27072215 232.15336496 C-21.2794241 228.97054601 -21.28091866 225.78776461 -21.28240967 222.60493469 C-21.28703676 220.32854125 -21.29206128 218.05214859 -21.29745483 215.77575684 C-21.31059085 209.58151458 -21.31702608 203.38728317 -21.32146549 197.19302917 C-21.32439414 193.3253329 -21.32849854 189.45763961 -21.33296967 185.58994484 C-21.34507975 174.8814703 -21.35546152 164.1729994 -21.35884476 153.46451855 C-21.35906432 152.77914747 -21.35928389 152.0937764 -21.35951011 151.3876365 C-21.35972839 150.70062562 -21.35994666 150.01361475 -21.36017156 149.30578536 C-21.36061502 147.91363982 -21.36106159 146.52149429 -21.36151123 145.12934875 C-21.36173266 144.43879649 -21.36195409 143.74824424 -21.36218223 143.03676615 C-21.36613022 131.84742288 -21.38358435 120.65814473 -21.40687075 109.46882661 C-21.43058544 97.9809912 -21.44278868 86.49319775 -21.44421268 75.00533658 C-21.44526207 68.55528943 -21.4511986 62.10533413 -21.46903229 55.65530968 C-21.48547886 49.5888481 -21.48768503 43.52254774 -21.47889328 37.45607185 C-21.47812109 35.22841842 -21.48248947 33.00075643 -21.49235153 30.77312469 C-21.50501832 27.73393248 -21.49922269 24.69531582 -21.48876953 21.65612793 C-21.49682594 20.77295133 -21.50488234 19.88977474 -21.51318288 18.97983521 C-21.46709509 13.25723314 -20.6309405 8.89865121 -16.62127686 4.50263977 C-11.03982366 0.1566645 -6.86385756 -0.00142314 0 0 Z M9.87872314 31.14717102 C9.87872314 94.83717102 9.87872314 158.52717102 9.87872314 224.14717102 C73.56872314 224.14717102 137.25872314 224.14717102 202.87872314 224.14717102 C202.87872314 160.45717102 202.87872314 96.76717102 202.87872314 31.14717102 C139.18872314 31.14717102 75.49872314 31.14717102 9.87872314 31.14717102 Z " fill="#CFD2D7" transform="translate(36.12127685546875,243.8528289794922)"/>
<path d="M0 0 C2.475 0.495 2.475 0.495 5 1 C5.1451001 1.59200195 5.2902002 2.18400391 5.43969727 2.79394531 C13.16371717 34.02702932 23.99839189 66.91474587 45 92 C45.03867188 90.37191406 45.03867188 90.37191406 45.078125 88.7109375 C45.13443738 87.26558651 45.191784 85.82027556 45.25 84.375 C45.26417969 83.66214844 45.27835938 82.94929688 45.29296875 82.21484375 C45.52831551 77.08428433 46.68503625 74.10394959 50 70 C54.32247253 66.19210754 56.90258942 64.61981981 62.7734375 64.7265625 C66.64221349 65.20167534 70.00850521 66.49242348 73 69 C76.77383318 74.49218434 77.58882267 78.41591366 77.49609375 85.00390625 C77.49754898 85.84541733 77.49900421 86.68692841 77.50050354 87.55393982 C77.49885206 89.3230233 77.48737544 91.09212228 77.46655273 92.86108398 C77.43754405 95.5584042 77.44597002 98.25376185 77.45898438 100.95117188 C77.4527474 102.67709282 77.44435677 104.4030076 77.43359375 106.12890625 C77.43652939 106.92905655 77.43946503 107.72920685 77.44248962 108.55360413 C77.36028766 113.46441289 76.53190039 116.66734714 74 121 C73.31363375 123.23525035 73.31363375 123.23525035 73 125 C106.21622253 156.28582082 147.31291768 177.70378214 192 187 C192 188.65 192 190.3 192 192 C128.64 192 65.28 192 0 192 C0 128.64 0 65.28 0 0 Z " fill="#E5AF00" transform="translate(47,276)"/>
<path d="M0 0 C27.52043824 -0.09342507 55.04085272 -0.16397034 82.56141758 -0.20724869 C95.33958295 -0.22787733 108.11764981 -0.25600389 120.89575195 -0.30175781 C132.03263331 -0.3416161 143.16944334 -0.36743061 154.30639404 -0.37635398 C160.20380384 -0.38157038 166.10100954 -0.39383747 171.99835396 -0.42292023 C177.54935873 -0.45007318 183.10007534 -0.45844512 188.65114021 -0.45243073 C190.68810085 -0.453531 192.72507114 -0.46148544 194.76197433 -0.4768219 C197.54496236 -0.49674773 200.32686496 -0.49192958 203.10987854 -0.48101807 C203.91436969 -0.49266943 204.71886084 -0.5043208 205.54773051 -0.51632524 C211.14301129 -0.45710025 214.39298237 0.78629992 219 4 C223.82504596 10.0947949 224.14770891 14.86055643 224.12025452 22.41546631 C224.12153615 23.70078652 224.12153615 23.70078652 224.12284368 25.0120728 C224.12449292 27.88795251 224.11898618 30.76377409 224.11352539 33.63964844 C224.11324337 35.69932555 224.11340154 37.75900276 224.1139679 39.81867981 C224.1142553 45.41538067 224.10836771 51.01206018 224.10139394 56.60875607 C224.09515098 62.45574269 224.09455585 68.30272979 224.09336853 74.14971924 C224.090258 85.22416373 224.08204835 96.29859838 224.07201904 107.37303853 C224.06084928 119.97990342 224.05534527 132.58676877 224.05032361 145.19363737 C224.03986552 171.12909704 224.02227144 197.06454797 224 223 C221.77191752 223.01686379 219.54379786 223.02885879 217.31567383 223.03881836 C215.45450676 223.04962685 215.45450676 223.04962685 213.55574036 223.06065369 C209.14671192 222.98544464 204.99974985 222.42979066 200.6875 221.5625 C199.94822266 221.42779297 199.20894531 221.29308594 198.44726562 221.15429688 C193.15649802 220.15649802 193.15649802 220.15649802 192 219 C191.90231803 216.5715115 191.87003255 214.17148054 191.87974548 211.74253845 C191.87846146 210.59248825 191.87846146 210.59248825 191.87715149 209.41920471 C191.87548625 206.8223341 191.88103613 204.2255269 191.88647461 201.62866211 C191.8867807 199.74622633 191.88664787 197.86379044 191.88610935 195.98135471 C191.88588279 190.92189903 191.89169549 185.8624668 191.89871979 180.80301666 C191.9043978 176.06240257 191.90468198 171.32179431 191.90539551 166.58117676 C191.91065124 152.69994804 191.92461227 138.81872373 191.9375 124.9375 C191.958125 93.938125 191.97875 62.93875 192 31 C129.96 31 67.92 31 4 31 C2.67419382 23.70806603 1.54518374 16.65705454 0.875 9.3125 C0.78863281 8.40822266 0.70226563 7.50394531 0.61328125 6.57226562 C0.404672 4.38186848 0.20028049 2.19117156 0 0 Z " fill="#E6E8ED" transform="translate(47,244)"/>
<path d="M0 0 C0.96763671 -0.00785502 0.96763671 -0.00785502 1.95482165 -0.01586872 C4.11427689 -0.03085876 6.27349498 -0.03157363 8.43299866 -0.03224182 C9.98211059 -0.03986388 11.53121874 -0.04829146 13.08032227 -0.0574646 C17.28690584 -0.07940923 21.49341672 -0.08820819 25.70005107 -0.09329104 C28.32801282 -0.096934 30.9559555 -0.10317368 33.58390999 -0.11029243 C42.75138817 -0.13478472 51.91880975 -0.1478388 61.08631897 -0.15138245 C69.63314724 -0.15501979 78.17961686 -0.18492976 86.72633547 -0.22678703 C94.06402569 -0.26146406 101.40159687 -0.27693042 108.7393685 -0.27762848 C113.12205954 -0.27842205 117.50438509 -0.28719713 121.8869915 -0.31562614 C126.0083838 -0.34176344 130.12910639 -0.34403676 134.25054359 -0.3279705 C135.76265292 -0.32615265 137.27480039 -0.33287724 138.78682709 -0.34878922 C140.85257601 -0.36920239 142.91597088 -0.35873126 144.98168945 -0.34057617 C146.13703155 -0.3425875 147.29237364 -0.34459883 148.4827261 -0.3466711 C152.50815819 0.46693857 154.00877995 2.12244892 156.55433655 5.27415466 C157.18544006 8.05735779 157.18544006 8.05735779 157.1832428 11.05540466 C157.18517639 12.14466248 157.18710999 13.23392029 157.18910217 14.35618591 C157.16525452 15.4841156 157.14140686 16.61204529 157.11683655 17.77415466 C157.12779358 18.90208435 157.13875061 20.03001404 157.15003967 21.19212341 C157.07913792 29.1803878 157.07913792 29.1803878 155.19081116 33.11595154 C151.05665193 36.50015078 146.96793541 35.81011267 141.80433655 35.58665466 C140.82078186 35.56409607 139.83722717 35.54153748 138.8238678 35.51829529 C136.39914184 35.45944272 133.97751671 35.37728897 131.55433655 35.27415466 C131.56321899 36.11274017 131.57210144 36.95132568 131.58125305 37.81532288 C131.66150866 45.73068265 131.72235656 53.64590513 131.76158524 61.56157875 C131.78243144 65.63082406 131.81069408 69.69973226 131.85609436 73.76878357 C131.89965915 77.69806085 131.92349597 81.62701453 131.93384552 85.55651474 C131.94121793 87.05321214 131.95561475 88.54989248 131.97725677 90.04645157 C132.00643412 92.14829068 132.01028687 94.24880472 132.00843811 96.35081482 C132.01732056 97.54550385 132.026203 98.74019287 132.03535461 99.97108459 C131.36353554 104.58435306 129.36182806 107.88033647 125.6598053 110.73509216 C120.45660054 113.21482722 116.20006325 114.49626267 110.4801178 112.57884216 C105.63368929 110.44677195 103.01386485 108.09483014 100.55433655 103.27415466 C99.57025392 99.45074334 99.4329175 95.86225741 99.44081116 91.92332458 C99.44092445 90.03193001 99.44092445 90.03193001 99.44104004 88.10232544 C99.44614586 86.73642436 99.45136184 85.37052368 99.4566803 84.00462341 C99.45854685 82.59929454 99.45996963 81.19396501 99.46096802 79.78863525 C99.46477455 76.10121342 99.47458881 72.41383136 99.485672 68.72642517 C99.4959263 64.95913745 99.50052913 61.19184307 99.50550842 57.42454529 C99.51568133 50.04104668 99.53525773 42.65765713 99.55433655 35.27415466 C81.40433655 35.27415466 63.25433655 35.27415466 44.55433655 35.27415466 C44.6007428 39.87352966 44.64714905 44.47290466 44.69496155 49.21165466 C44.71541638 52.13745869 44.73467314 55.06317371 44.74964905 57.98899841 C44.77349706 62.62606777 44.80161134 67.26281913 44.85609436 71.89964294 C44.89977584 75.64089934 44.92352022 79.38181441 44.93384552 83.12330627 C44.94119718 84.5457852 44.95555293 85.96824689 44.97725677 87.39057922 C45.09457112 95.40225857 45.11148937 101.51338536 40.55433655 108.27415466 C35.28853872 112.46529987 31.25550726 113.72847132 24.55433655 113.27415466 C18.87884102 111.23097627 15.25559934 107.67668025 12.55433655 102.27415466 C12.46258621 100.14998466 12.43682961 98.02286012 12.44081116 95.89671326 C12.44066513 95.24293198 12.4405191 94.5891507 12.44036865 93.91555786 C12.44106619 91.75120239 12.44885115 89.58693263 12.4566803 87.42259216 C12.45854504 85.92329455 12.45996868 84.42399632 12.46096802 82.92469788 C12.46478876 78.97583844 12.47461527 75.0270157 12.485672 71.07817078 C12.49589563 67.04975379 12.50046768 63.02133088 12.50550842 58.99290466 C12.51623793 51.08663781 12.53330904 43.1804008 12.55433655 35.27415466 C11.67696838 35.29772034 11.67696838 35.29772034 10.78187561 35.32176208 C8.1227949 35.38425734 5.46386891 35.42319035 2.80433655 35.46165466 C1.88394592 35.48679138 0.9635553 35.5119281 0.01527405 35.53782654 C-0.87417908 35.54749451 -1.7636322 35.55716248 -2.68003845 35.56712341 C-3.49698181 35.58283386 -4.31392517 35.59854431 -5.15562439 35.61473083 C-8.02200534 35.1884407 -9.35406653 34.25260626 -11.44566345 32.27415466 C-13.01888956 27.55447635 -12.63014045 22.77925995 -12.63316345 17.83665466 C-12.64540955 16.78671326 -12.65765564 15.73677185 -12.67027283 14.65501404 C-12.67220642 13.64374451 -12.67414001 12.63247498 -12.6761322 11.59056091 C-12.68024109 10.6670282 -12.68434998 9.74349548 -12.68858337 8.79197693 C-12.42596855 6.07002048 -11.99527998 4.52249178 -10.44566345 2.27415466 C-7.00625704 0.02504551 -4.04875029 0.01630243 0 0 Z " fill="#0099FE" transform="translate(340.44566345214844,347.72584533691406)"/>
<path d="M0 0 C3.29996724 3.3395352 3.48153906 6.3647161 3.875 10.9375 C5.48769317 25.47654919 11.56904868 37.82698975 22.8125 47.375 C34.70580851 56.27674011 46.85137549 58.30147333 61.35986328 58.27124023 C63.37616321 58.27926385 65.39246313 58.28728985 67.40876269 58.29540551 C69.56083022 58.30222956 71.71285526 58.30425854 73.86493301 58.30496025 C78.37290343 58.30691557 82.88072311 58.32505019 87.38864136 58.34571838 C98.58792975 58.39471562 109.78725893 58.42570388 120.9866333 58.44702148 C129.69022484 58.46361535 138.39368607 58.48663151 147.09719074 58.53004223 C151.56305602 58.55161836 156.02867252 58.55989536 160.49458623 58.55764949 C163.29347163 58.55933639 166.09219955 58.57350669 168.89102745 58.59086227 C170.77382649 58.59897756 172.65667136 58.59259974 174.53947449 58.585495 C186.1827459 58.68230373 198.09669856 60.12444049 208.4375 65.8125 C209.10724854 66.16578369 209.77699707 66.51906738 210.46704102 66.88305664 C215.33756854 69.50573978 219.87034913 72.29506158 224 76 C224.72316406 76.63164063 225.44632813 77.26328125 226.19140625 77.9140625 C237.08086901 88.04808029 246.41183736 103.74409643 247.08868599 118.99878883 C247.12310948 121.49041465 247.12360236 123.98007646 247.11352539 126.47192383 C247.11367142 127.41875031 247.11381744 128.36557678 247.1139679 129.34109497 C247.11327258 132.46309723 247.10549801 135.58503944 247.09765625 138.70703125 C247.09579072 140.87464872 247.09436745 143.0422666 247.09336853 145.20988464 C247.08955402 150.90954761 247.07973281 156.60918501 247.06866455 162.30883789 C247.05842753 168.12711237 247.053866 173.94539098 247.04882812 179.76367188 C247.0381096 191.17579247 247.02104595 202.58789411 247 214 C247.61488281 213.97317139 248.22976563 213.94634277 248.86328125 213.91870117 C250.07564453 213.88740112 250.07564453 213.88740112 251.3125 213.85546875 C252.11300781 213.82864014 252.91351563 213.80181152 253.73828125 213.77416992 C256 214 256 214 259 216.3125 C261.90317129 220.21363642 262.12760348 222.99156251 262.1328125 227.7265625 C262.13410156 228.8403125 262.13539063 229.9540625 262.13671875 231.1015625 C262.13285156 232.26429688 262.12898438 233.42703125 262.125 234.625 C262.12886719 235.79546875 262.13273437 236.9659375 262.13671875 238.171875 C262.13478516 239.83863281 262.13478516 239.83863281 262.1328125 241.5390625 C262.13168457 242.56209473 262.13055664 243.58512695 262.12939453 244.63916016 C262 247 262 247 261 248 C259.40389018 248.09333705 257.80366572 248.11745372 256.20483398 248.11352539 C255.18385117 248.11344986 254.16286835 248.11337433 253.11094666 248.11329651 C252.0005452 248.10813522 250.89014374 248.10297394 249.74609375 248.09765625 C248.61551041 248.0962413 247.48492706 248.09482635 246.32008362 248.09336853 C242.69252935 248.08775019 239.06503576 248.07519458 235.4375 248.0625 C232.98502693 248.05748736 230.5325529 248.05292405 228.08007812 248.04882812 C222.05336455 248.0377748 216.02668661 248.02101884 210 248 C209.87593993 243.96174934 209.78544955 239.92424362 209.7253418 235.88452148 C209.70027383 234.51192898 209.66620918 233.13946898 209.62280273 231.76733398 C209.56182469 229.78949304 209.53638991 227.81065816 209.51171875 225.83203125 C209.48553467 224.64327393 209.45935059 223.4545166 209.43237305 222.22973633 C210.19012239 217.91822402 211.56183126 216.67037675 215 214 C217.80419788 213.41287751 220.46343196 213.52200454 223.3125 213.6875 C224.42334961 213.72133789 224.42334961 213.72133789 225.55664062 213.75585938 C227.37197357 213.8144185 229.18625681 213.90409114 231 214 C230.93854649 202.35943995 230.86126761 190.71909963 230.76428509 179.07877827 C230.71972928 173.67257008 230.68044119 168.2664347 230.65356445 162.86010742 C230.62738316 157.63390768 230.58687781 152.40799035 230.53681374 147.18196678 C230.52024467 145.19712041 230.50866884 143.2122253 230.50238609 141.22731972 C230.45601556 127.91319129 230.39489029 114.96341574 223.625 103.0625 C223.06039062 102.04285156 222.49578125 101.02320312 221.9140625 99.97265625 C214.64892469 88.68945242 203.79137411 81.58756403 191 78 C190.40671276 77.82431173 189.81342552 77.64862347 189.20215988 77.46761131 C186.56245987 76.9070918 184.1252968 76.86896896 181.42559814 76.86196899 C180.29048294 76.85651566 179.15536774 76.85106232 177.9858551 76.84544373 C176.74432175 76.8444014 175.50278839 76.84335907 174.22363281 76.84228516 C172.2107855 76.83448519 170.1979382 76.8266812 168.1850915 76.81872725 C166.02148982 76.81101702 163.85789237 76.8056318 161.69428253 76.80076981 C157.1696641 76.79005479 152.64511956 76.7697959 148.12054443 76.74765015 C135.25373769 76.68585893 122.38693396 76.63189491 109.52001953 76.59863281 C102.41335841 76.58018115 95.30682008 76.55110764 88.20024943 76.5106281 C84.44722257 76.48971886 80.69434943 76.47412414 76.94126129 76.47182083 C50.76167509 76.45104034 27.24757909 75.42001773 6.74609375 56.8359375 C-6.09765484 43.33132488 -12.5259514 27.30254435 -14.08203125 8.9453125 C-13.9637994 4.70022595 -13.00474061 2.00474061 -10 -1 C-6.25929352 -2.60315992 -3.61324902 -1.61443041 0 0 Z " fill="#AAB2BD" transform="translate(177,14)"/>
<path d="M0 0 C63.69 0 127.38 0 193 0 C193 39.6 193 79.2 193 120 C183.09711519 118.89967947 180.02703586 117.34495975 173.625 110.4375 C170.28206643 105.42309965 169.71373757 101.11539222 169.77294922 95.18041992 C169.77265717 94.40915771 169.77236511 93.63789551 169.77206421 92.84326172 C169.77345248 90.30554781 169.78898985 87.76813109 169.8046875 85.23046875 C169.80841942 83.46641704 169.81126555 81.70236325 169.81326294 79.93830872 C169.8208853 75.30390665 169.84052179 70.66963069 169.8626709 66.03527832 C169.88315943 61.30283311 169.89227109 56.57036744 169.90234375 51.83789062 C169.923769 42.55853846 169.95788808 33.27927973 170 24 C169.40623125 24.00460896 168.8124625 24.00921793 168.20070076 24.01396656 C153.71836584 24.12463791 139.2360688 24.20724955 124.75340462 24.25906086 C117.74951058 24.28478585 110.74589972 24.31982594 103.7421875 24.37719727 C96.97945358 24.43256795 90.21701363 24.46144725 83.45406723 24.47438622 C80.87773899 24.48360363 78.30142629 24.5016031 75.72522354 24.52865028 C72.10829554 24.56510351 68.4925713 24.56993825 64.87548828 24.56762695 C63.81740463 24.58560333 62.75932098 24.60357971 61.66917419 24.62210083 C53.94871676 24.5689401 47.27130662 22.81027947 41.38257027 17.55714893 C36.68588165 12.23932547 35 8.07049689 35 1 C23.78 1 12.56 1 1 1 C1 64.36 1 127.72 1 193 C0.67 193 0.34 193 0 193 C0 129.31 0 65.62 0 0 Z " fill="#FCD65A" transform="translate(46,275)"/>
<path d="M0 0 C0.99 0.495 0.99 0.495 2 1 C-3.28 18.16 -8.56 35.32 -14 53 C-10.37 53.99 -6.74 54.98 -3 56 C-0.88484871 56.65867538 1.22489671 57.33546243 3.32421875 58.04296875 C4.37158203 58.39423828 5.41894531 58.74550781 6.49804688 59.10742188 C7.55056641 59.46384766 8.60308594 59.82027344 9.6875 60.1875 C11.33008789 60.73954102 11.33008789 60.73954102 13.00585938 61.30273438 C15.67152163 62.19904876 18.3361985 63.09817383 21 64 C19.09685766 68.08005075 16.39170867 71.20617166 13.4375 74.5625 C12.34013436 75.82464212 11.24378823 77.08767134 10.1484375 78.3515625 C9.60928711 78.97321289 9.07013672 79.59486328 8.51464844 80.23535156 C6.48511729 82.59986658 4.52054107 85.01360529 2.5625 87.4375 C-1.53915271 92.48854068 -5.78591011 97.40128396 -10.05786133 102.30786133 C-14.97462776 107.95781093 -19.81900625 113.66574526 -24.64404297 119.39404297 C-26.04116533 121.04875505 -27.44367766 122.69875874 -28.84765625 124.34765625 C-34.34618961 130.81071264 -39.74788731 137.33327816 -45 144 C-45.66 143.67 -46.32 143.34 -47 143 C-41.39 125.84 -35.78 108.68 -30 91 C-33.25420844 88.83052771 -36.14258228 87.83915013 -39.85546875 86.6171875 C-40.51710526 86.39805695 -41.17874176 86.17892639 -41.86042786 85.95315552 C-43.96807821 85.25619021 -46.07773102 84.56552227 -48.1875 83.875 C-49.61927728 83.40275787 -51.0509196 82.93010633 -52.48242188 82.45703125 C-55.98672923 81.29993764 -59.49285948 80.14848174 -63 79 C-62.12402984 74.44594009 -59.45275511 71.74397212 -56.4375 68.375 C-55.33205315 67.11440272 -54.22788869 65.85267975 -53.125 64.58984375 C-52.58617187 63.9747998 -52.04734375 63.35975586 -51.4921875 62.72607422 C-49.57763483 60.51143296 -47.74953168 58.23651519 -45.9375 55.9375 C-42.87034295 52.05413484 -39.70794187 48.26676927 -36.5 44.5 C-32.68138193 40.01280016 -28.94993054 35.47298338 -25.2890625 30.85546875 C-20.48248645 24.85955221 -15.56205825 18.95566785 -10.67138672 13.02832031 C-7.10146693 8.69602501 -3.55016893 4.34848734 0 0 Z " fill="#FF4722" transform="translate(352,128)"/>
<path d="M0 0 C0.14695312 1.21623047 0.14695312 1.21623047 0.296875 2.45703125 C2.33675243 17.5626753 7.64043467 32.23413907 20 42 C35.00897597 52.44018147 47.37107965 54.10488626 65.21875 54.31640625 C66.68705787 54.33701168 68.15536029 54.358009 69.62365723 54.37937927 C73.46386259 54.43422975 77.30411815 54.48380019 81.14440918 54.53222656 C85.07288002 54.58271424 89.00127915 54.63825709 92.9296875 54.69335938 C100.61973071 54.80048715 108.30983408 54.90203031 116 55 C116.02685095 57.47923801 116.04676547 59.9581884 116.0625 62.4375 C116.07087891 63.14455078 116.07925781 63.85160156 116.08789062 64.58007812 C116.09653588 66.38693559 116.05220011 68.19387603 116 70 C115 71 115 71 112.83107662 71.12304783 C111.86595937 71.12212604 110.90084211 71.12120424 109.90647888 71.12025452 C108.25103561 71.12231651 108.25103561 71.12231651 106.56214905 71.12442017 C105.34079758 71.12082489 104.11944611 71.11722961 102.86108398 71.11352539 C101.58322021 71.11367142 100.30535645 71.11381744 98.98876953 71.1139679 C95.47446409 71.11425585 91.9601925 71.1083594 88.44589496 71.10139394 C84.77700644 71.09516012 81.10811723 71.09455658 77.43922424 71.09336853 C70.48709565 71.0902553 63.5349827 71.08204202 56.58286101 71.07201904 C48.6700522 71.06085766 40.75724266 71.05534739 32.84442794 71.05032361 C16.56294279 71.0398594 0.28147339 71.02226011 -16 71 C-16.38374982 63.30104458 -16.64435509 55.60458901 -16.82397461 47.89819336 C-16.8989153 45.28364971 -17.00091671 42.66972422 -17.1315918 40.05737305 C-18.24708838 17.16563335 -18.24708838 17.16563335 -12.62939453 9.84423828 C-3.55531718 0 -3.55531718 0 0 0 Z " fill="#008BE6" transform="translate(363,278)"/>
<path d="M0 0 C10.56 0 21.12 0 32 0 C32.16043524 16.72983003 32.16043524 16.72983003 32.1953125 23.87890625 C32.2191942 28.75099177 32.2474003 33.62277566 32.30175781 38.49462891 C32.3453226 42.42390618 32.36915942 46.35285987 32.37950897 50.28236008 C32.38688138 51.77905748 32.4012782 53.27573782 32.42292023 54.77229691 C32.45209757 56.87413602 32.45595032 58.97465006 32.45410156 61.07666016 C32.46298401 62.27134918 32.47186646 63.46603821 32.48101807 64.69692993 C31.80919899 69.31019839 29.80749151 72.6061818 26.10546875 75.4609375 C20.90226399 77.94067256 16.6457267 79.22210801 10.92578125 77.3046875 C6.07935274 75.17261729 3.4595283 72.82067548 1 68 C0.01591738 64.17658868 -0.12141904 60.58810275 -0.11352539 56.64916992 C-0.11344986 55.3882402 -0.11337433 54.12731049 -0.11329651 52.82817078 C-0.10819069 51.46226969 -0.1029747 50.09636902 -0.09765625 48.73046875 C-0.0957897 47.32513988 -0.09436692 45.91981035 -0.09336853 44.51448059 C-0.089562 40.82705875 -0.07974774 37.1396767 -0.06866455 33.45227051 C-0.05841025 29.68498279 -0.05380742 25.9176884 -0.04882812 22.15039062 C-0.03865521 14.76689202 -0.01907882 7.38350247 0 0 Z " fill="#E5E8ED" transform="translate(440,383)"/>
<path d="M0 0 C10.56 0 21.12 0 32 0 C32.16043524 15.90091463 32.16043524 15.90091463 32.1953125 22.71484375 C32.21916052 27.35191311 32.2472748 31.98866447 32.30175781 36.62548828 C32.34543929 40.36674468 32.36918367 44.10765974 32.37950897 47.84915161 C32.38686064 49.27163053 32.40121638 50.69409223 32.42292023 52.11642456 C32.54023457 60.1281039 32.55715282 66.23923069 28 73 C22.73420218 77.19114521 18.70117072 78.45431666 12 78 C6.32450447 75.95682161 2.70126279 72.40252559 0 67 C-0.09175034 64.87583 -0.11750694 62.74870545 -0.11352539 60.62255859 C-0.11367142 59.96877731 -0.11381744 59.31499603 -0.1139679 58.6414032 C-0.11327036 56.47704773 -0.1054854 54.31277796 -0.09765625 52.1484375 C-0.09579151 50.64913988 -0.09436787 49.14984166 -0.09336853 47.65054321 C-0.08954779 43.70168378 -0.07972128 39.75286104 -0.06866455 35.80401611 C-0.05664385 31.06750242 -0.05204608 26.33097648 -0.04621124 21.5944519 C-0.03650929 14.39627574 -0.01734966 7.19818011 0 0 Z " fill="#E5E8ED" transform="translate(353,383)"/>
<path d="M0 0 C0.01401855 0.87736816 0.01401855 0.87736816 0.02832031 1.77246094 C0.08213279 4.4324858 0.16575449 7.09077222 0.25 9.75 C0.26417969 10.67039062 0.27835937 11.59078125 0.29296875 12.5390625 C0.32519531 13.42851562 0.35742188 14.31796875 0.390625 15.234375 C0.41157227 16.05131836 0.43251953 16.86826172 0.45410156 17.70996094 C1.2083427 20.87399578 2.4712671 21.97676612 5 24 C7.97014714 24.60491024 7.97014714 24.60491024 11.32745361 24.51898193 C12.62873199 24.53289474 13.93001038 24.54680756 15.27072144 24.56114197 C16.71075565 24.55642899 18.15078865 24.55133503 19.59082031 24.54589844 C21.10864319 24.55463334 22.62645686 24.56511884 24.14425659 24.57722473 C28.26379615 24.60511586 32.38303571 24.60848874 36.50265598 24.60750484 C40.80821536 24.61063129 45.11363909 24.63624387 49.41912842 24.65948486 C57.57174907 24.70006904 65.72428968 24.72039123 73.8769958 24.73345876 C83.15872506 24.74932064 92.44031795 24.78773281 101.72196817 24.82805204 C120.81460236 24.91048405 139.90722369 24.96455551 159 25 C158.39533678 31.40943012 158.39533678 31.40943012 156.85753536 33.70665932 C154.10823897 35.62090383 151.9206485 35.37773826 148.5919342 35.38095093 C147.93882482 35.3856309 147.28571543 35.39031087 146.61281484 35.39513266 C144.42013796 35.4071171 142.22808212 35.39761247 140.03540039 35.38818359 C138.4651096 35.39224782 136.89482168 35.39758887 135.32453918 35.40411377 C131.05591828 35.41781206 126.78751445 35.41247812 122.51888967 35.40297651 C118.05510314 35.39539156 113.59133545 35.40242241 109.12754822 35.40713501 C101.62967587 35.41259653 94.13189211 35.40539116 86.6340332 35.39111328 C77.96288958 35.37479194 69.29195763 35.3800699 60.62081915 35.3965925 C53.18039959 35.41020318 45.74004379 35.41212889 38.2996158 35.40427649 C33.85389927 35.39959691 29.40828225 35.39898282 24.9625721 35.40888596 C20.78220774 35.41754708 16.60211638 35.41154946 12.42178154 35.39420319 C10.88669666 35.3902335 9.35158884 35.39138064 7.81651306 35.39799118 C5.72238083 35.40617825 3.62912565 35.39592065 1.53504944 35.38095093 C0.36273805 35.37981985 -0.80957335 35.37868877 -2.01740932 35.37752342 C-5.30991043 34.96077288 -6.67797262 34.33554794 -9 32 C-10.57322611 27.28032168 -10.184477 22.50510529 -10.1875 17.5625 C-10.19974609 16.51255859 -10.21199219 15.46261719 -10.22460938 14.38085938 C-10.22654297 13.36958984 -10.22847656 12.35832031 -10.23046875 11.31640625 C-10.23457764 10.39287354 -10.23868652 9.46934082 -10.24291992 8.51782227 C-9.98577778 5.85258917 -9.42289357 4.25262606 -8 2 C-5.00711009 0.00474006 -3.76914404 0 0 0 Z " fill="#008BE6" transform="translate(338,348)"/>
<path d="M0 0 C0.89110474 -0.00478363 1.78220947 -0.00956726 2.70031738 -0.01449585 C4.57968924 -0.01789022 6.4591205 -0.00872012 8.33837891 0.01220703 C11.21000198 0.03898094 14.07771679 0.01244539 16.94921875 -0.01953125 C18.77865443 -0.01622707 20.60808769 -0.00982066 22.4375 0 C23.29283325 -0.01012115 24.1481665 -0.02024231 25.02941895 -0.03067017 C29.39515776 0.05487575 31.18718948 0.24939369 34.73632812 3.01806641 C37.63847145 6.89164145 37.84637996 9.67969651 37.8515625 14.390625 C37.85285156 15.504375 37.85414063 16.618125 37.85546875 17.765625 C37.85160156 18.92835938 37.84773438 20.09109375 37.84375 21.2890625 C37.84955078 23.04476562 37.84955078 23.04476562 37.85546875 24.8359375 C37.85417969 25.94710937 37.85289062 27.05828125 37.8515625 28.203125 C37.85043457 29.22615723 37.84930664 30.24918945 37.84814453 31.30322266 C37.71875 33.6640625 37.71875 33.6640625 36.71875 34.6640625 C35.12264018 34.75739955 33.52241572 34.78151622 31.92358398 34.77758789 C30.90260117 34.77751236 29.88161835 34.77743683 28.82969666 34.77735901 C27.7192952 34.77219772 26.60889374 34.76703644 25.46484375 34.76171875 C24.33426041 34.7603038 23.20367706 34.75888885 22.03883362 34.75743103 C18.41127935 34.75181269 14.78378576 34.73925708 11.15625 34.7265625 C8.70377693 34.72154986 6.2513029 34.71698655 3.79882812 34.71289062 C-2.22788545 34.7018373 -8.25456339 34.68508134 -14.28125 34.6640625 C-14.40531007 30.62581184 -14.49580045 26.58830612 -14.5559082 22.54858398 C-14.58097617 21.17599148 -14.61504082 19.80353148 -14.65844727 18.43139648 C-14.71942531 16.45355554 -14.74486009 14.47472066 -14.76953125 12.49609375 C-14.79571533 11.30733643 -14.82189941 10.1185791 -14.84887695 8.89379883 C-14.28125 5.6640625 -14.28125 5.6640625 -12.33081055 2.77856445 C-8.15130254 -0.1194196 -4.97730558 -0.05889644 0 0 Z " fill="#575562" transform="translate(401.28125,227.3359375)"/>
<path d="M0 0 C5.53730488 2.50745881 8.44273676 6.63104389 11 12 C11.6644366 14.94723544 11.72685059 17.7638391 11.69921875 20.77734375 C11.70637405 21.58812881 11.71352936 22.39891388 11.72090149 23.23426819 C11.72863585 24.93766187 11.72375734 26.64115572 11.70678711 28.34448242 C11.68756433 30.92885194 11.72699679 33.50783017 11.77148438 36.09179688 C11.84706504 50.96213593 11.84706504 50.96213593 6.62402344 57.5 C2.96485777 60.87972247 -0.50177225 61.78207596 -5.4375 62.5 C-10.07442431 61.84920361 -13.56684797 60.20925081 -17 57 C-20.24883573 51.83328542 -20.45407521 47.56587176 -20.43359375 41.65625 C-20.4388356 40.76893188 -20.44407745 39.88161377 -20.44947815 38.96740723 C-20.455879 37.09823652 -20.45458653 35.22902543 -20.44604492 33.35986328 C-20.43752602 30.50870796 -20.46633679 27.65955193 -20.49804688 24.80859375 C-20.49965894 22.98697976 -20.49908125 21.16536225 -20.49609375 19.34375 C-20.50732773 18.49671509 -20.51856171 17.64968018 -20.53013611 16.77697754 C-20.46676354 11.36564735 -19.5776273 8.30117857 -16 4 C-11.05253894 -0.4762743 -6.4003777 -1.002343 0 0 Z " fill="#5F5C66" transform="translate(182,341)"/>
<path d="M0 0 C5.12226057 2.24458609 7.66319131 5.13636144 9.8359375 10.3515625 C10.37024317 13.36586335 10.37503687 16.30010338 10.33203125 19.35546875 C10.33348648 20.19697983 10.33494171 21.03849091 10.33644104 21.90550232 C10.33478956 23.6745858 10.32331294 25.44368478 10.30249023 27.21264648 C10.27348155 29.9099667 10.28190752 32.60532435 10.29492188 35.30273438 C10.2886849 37.02865532 10.28029427 38.7545701 10.26953125 40.48046875 C10.27246689 41.28061905 10.27540253 42.08076935 10.27842712 42.90516663 C10.18559774 48.45086528 9.20968199 52.74909784 5.3359375 56.99609375 C0.82761812 60.50647785 -2.32999375 61.71759011 -8.10546875 61.6328125 C-12.71465062 61.00309505 -15.52202682 58.08035975 -18.4765625 54.7265625 C-21.55029267 50.40057189 -21.35723216 46.78247984 -21.40234375 41.6171875 C-21.4104155 40.74640564 -21.41848724 39.87562378 -21.42680359 38.97845459 C-21.44064757 37.13246656 -21.45136832 35.2864529 -21.45922852 33.44042969 C-21.47641051 30.62645415 -21.52028918 27.81366298 -21.56445312 25 C-21.5745829 23.2057378 -21.58309811 21.41146561 -21.58984375 19.6171875 C-21.60735184 18.77947815 -21.62485992 17.9417688 -21.64289856 17.07867432 C-21.6229884 11.67558446 -20.7411474 8.64488153 -17.1640625 4.3515625 C-11.75696384 -0.41183394 -7.09450136 -2.12578922 0 0 Z " fill="#5D5B67" transform="translate(114.1640625,341.6484375)"/>
<path d="M0 0 C3.96 0 7.92 0 12 0 C12.0093457 1.63469238 12.01869141 3.26938477 12.02832031 4.95361328 C12.06822898 11.02566657 12.1339917 17.0972137 12.20751953 23.16894531 C12.23572378 25.79550671 12.25694096 28.4221529 12.27099609 31.04882812 C12.292432 34.82726434 12.33908948 38.60468163 12.390625 42.3828125 C12.39185364 43.55490265 12.39308228 44.7269928 12.39434814 45.93460083 C12.50730218 52.23966299 12.72493358 56.22366699 17 61 C20.03414833 63.88996359 22.64766225 64.5526144 26.75 65.1875 C28.22726562 65.42533203 28.22726562 65.42533203 29.734375 65.66796875 C30.48203125 65.77753906 31.2296875 65.88710938 32 66 C30.08145391 71.23000919 27.59442197 74.56624049 22.625 77.3125 C16.63764748 78.88061614 12.1342054 78.19678804 6.796875 75.26953125 C3.34138717 72.82815398 1.45394304 69.76368418 0.40943909 65.70552063 C-0.05331429 62.64770603 -0.11972426 59.74240727 -0.11352539 56.64916992 C-0.11344986 55.3882402 -0.11337433 54.12731049 -0.11329651 52.82817078 C-0.10819069 51.46226969 -0.1029747 50.09636902 -0.09765625 48.73046875 C-0.0957897 47.32513988 -0.09436692 45.91981035 -0.09336853 44.51448059 C-0.089562 40.82705875 -0.07974774 37.1396767 -0.06866455 33.45227051 C-0.05841025 29.68498269 -0.05386232 25.9176884 -0.04882812 22.15039062 C-0.0381237 14.7669069 -0.0205421 7.38346411 0 0 Z " fill="#D0D3D7" transform="translate(440,383)"/>
<path d="M0 0 C3.63 0 7.26 0 11 0 C11.0093457 1.56363281 11.01869141 3.12726563 11.02832031 4.73828125 C11.06830676 10.56066984 11.13409094 16.38253489 11.20751953 22.20458984 C11.23567877 24.72047175 11.25691828 27.2364413 11.27099609 29.75244141 C11.29249456 33.37708236 11.3391837 37.00067517 11.390625 40.625 C11.39185364 41.74302002 11.39308228 42.86104004 11.39434814 44.01293945 C11.52023583 50.78335652 12.36799992 55.23809249 16 61 C20.62216998 65.19220068 24.99711863 65.73320527 31 66 C29.75749216 70.97003138 28.2997891 73.20013733 24 76 C19.93608496 78.13890265 16.56272507 78.40023904 12 78 C6.32450447 75.95682161 2.70126279 72.40252559 0 67 C-0.09175034 64.87583 -0.11750694 62.74870545 -0.11352539 60.62255859 C-0.11367142 59.96877731 -0.11381744 59.31499603 -0.1139679 58.6414032 C-0.11327036 56.47704773 -0.1054854 54.31277796 -0.09765625 52.1484375 C-0.09579151 50.64913988 -0.09436787 49.14984166 -0.09336853 47.65054321 C-0.08954779 43.70168378 -0.07972128 39.75286104 -0.06866455 35.80401611 C-0.05844091 31.77559913 -0.05386887 27.74717622 -0.04882812 23.71875 C-0.03809862 15.81248315 -0.0210275 7.90624614 0 0 Z " fill="#CFD2D7" transform="translate(353,383)"/>
<path d="M0 0 C3.14308034 3.06193369 6.00948641 6.15113421 8.6875 9.625 C12.5659737 14.57135174 16.75604407 19.11212444 21.09375 23.65234375 C23 26 23 26 23 29 C18.76556469 31.11721765 14.6655546 31.74245564 10 31 C5.62594597 28.72885656 2.54011546 26.21917483 0 22 C-0.48987633 18.21694127 -0.37663582 14.49388044 -0.25 10.6875 C-0.23195313 9.66076172 -0.21390625 8.63402344 -0.1953125 7.57617188 C-0.14831063 5.04982115 -0.08262272 2.52539531 0 0 Z " fill="#56535C" transform="translate(94,372)"/>
</svg>
